SplineFontDB: 3.2
FontName: CascadiaCodeX
FullName: Cascadia Code X
FamilyName: Cascadia Code X
Weight: Book
Copyright: (c) 2019 Microsoft Corporation. All Rights Reserved.
Version: 1909.16
ItalicAngle: 0
UnderlinePosition: -100
UnderlineWidth: 50
Ascent: 1838
Descent: 562
InvalidEm: 0
sfntRevision: 0x077528f6
LayerCount: 2
Layer: 0 1 "Back" 1
Layer: 1 1 "Fore" 0
XUID: [1021 444 -1172192714 10778]
StyleMap: 0x0040
FSType: 8
OS2Version: 3
OS2_WeightWidthSlopeOnly: 0
OS2_UseTypoMetrics: 0
CreationTime: 1554657509
ModificationTime: 1600764648
PfmFamily: 17
TTFWeight: 400
TTFWidth: 5
LineGap: 0
VLineGap: 0
Panose: 2 11 5 9 2 2 4 3 2 4
OS2TypoAscent: 1568
OS2TypoAOffset: 0
OS2TypoDescent: -480
OS2TypoDOffset: 0
OS2TypoLinegap: 410
OS2WinAscent: 1978
OS2WinAOffset: 0
OS2WinDescent: 480
OS2WinDOffset: 0
HheadAscent: 1978
HheadAOffset: 0
HheadDescent: -480
HheadDOffset: 0
OS2SubXSize: 1331
OS2SubYSize: 1228
OS2SubXOff: 0
OS2SubYOff: 153
OS2SupXSize: 1331
OS2SupYSize: 1228
OS2SupXOff: 0
OS2SupYOff: 716
OS2StrikeYSize: 50
OS2StrikeYPos: 636
OS2CapHeight: 1420
OS2XHeight: 1060
OS2Vendor: 'SAJA'
OS2CodePages: 00000001.00000000
OS2UnicodeRanges: 00000001.00000000.00000000.00000000
Lookup: 6 0 0 "'calt' Contextual Alternates in Latin lookup 0" { "'calt' Contextual Alternates in Latin lookup 0 contextual 0"  "'calt' Contextual Alternates in Latin lookup 0 contextual 1"  "'calt' Contextual Alternates in Latin lookup 0 contextual 2"  "'calt' Contextual Alternates in Latin lookup 0 contextual 3"  "'calt' Contextual Alternates in Latin lookup 0 contextual 4"  "'calt' Contextual Alternates in Latin lookup 0 contextual 5"  } ['calt' ('DFLT' <'dflt' > 'latn' <'dflt' > ) ]

StartChar: .notdef
Encoding: 65536 -1 0
Width: 1200
VWidth: 2048
Flags: W
LayerCount: 2
Fore
SplineSet
1072 1420 m 1,0,-1
 1072 0 l 1,1,-1
 128 0 l 1,2,-1
 128 1420 l 1,3,-1
 1072 1420 l 1,0,-1
860 176 m 1,4,-1
 860 1244 l 1,5,-1
 340 1244 l 1,6,-1
 340 176 l 1,7,-1
 860 176 l 1,4,-1
EndSplineSet
EndChar

StartChar: A
Encoding: 65 65 2
Width: 1200
VWidth: 2048
Flags: W
LayerCount: 2
Fore
SplineSet
849 346 m 1,0,-1
 345 346 l 1,1,-1
 252 0 l 1,2,-1
 42 0 l 1,3,-1
 452 1420 l 1,4,-1
 742 1420 l 1,5,-1
 1152 0 l 1,6,-1
 942 0 l 1,7,-1
 849 346 l 1,0,-1
798 536 m 1,8,-1
 606 1248 l 1,9,-1
 588 1248 l 1,10,-1
 396 536 l 1,11,-1
 798 536 l 1,8,-1
EndSplineSet
EndChar

StartChar: B
Encoding: 66 66 3
Width: 1200
VWidth: 2048
Flags: W
LayerCount: 2
Fore
SplineSet
1019.5 653 m 128,-1,1
 1134 563 1134 563 1134 400 c 0,2,3
 1134 274 1134 274 1083.5 184 c 128,-1,4
 1033 94 1033 94 936.5 47 c 128,-1,5
 840 0 840 0 704 0 c 2,6,-1
 160 0 l 1,7,-1
 160 1420 l 1,8,-1
 582 1420 l 2,9,10
 798 1420 798 1420 916 1326 c 128,-1,11
 1034 1232 1034 1232 1034 1060 c 0,12,13
 1034 931 1034 931 946 853 c 128,-1,14
 858 775 858 775 694 758 c 1,15,-1
 694 746 l 1,16,0
 905 743 905 743 1019.5 653 c 128,-1,1
360 1230 m 1,17,-1
 360 845 l 1,18,-1
 546 845 l 2,19,20
 678 845 678 845 751 896 c 128,-1,21
 824 947 824 947 824 1040 c 0,22,23
 824 1131 824 1131 748 1180.5 c 128,-1,24
 672 1230 672 1230 532 1230 c 2,25,-1
 360 1230 l 1,17,-1
851 250.5 m 128,-1,27
 924 311 924 311 924 420 c 0,28,29
 924 532 924 532 847.5 593.5 c 128,-1,30
 771 655 771 655 632 655 c 2,31,-1
 360 655 l 1,32,-1
 360 190 l 1,33,-1
 646 190 l 2,34,26
 778 190 778 190 851 250.5 c 128,-1,27
EndSplineSet
EndChar

StartChar: C
Encoding: 67 67 4
Width: 1200
VWidth: 2048
Flags: W
LayerCount: 2
Fore
SplineSet
96 712 m 0,1,2
 96 942 96 942 168.5 1105.5 c 128,-1,3
 241 1269 241 1269 379.5 1354.5 c 128,-1,4
 518 1440 518 1440 714 1440 c 0,5,6
 859 1440 859 1440 989.5 1375.5 c 128,-1,7
 1120 1311 1120 1311 1120 1102 c 1,8,-1
 924 1102 l 1,9,10
 924 1258 924 1258 716 1258 c 0,11,12
 593 1258 593 1258 501.5 1195 c 128,-1,13
 410 1132 410 1132 360 1011.5 c 128,-1,14
 310 891 310 891 310 722 c 0,15,16
 310 443 310 443 431 303.5 c 128,-1,17
 552 164 552 164 792 164 c 0,18,19
 937 164 937 164 1078 224 c 1,20,-1
 1124 48 l 1,21,22
 950 -20 950 -20 758 -20 c 0,23,0
 96 -20 96 -20 96 712 c 0,1,2
EndSplineSet
EndChar

StartChar: D
Encoding: 68 68 5
Width: 1200
VWidth: 2048
Flags: W
LayerCount: 2
Fore
SplineSet
992 1233 m 128,-1,1
 1154 1046 1154 1046 1154 670 c 0,2,3
 1154 334 1154 334 992 167 c 128,-1,4
 830 0 830 0 504 0 c 2,5,-1
 160 0 l 1,6,-1
 160 1420 l 1,7,-1
 504 1420 l 2,8,0
 830 1420 830 1420 992 1233 c 128,-1,1
833.5 315 m 128,-1,10
 944 440 944 440 944 690 c 0,11,12
 944 1230 944 1230 504 1230 c 2,13,-1
 360 1230 l 1,14,-1
 360 190 l 1,15,-1
 504 190 l 2,16,9
 723 190 723 190 833.5 315 c 128,-1,10
EndSplineSet
EndChar

StartChar: E
Encoding: 69 69 6
Width: 1200
VWidth: 2048
Flags: W
LayerCount: 2
Fore
SplineSet
360 1230 m 1,0,-1
 360 806 l 1,1,-1
 920 806 l 1,2,-1
 920 616 l 1,3,-1
 360 616 l 1,4,-1
 360 190 l 1,5,-1
 1100 190 l 1,6,-1
 1100 0 l 1,7,-1
 160 0 l 1,8,-1
 160 1420 l 1,9,-1
 1100 1420 l 1,10,-1
 1100 1230 l 1,11,-1
 360 1230 l 1,0,-1
EndSplineSet
EndChar

StartChar: F
Encoding: 70 70 7
Width: 1200
VWidth: 2048
Flags: W
LayerCount: 2
Fore
SplineSet
360 1230 m 1,0,-1
 360 746 l 1,1,-1
 920 746 l 1,2,-1
 920 556 l 1,3,-1
 360 556 l 1,4,-1
 360 0 l 1,5,-1
 160 0 l 1,6,-1
 160 1420 l 1,7,-1
 1100 1420 l 1,8,-1
 1100 1230 l 1,9,-1
 360 1230 l 1,0,-1
EndSplineSet
EndChar

StartChar: G
Encoding: 71 71 8
Width: 1200
VWidth: 2048
Flags: W
LayerCount: 2
Fore
SplineSet
1120 40 m 1,0,1
 1053 18 1053 18 951 -1 c 128,-1,2
 849 -20 849 -20 732 -20 c 0,3,4
 96 -20 96 -20 96 712 c 0,5,6
 96 942 96 942 168.5 1105.5 c 128,-1,7
 241 1269 241 1269 380 1354.5 c 128,-1,8
 519 1440 519 1440 714 1440 c 0,9,10
 1120 1440 1120 1440 1120 1102 c 1,11,-1
 924 1102 l 1,12,13
 924 1180 924 1180 867 1218 c 128,-1,14
 810 1256 810 1256 696 1256 c 0,15,16
 574 1256 574 1256 487.5 1193.5 c 128,-1,17
 401 1131 401 1131 355.5 1011 c 128,-1,18
 310 891 310 891 310 722 c 0,19,20
 310 443 310 443 422 303.5 c 128,-1,21
 534 164 534 164 756 164 c 0,22,23
 839 164 839 164 930 184 c 1,24,-1
 930 520 l 1,25,-1
 640 520 l 1,26,-1
 640 710 l 1,27,-1
 1120 710 l 1,28,-1
 1120 40 l 1,0,1
EndSplineSet
EndChar

StartChar: H
Encoding: 72 72 9
Width: 1200
VWidth: 2048
Flags: W
LayerCount: 2
Fore
SplineSet
1058 1420 m 1,0,-1
 1058 0 l 1,1,-1
 858 0 l 1,2,-1
 858 612 l 1,3,-1
 340 612 l 1,4,-1
 340 0 l 1,5,-1
 140 0 l 1,6,-1
 140 1420 l 1,7,-1
 340 1420 l 1,8,-1
 340 802 l 1,9,-1
 858 802 l 1,10,-1
 858 1420 l 1,11,-1
 1058 1420 l 1,0,-1
EndSplineSet
EndChar

StartChar: I
Encoding: 73 73 10
Width: 1200
VWidth: 2048
Flags: W
LayerCount: 2
Fore
SplineSet
699 1230 m 1,0,-1
 699 190 l 1,1,-1
 1032 190 l 1,2,-1
 1032 0 l 1,3,-1
 168 0 l 1,4,-1
 168 190 l 1,5,-1
 499 190 l 1,6,-1
 499 1230 l 1,7,-1
 168 1230 l 1,8,-1
 168 1420 l 1,9,-1
 1032 1420 l 1,10,-1
 1032 1230 l 1,11,-1
 699 1230 l 1,0,-1
EndSplineSet
EndChar

StartChar: J
Encoding: 74 74 11
Width: 1200
VWidth: 2048
Flags: W
LayerCount: 2
Fore
SplineSet
1072 456 m 2,0,1
 1072 312 1072 312 1014 209.5 c 128,-1,2
 956 107 956 107 846 53.5 c 128,-1,3
 736 0 736 0 584 0 c 0,4,5
 429 0 429 0 319.5 58.5 c 128,-1,6
 210 117 210 117 153 228.5 c 128,-1,7
 96 340 96 340 96 496 c 1,8,-1
 296 496 l 1,9,10
 296 346 296 346 372.5 263 c 128,-1,11
 449 180 449 180 589 180 c 0,12,13
 725 180 725 180 798.5 252 c 128,-1,14
 872 324 872 324 872 456 c 2,15,-1
 872 1230 l 1,16,-1
 500 1230 l 1,17,-1
 500 1420 l 1,18,-1
 1072 1420 l 1,19,-1
 1072 456 l 2,0,1
EndSplineSet
EndChar

StartChar: K
Encoding: 75 75 12
Width: 1200
VWidth: 2048
Flags: W
LayerCount: 2
Fore
SplineSet
630 577 m 1,0,1
 505 517 505 517 360 505 c 1,2,-1
 360 0 l 1,3,-1
 160 0 l 1,4,-1
 160 1420 l 1,5,-1
 360 1420 l 1,6,-1
 360 692 l 1,7,8
 538 707 538 707 659 811.5 c 128,-1,9
 780 916 780 916 839 1076 c 128,-1,10
 898 1236 898 1236 898 1420 c 1,11,-1
 1104 1420 l 1,12,13
 1104 1204 1104 1204 1026 1012.5 c 128,-1,14
 948 821 948 821 804 693 c 1,15,-1
 1172 0 l 1,16,-1
 930 0 l 1,17,-1
 630 577 l 1,0,1
EndSplineSet
EndChar

StartChar: L
Encoding: 76 76 13
Width: 1200
VWidth: 2048
Flags: W
LayerCount: 2
Fore
SplineSet
1100 190 m 1,0,-1
 1100 0 l 1,1,-1
 160 0 l 1,2,-1
 160 1420 l 1,3,-1
 360 1420 l 1,4,-1
 360 190 l 1,5,-1
 1100 190 l 1,0,-1
EndSplineSet
EndChar

StartChar: M
Encoding: 77 77 14
Width: 1200
VWidth: 2048
Flags: W
LayerCount: 2
Fore
SplineSet
1072 1420 m 1,0,-1
 1072 0 l 1,1,-1
 880 0 l 1,2,-1
 880 1168 l 1,3,-1
 854 1168 l 1,4,-1
 702 580 l 1,5,-1
 498 580 l 1,6,-1
 346 1168 l 1,7,-1
 320 1168 l 1,8,-1
 320 0 l 1,9,-1
 128 0 l 1,10,-1
 128 1420 l 1,11,-1
 440 1420 l 1,12,-1
 592 810 l 1,13,-1
 608 810 l 1,14,-1
 760 1420 l 1,15,-1
 1072 1420 l 1,0,-1
EndSplineSet
EndChar

StartChar: N
Encoding: 78 78 15
Width: 1200
VWidth: 2048
Flags: W
LayerCount: 2
Fore
SplineSet
860 1420 m 1,0,-1
 1052 1420 l 1,1,-1
 1052 0 l 1,2,-1
 800 0 l 1,3,-1
 360 1050 l 1,4,-1
 340 1050 l 1,5,-1
 340 0 l 1,6,-1
 148 0 l 1,7,-1
 148 1420 l 1,8,-1
 400 1420 l 1,9,-1
 840 322 l 1,10,-1
 860 322 l 1,11,-1
 860 1420 l 1,0,-1
EndSplineSet
EndChar

StartChar: O
Encoding: 79 79 16
Width: 1200
VWidth: 2048
Flags: W
LayerCount: 2
Fore
SplineSet
76 700 m 0,1,2
 76 1440 76 1440 600 1440 c 256,3,4
 1124 1440 1124 1440 1124 700 c 0,5,6
 1124 -20 1124 -20 600 -20 c 256,7,0
 76 -20 76 -20 76 700 c 0,1,2
914 700 m 0,9,10
 914 1256 914 1256 600 1256 c 256,11,12
 286 1256 286 1256 286 700 c 0,13,14
 286 164 286 164 600 164 c 256,15,8
 914 164 914 164 914 700 c 0,9,10
EndSplineSet
EndChar

StartChar: P
Encoding: 80 80 17
Width: 1200
VWidth: 2048
Flags: W
LayerCount: 2
Fore
SplineSet
871 1364 m 128,-1,1
 993 1308 993 1308 1056.5 1200 c 128,-1,2
 1120 1092 1120 1092 1120 940 c 0,3,4
 1120 782 1120 782 1056.5 669.5 c 128,-1,5
 993 557 993 557 871 498.5 c 128,-1,6
 749 440 749 440 578 440 c 2,7,-1
 360 440 l 1,8,-1
 360 0 l 1,9,-1
 160 0 l 1,10,-1
 160 1420 l 1,11,-1
 578 1420 l 2,12,0
 749 1420 749 1420 871 1364 c 128,-1,1
823 706 m 128,-1,14
 910 782 910 782 910 920 c 0,15,16
 910 1068 910 1068 823 1149 c 128,-1,17
 736 1230 736 1230 578 1230 c 2,18,-1
 360 1230 l 1,19,-1
 360 630 l 1,20,-1
 578 630 l 2,21,13
 736 630 736 630 823 706 c 128,-1,14
EndSplineSet
EndChar

StartChar: Q
Encoding: 81 81 18
Width: 1200
VWidth: 2048
Flags: W
LayerCount: 2
Fore
SplineSet
930 -280 m 2,1,-1
 1032 -280 l 1,2,-1
 1012 -460 l 1,3,-1
 930 -460 l 2,4,5
 496 -460 496 -460 496 -20 c 2,6,-1
 496 -12 l 1,7,8
 76 56 76 56 76 700 c 0,9,10
 76 1440 76 1440 600 1440 c 256,11,12
 1124 1440 1124 1440 1124 700 c 0,13,14
 1124 48 1124 48 694 -14 c 1,15,-1
 694 -22 l 2,16,0
 694 -280 694 -280 930 -280 c 2,1,-1
600 164 m 256,18,19
 914 164 914 164 914 700 c 0,20,21
 914 1256 914 1256 600 1256 c 256,22,23
 286 1256 286 1256 286 700 c 0,24,17
 286 164 286 164 600 164 c 256,18,19
EndSplineSet
EndChar

StartChar: R
Encoding: 82 82 19
Width: 1200
VWidth: 2048
Flags: W
LayerCount: 2
Fore
SplineSet
900 0 m 1,0,-1
 643 540 l 1,1,-1
 628 540 l 1,2,-1
 338 540 l 1,3,-1
 338 0 l 1,4,-1
 138 0 l 1,5,-1
 138 1420 l 1,6,-1
 628 1420 l 2,7,8
 774 1420 774 1420 878 1369.5 c 128,-1,9
 982 1319 982 1319 1036 1222.5 c 128,-1,10
 1090 1126 1090 1126 1090 990 c 0,11,12
 1090 838 1090 838 1028 733 c 128,-1,13
 966 628 966 628 849 579 c 1,14,-1
 1142 0 l 1,15,-1
 900 0 l 1,0,-1
338 730 m 1,16,-1
 628 730 l 2,17,18
 747 730 747 730 813.5 793 c 128,-1,19
 880 856 880 856 880 970 c 0,20,21
 880 1094 880 1094 814 1162 c 128,-1,22
 748 1230 748 1230 628 1230 c 2,23,-1
 338 1230 l 1,24,-1
 338 730 l 1,16,-1
EndSplineSet
EndChar

StartChar: S
Encoding: 83 83 20
Width: 1200
VWidth: 2048
Flags: W
LayerCount: 2
Fore
SplineSet
973 600.5 m 128,-1,1
 1052 506 1052 506 1052 366 c 0,2,3
 1052 168 1052 168 926.5 69 c 128,-1,4
 801 -30 801 -30 546 -30 c 0,5,6
 304 -30 304 -30 124 48 c 1,7,-1
 150 242 l 1,8,9
 372 154 372 154 562 154 c 0,10,11
 701 154 701 154 769.5 205.5 c 128,-1,12
 838 257 838 257 838 362 c 0,13,14
 838 489 838 489 708 548 c 2,15,-1
 462 660 l 2,16,17
 312 728 312 728 237 822 c 128,-1,18
 162 916 162 916 162 1050 c 0,19,20
 162 1173 162 1173 215 1260.5 c 128,-1,21
 268 1348 268 1348 369 1394 c 128,-1,22
 470 1440 470 1440 612 1440 c 0,23,24
 740 1440 740 1440 831.5 1400 c 128,-1,25
 923 1360 923 1360 970.5 1284.5 c 128,-1,26
 1018 1209 1018 1209 1018 1102 c 1,27,-1
 822 1102 l 1,28,29
 822 1176 822 1176 767 1216 c 128,-1,30
 712 1256 712 1256 612 1256 c 0,31,32
 500 1256 500 1256 438 1204.5 c 128,-1,33
 376 1153 376 1153 376 1060 c 0,34,35
 376 993 376 993 411.5 949.5 c 128,-1,36
 447 906 447 906 522 870 c 2,37,-1
 730 772 l 2,38,0
 894 695 894 695 973 600.5 c 128,-1,1
EndSplineSet
EndChar

StartChar: T
Encoding: 84 84 21
Width: 1200
VWidth: 2048
Flags: W
LayerCount: 2
Fore
SplineSet
1120 1230 m 1,0,-1
 700 1230 l 1,1,-1
 700 0 l 1,2,-1
 500 0 l 1,3,-1
 500 1230 l 1,4,-1
 80 1230 l 1,5,-1
 80 1420 l 1,6,-1
 1120 1420 l 1,7,-1
 1120 1230 l 1,0,-1
EndSplineSet
EndChar

StartChar: U
Encoding: 85 85 22
Width: 1200
VWidth: 2048
Flags: W
LayerCount: 2
Fore
SplineSet
140 476 m 2,1,-1
 140 1420 l 1,2,-1
 340 1420 l 1,3,-1
 340 476 l 2,4,5
 340 332 340 332 403 261 c 128,-1,6
 466 190 466 190 600 190 c 0,7,8
 729 190 729 190 794.5 262 c 128,-1,9
 860 334 860 334 860 476 c 2,10,-1
 860 1420 l 1,11,-1
 1060 1420 l 1,12,-1
 1060 476 l 2,13,14
 1060 239 1060 239 942.5 119.5 c 128,-1,15
 825 0 825 0 596 0 c 0,16,0
 140 0 140 0 140 476 c 2,1,-1
EndSplineSet
EndChar

StartChar: V
Encoding: 86 86 23
Width: 1200
VWidth: 2048
Flags: W
LayerCount: 2
Fore
SplineSet
44 1420 m 1,0,-1
 258 1420 l 1,1,-1
 590 150 l 1,2,-1
 608 150 l 1,3,-1
 940 1420 l 1,4,-1
 1154 1420 l 1,5,-1
 754 -20 l 1,6,-1
 444 -20 l 1,7,-1
 44 1420 l 1,0,-1
EndSplineSet
EndChar

StartChar: W
Encoding: 87 87 24
Width: 1200
VWidth: 2048
Flags: W
LayerCount: 2
Fore
SplineSet
990 1420 m 1,0,-1
 1180 1420 l 1,1,-1
 1040 -20 l 1,2,-1
 716 -20 l 1,3,-1
 606 802 l 1,4,-1
 594 802 l 1,5,-1
 484 -20 l 1,6,-1
 160 -20 l 1,7,-1
 20 1420 l 1,8,-1
 210 1420 l 1,9,-1
 330 140 l 1,10,-1
 350 140 l 1,11,-1
 496 1000 l 1,12,-1
 706 1000 l 1,13,-1
 850 140 l 1,14,-1
 870 140 l 1,15,-1
 990 1420 l 1,0,-1
EndSplineSet
EndChar

StartChar: X
Encoding: 88 88 25
Width: 1200
VWidth: 2048
Flags: W
LayerCount: 2
Fore
SplineSet
1136 1420 m 1,0,-1
 701 703 l 1,1,-1
 1136 0 l 1,2,-1
 906 0 l 1,3,-1
 601 533 l 1,4,-1
 296 0 l 1,5,-1
 66 0 l 1,6,-1
 501 703 l 1,7,-1
 66 1420 l 1,8,-1
 296 1420 l 1,9,-1
 601 876 l 1,10,-1
 906 1420 l 1,11,-1
 1136 1420 l 1,0,-1
EndSplineSet
EndChar

StartChar: Y
Encoding: 89 89 26
Width: 1200
VWidth: 2048
Flags: W
LayerCount: 2
Fore
SplineSet
703 507 m 1,0,-1
 703 0 l 1,1,-1
 503 0 l 1,2,-1
 503 499 l 1,3,-1
 26 1420 l 1,4,-1
 246 1420 l 1,5,-1
 592 710 l 1,6,-1
 610 710 l 1,7,-1
 956 1420 l 1,8,-1
 1176 1420 l 1,9,-1
 703 507 l 1,0,-1
EndSplineSet
EndChar

StartChar: Z
Encoding: 90 90 27
Width: 1200
VWidth: 2048
Flags: W
LayerCount: 2
Fore
SplineSet
1070 176 m 1,0,-1
 1070 0 l 1,1,-1
 150 0 l 1,2,-1
 150 176 l 1,3,-1
 806 1230 l 1,4,-1
 150 1230 l 1,5,-1
 150 1420 l 1,6,-1
 1050 1420 l 1,7,-1
 1050 1230 l 1,8,-1
 374 176 l 1,9,-1
 1070 176 l 1,0,-1
EndSplineSet
EndChar

StartChar: a
Encoding: 97 97 28
Width: 1200
VWidth: 2048
Flags: W
LayerCount: 2
Fore
SplineSet
1158 170 m 1,0,-1
 1158 0 l 1,1,-1
 818 -10 l 1,2,-1
 808 224 l 1,3,-1
 787 224 l 1,4,5
 776 104 776 104 685.5 42 c 128,-1,6
 595 -20 595 -20 444 -20 c 0,7,8
 278 -20 278 -20 187 59.5 c 128,-1,9
 96 139 96 139 96 286 c 0,10,11
 96 454 96 454 218.5 544 c 128,-1,12
 341 634 341 634 566 634 c 0,13,14
 688 634 688 634 776 609 c 1,15,-1
 776 666 l 2,16,17
 776 774 776 774 702.5 827 c 128,-1,18
 629 880 629 880 480 888 c 2,19,-1
 226 900 l 1,20,-1
 246 1080 l 1,21,-1
 460 1072 l 2,22,23
 722 1062 722 1062 850 953 c 128,-1,24
 978 844 978 844 978 634 c 2,25,-1
 978 192 l 1,26,-1
 1158 170 l 1,0,-1
639.5 183 m 128,-1,28
 707 216 707 216 741.5 269 c 128,-1,29
 776 322 776 322 776 380 c 2,30,-1
 776 444 l 1,31,32
 726 457 726 457 676.5 460.5 c 128,-1,33
 627 464 627 464 552 464 c 0,34,35
 426 464 426 464 361 424 c 128,-1,36
 296 384 296 384 296 306 c 0,37,38
 296 229 296 229 342 189.5 c 128,-1,39
 388 150 388 150 478 150 c 0,40,27
 572 150 572 150 639.5 183 c 128,-1,28
EndSplineSet
EndChar

StartChar: b
Encoding: 98 98 29
Width: 1200
VWidth: 2048
Flags: W
LayerCount: 2
Fore
SplineSet
900 1016.5 m 128,-1,1
 1000 953 1000 953 1052 832 c 128,-1,2
 1104 711 1104 711 1104 540 c 0,3,4
 1104 363 1104 363 1035.5 237.5 c 128,-1,5
 967 112 967 112 836.5 46 c 128,-1,6
 706 -20 706 -20 522 -20 c 0,7,8
 368 -20 368 -20 168 0 c 1,9,-1
 168 1500 l 1,10,-1
 380 1500 l 1,11,-1
 380 868 l 1,12,-1
 400 868 l 1,13,14
 415 1080 415 1080 660 1080 c 0,15,0
 800 1080 800 1080 900 1016.5 c 128,-1,1
808 259.5 m 128,-1,17
 894 359 894 359 894 540 c 0,18,19
 894 713 894 713 830.5 806.5 c 128,-1,20
 767 900 767 900 650 900 c 0,21,22
 380 900 380 900 380 596 c 2,23,-1
 380 166 l 1,24,25
 440 160 440 160 564 160 c 0,26,16
 722 160 722 160 808 259.5 c 128,-1,17
EndSplineSet
EndChar

StartChar: c
Encoding: 99 99 30
Width: 1200
VWidth: 2048
Flags: W
LayerCount: 2
Fore
SplineSet
386 44 m 128,-1,1
 264 108 264 108 200 231.5 c 128,-1,2
 136 355 136 355 136 532 c 0,3,4
 136 705 136 705 195 828 c 128,-1,5
 254 951 254 951 368 1015.5 c 128,-1,6
 482 1080 482 1080 644 1080 c 0,7,8
 730 1080 730 1080 818.5 1060 c 128,-1,9
 907 1040 907 1040 985.5 956.5 c 128,-1,10
 1064 873 1064 873 1064 702 c 1,11,-1
 846 702 l 1,12,13
 846 791 846 791 793 840.5 c 128,-1,14
 740 890 740 890 646 890 c 0,15,16
 508 890 508 890 432 799 c 128,-1,17
 356 708 356 708 356 542 c 0,18,19
 356 361 356 361 446.5 265.5 c 128,-1,20
 537 170 537 170 706 170 c 0,21,22
 856 170 856 170 1018 196 c 1,23,-1
 1042 10 l 1,24,25
 897 -20 897 -20 682 -20 c 0,26,0
 508 -20 508 -20 386 44 c 128,-1,1
EndSplineSet
EndChar

StartChar: d
Encoding: 100 100 31
Width: 1200
VWidth: 2048
Flags: W
LayerCount: 2
Fore
SplineSet
1032 1500 m 1,0,-1
 1032 0 l 1,1,-1
 842 -10 l 1,2,-1
 824 164 l 1,3,-1
 800 164 l 1,4,5
 790 74 790 74 715 27 c 128,-1,6
 640 -20 640 -20 518 -20 c 0,7,8
 384 -20 384 -20 289.5 42.5 c 128,-1,9
 195 105 195 105 145.5 226 c 128,-1,10
 96 347 96 347 96 520 c 0,11,12
 96 697 96 697 145.5 823 c 128,-1,13
 195 949 195 949 290.5 1014.5 c 128,-1,14
 386 1080 386 1080 520 1080 c 0,15,16
 647 1080 647 1080 716.5 1027.5 c 128,-1,17
 786 975 786 975 800 868 c 1,18,-1
 820 868 l 1,19,-1
 820 1500 l 1,20,-1
 1032 1500 l 1,0,-1
820 340 m 2,22,-1
 820 596 l 2,23,24
 820 900 820 900 550 900 c 0,25,26
 433 900 433 900 369.5 801 c 128,-1,27
 306 702 306 702 306 520 c 0,28,29
 306 342 306 342 368 251 c 128,-1,30
 430 160 430 160 552 160 c 0,31,21
 820 160 820 160 820 340 c 2,22,-1
EndSplineSet
EndChar

StartChar: e
Encoding: 101 101 32
Width: 1200
VWidth: 2048
Flags: W
LayerCount: 2
Fore
SplineSet
1058 436 m 1,1,-1
 342 436 l 1,2,3
 370 304 370 304 468 235 c 128,-1,4
 566 166 566 166 726 166 c 0,5,6
 849 166 849 166 986 194 c 1,7,-1
 1012 8 l 1,8,9
 865 -20 865 -20 702 -20 c 0,10,11
 521 -20 521 -20 394.5 44 c 128,-1,12
 268 108 268 108 202 231.5 c 128,-1,13
 136 355 136 355 136 532 c 0,14,15
 136 704 136 704 192 827 c 128,-1,16
 248 950 248 950 355.5 1015 c 128,-1,17
 463 1080 463 1080 614 1080 c 0,18,19
 830 1080 830 1080 947 949 c 128,-1,20
 1064 818 1064 818 1064 572 c 0,21,0
 1064 499 1064 499 1058 436 c 1,1,-1
872 598 m 1,22,23
 872 740 872 740 804.5 817 c 128,-1,24
 737 894 737 894 616 894 c 0,25,26
 493 894 493 894 420 817 c 128,-1,27
 347 740 347 740 334 598 c 1,28,-1
 872 598 l 1,22,23
EndSplineSet
EndChar

StartChar: f
Encoding: 102 102 33
Width: 1200
VWidth: 2048
Flags: W
LayerCount: 2
Fore
SplineSet
614 980 m 2,1,-1
 614 820 l 1,2,-1
 1048 820 l 1,3,-1
 1048 644 l 1,4,-1
 614 644 l 1,5,-1
 614 0 l 1,6,-1
 402 0 l 1,7,-1
 402 644 l 1,8,-1
 68 644 l 1,9,-1
 68 820 l 1,10,-1
 402 820 l 1,11,-1
 402 970 l 2,12,13
 402 1246 402 1246 527 1383 c 128,-1,14
 652 1520 652 1520 904 1520 c 0,15,16
 1018 1520 1018 1520 1124 1500 c 1,17,-1
 1102 1316 l 1,18,19
 984 1330 984 1330 898 1330 c 0,20,0
 614 1330 614 1330 614 980 c 2,1,-1
EndSplineSet
EndChar

StartChar: g
Encoding: 103 103 34
Width: 1200
VWidth: 2048
Flags: W
LayerCount: 2
Fore
SplineSet
1032 1060 m 1,0,-1
 1032 94 l 2,1,2
 1032 -96 1032 -96 975.5 -217 c 128,-1,3
 919 -338 919 -338 800 -399.5 c 128,-1,4
 681 -461 681 -461 492 -468 c 2,5,-1
 182 -478 l 1,6,-1
 172 -290 l 1,7,-1
 512 -274 l 2,8,9
 671 -267 671 -267 744.5 -185 c 128,-1,10
 818 -103 818 -103 818 62 c 2,11,-1
 818 164 l 1,12,-1
 800 164 l 1,13,14
 790 74 790 74 715 27 c 128,-1,15
 640 -20 640 -20 518 -20 c 0,16,17
 384 -20 384 -20 289.5 42.5 c 128,-1,18
 195 105 195 105 145.5 226 c 128,-1,19
 96 347 96 347 96 520 c 0,20,21
 96 697 96 697 145.5 823 c 128,-1,22
 195 949 195 949 290.5 1014.5 c 128,-1,23
 386 1080 386 1080 520 1080 c 0,24,25
 647 1080 647 1080 716.5 1027.5 c 128,-1,26
 786 975 786 975 800 868 c 1,27,-1
 823 868 l 1,28,-1
 840 1060 l 1,29,-1
 1032 1060 l 1,0,-1
820 340 m 2,31,-1
 820 596 l 2,32,33
 820 900 820 900 550 900 c 0,34,35
 433 900 433 900 369.5 801 c 128,-1,36
 306 702 306 702 306 520 c 0,37,38
 306 342 306 342 368 251 c 128,-1,39
 430 160 430 160 552 160 c 0,40,30
 820 160 820 160 820 340 c 2,31,-1
EndSplineSet
EndChar

StartChar: h
Encoding: 104 104 35
Width: 1200
VWidth: 2048
Flags: W
LayerCount: 2
Fore
SplineSet
940 978 m 128,-1,1
 1032 876 1032 876 1032 690 c 2,2,-1
 1032 0 l 1,3,-1
 820 0 l 1,4,-1
 820 690 l 2,5,6
 820 790 820 790 770 845 c 128,-1,7
 720 900 720 900 630 900 c 0,8,9
 380 900 380 900 380 596 c 2,10,-1
 380 0 l 1,11,-1
 168 0 l 1,12,-1
 168 1500 l 1,13,-1
 380 1500 l 1,14,-1
 380 868 l 1,15,-1
 400 868 l 1,16,17
 409 975 409 975 478 1027.5 c 128,-1,18
 547 1080 547 1080 680 1080 c 0,19,0
 848 1080 848 1080 940 978 c 128,-1,1
EndSplineSet
EndChar

StartChar: i
Encoding: 105 105 36
Width: 1200
VWidth: 2048
Flags: W
LayerCount: 2
Fore
SplineSet
584 1248 m 128,-1,1
 550 1268 550 1268 530 1302 c 128,-1,2
 510 1336 510 1336 510 1376 c 256,3,4
 510 1416 510 1416 530 1450 c 128,-1,5
 550 1484 550 1484 584 1504 c 128,-1,6
 618 1524 618 1524 658 1524 c 256,7,8
 698 1524 698 1524 732 1504 c 128,-1,9
 766 1484 766 1484 786 1450 c 128,-1,10
 806 1416 806 1416 806 1376 c 256,11,12
 806 1336 806 1336 786 1302 c 128,-1,13
 766 1268 766 1268 732 1248 c 128,-1,14
 698 1228 698 1228 658 1228 c 256,15,0
 618 1228 618 1228 584 1248 c 128,-1,1
776 174 m 1,16,-1
 1102 174 l 1,17,-1
 1102 0 l 1,18,-1
 160 0 l 1,19,-1
 160 174 l 1,20,-1
 564 174 l 1,21,-1
 564 884 l 1,22,-1
 220 884 l 1,23,-1
 220 1060 l 1,24,-1
 776 1060 l 1,25,-1
 776 174 l 1,16,-1
EndSplineSet
EndChar

StartChar: j
Encoding: 106 106 37
Width: 1200
VWidth: 2048
Flags: W
LayerCount: 2
Fore
SplineSet
686 1248 m 128,-1,1
 652 1268 652 1268 632 1302 c 128,-1,2
 612 1336 612 1336 612 1376 c 256,3,4
 612 1416 612 1416 632 1450 c 128,-1,5
 652 1484 652 1484 686 1504 c 128,-1,6
 720 1524 720 1524 760 1524 c 256,7,8
 800 1524 800 1524 834 1504 c 128,-1,9
 868 1484 868 1484 888 1450 c 128,-1,10
 908 1416 908 1416 908 1376 c 256,11,12
 908 1336 908 1336 888 1302 c 128,-1,13
 868 1268 868 1268 834 1248 c 128,-1,14
 800 1228 800 1228 760 1228 c 256,15,0
 720 1228 720 1228 686 1248 c 128,-1,1
888 94 m 2,16,17
 888 -95 888 -95 832 -213 c 128,-1,18
 776 -331 776 -331 658.5 -392 c 128,-1,19
 541 -453 541 -453 350 -468 c 2,20,-1
 180 -480 l 1,21,-1
 170 -292 l 1,22,-1
 370 -274 l 2,23,24
 531 -259 531 -259 603.5 -180 c 128,-1,25
 676 -101 676 -101 676 62 c 2,26,-1
 676 884 l 1,27,-1
 264 884 l 1,28,-1
 264 1060 l 1,29,-1
 888 1060 l 1,30,-1
 888 94 l 2,16,17
EndSplineSet
EndChar

StartChar: k
Encoding: 107 107 38
Width: 1200
VWidth: 2048
Flags: W
LayerCount: 2
Fore
SplineSet
878 0 m 1,0,-1
 623 436 l 1,1,2
 553 422 553 422 480 422 c 2,3,-1
 372 422 l 1,4,-1
 372 0 l 1,5,-1
 160 0 l 1,6,-1
 160 1500 l 1,7,-1
 372 1500 l 1,8,-1
 372 612 l 1,9,-1
 430 612 l 2,10,11
 564 612 564 612 648 656 c 128,-1,12
 732 700 732 700 780.5 797 c 128,-1,13
 829 894 829 894 852 1060 c 1,14,-1
 1072 1060 l 1,15,16
 1021 675 1021 675 821 524 c 1,17,-1
 1140 0 l 1,18,-1
 878 0 l 1,0,-1
EndSplineSet
EndChar

StartChar: l
Encoding: 108 108 39
Width: 1200
VWidth: 2048
Flags: W
LayerCount: 2
Fore
SplineSet
1064 22 m 1,0,1
 984 0 984 0 909 -10 c 128,-1,2
 834 -20 834 -20 748 -20 c 0,3,4
 624 -20 624 -20 548 24 c 128,-1,5
 472 68 472 68 436 160 c 128,-1,6
 400 252 400 252 400 400 c 2,7,-1
 400 1324 l 1,8,-1
 88 1324 l 1,9,-1
 88 1500 l 1,10,-1
 612 1500 l 1,11,-1
 612 410 l 2,12,13
 612 320 612 320 628.5 269.5 c 128,-1,14
 645 219 645 219 691.5 194.5 c 128,-1,15
 738 170 738 170 828 170 c 0,16,17
 872 170 872 170 922.5 179 c 128,-1,18
 973 188 973 188 1040 208 c 1,19,-1
 1064 22 l 1,0,1
EndSplineSet
EndChar

StartChar: m
Encoding: 109 109 40
Width: 1200
VWidth: 2048
Flags: W
LayerCount: 2
Fore
SplineSet
1038 1021 m 128,-1,1
 1088 962 1088 962 1088 830 c 2,2,-1
 1088 0 l 1,3,-1
 876 0 l 1,4,-1
 876 810 l 2,5,6
 876 866 876 866 856 893 c 128,-1,7
 836 920 836 920 794 920 c 0,8,9
 690 920 690 920 690 776 c 2,10,-1
 690 0 l 1,11,-1
 510 0 l 1,12,-1
 510 830 l 2,13,14
 510 920 510 920 426 920 c 0,15,16
 324 920 324 920 324 776 c 2,17,-1
 324 0 l 1,18,-1
 112 0 l 1,19,-1
 112 1060 l 1,20,-1
 300 1060 l 1,21,-1
 314 928 l 1,22,-1
 330 928 l 1,23,24
 336 1005 336 1005 380.5 1042.5 c 128,-1,25
 425 1080 425 1080 512 1080 c 0,26,27
 580 1080 580 1080 624 1041.5 c 128,-1,28
 668 1003 668 1003 683 928 c 1,29,-1
 700 928 l 1,30,31
 705 993 705 993 751.5 1036.5 c 128,-1,32
 798 1080 798 1080 878 1080 c 0,33,0
 988 1080 988 1080 1038 1021 c 128,-1,1
EndSplineSet
EndChar

StartChar: n
Encoding: 110 110 41
Width: 1200
VWidth: 2048
Flags: W
LayerCount: 2
Fore
SplineSet
940 978 m 128,-1,1
 1032 876 1032 876 1032 690 c 2,2,-1
 1032 0 l 1,3,-1
 820 0 l 1,4,-1
 820 690 l 2,5,6
 820 790 820 790 770 845 c 128,-1,7
 720 900 720 900 630 900 c 0,8,9
 380 900 380 900 380 596 c 2,10,-1
 380 0 l 1,11,-1
 168 0 l 1,12,-1
 168 1060 l 1,13,-1
 360 1060 l 1,14,-1
 377 868 l 1,15,-1
 400 868 l 1,16,17
 409 975 409 975 478 1027.5 c 128,-1,18
 547 1080 547 1080 680 1080 c 0,19,0
 848 1080 848 1080 940 978 c 128,-1,1
EndSplineSet
EndChar

StartChar: o
Encoding: 111 111 42
Width: 1200
VWidth: 2048
Flags: W
LayerCount: 2
Fore
SplineSet
349.5 44.5 m 128,-1,1
 245 109 245 109 190.5 232.5 c 128,-1,2
 136 356 136 356 136 530 c 256,3,4
 136 704 136 704 190.5 827.5 c 128,-1,5
 245 951 245 951 349.5 1015.5 c 128,-1,6
 454 1080 454 1080 600 1080 c 256,7,8
 746 1080 746 1080 850.5 1015.5 c 128,-1,9
 955 951 955 951 1009.5 827.5 c 128,-1,10
 1064 704 1064 704 1064 530 c 256,11,12
 1064 356 1064 356 1009.5 232.5 c 128,-1,13
 955 109 955 109 850.5 44.5 c 128,-1,14
 746 -20 746 -20 600 -20 c 256,15,0
 454 -20 454 -20 349.5 44.5 c 128,-1,1
780.5 263.5 m 128,-1,17
 844 357 844 357 844 530 c 256,18,19
 844 703 844 703 780.5 796.5 c 128,-1,20
 717 890 717 890 600 890 c 256,21,22
 483 890 483 890 419.5 796.5 c 128,-1,23
 356 703 356 703 356 530 c 256,24,25
 356 357 356 357 419.5 263.5 c 128,-1,26
 483 170 483 170 600 170 c 256,27,16
 717 170 717 170 780.5 263.5 c 128,-1,17
EndSplineSet
EndChar

StartChar: p
Encoding: 112 112 43
Width: 1200
VWidth: 2048
Flags: W
LayerCount: 2
Fore
SplineSet
909.5 1014.5 m 128,-1,1
 1005 949 1005 949 1054.5 823 c 128,-1,2
 1104 697 1104 697 1104 520 c 0,3,4
 1104 347 1104 347 1054.5 226 c 128,-1,5
 1005 105 1005 105 910.5 42.5 c 128,-1,6
 816 -20 816 -20 682 -20 c 0,7,8
 560 -20 560 -20 485 27 c 128,-1,9
 410 74 410 74 400 164 c 1,10,-1
 380 164 l 1,11,-1
 380 -460 l 1,12,-1
 168 -460 l 1,13,-1
 168 1060 l 1,14,-1
 360 1060 l 1,15,-1
 377 868 l 1,16,-1
 400 868 l 1,17,18
 414 975 414 975 483.5 1027.5 c 128,-1,19
 553 1080 553 1080 680 1080 c 0,20,0
 814 1080 814 1080 909.5 1014.5 c 128,-1,1
832 251 m 128,-1,22
 894 342 894 342 894 520 c 0,23,24
 894 702 894 702 830.5 801 c 128,-1,25
 767 900 767 900 650 900 c 0,26,27
 380 900 380 900 380 596 c 2,28,-1
 380 340 l 2,29,30
 380 160 380 160 648 160 c 0,31,21
 770 160 770 160 832 251 c 128,-1,22
EndSplineSet
EndChar

StartChar: q
Encoding: 113 113 44
Width: 1200
VWidth: 2048
Flags: W
LayerCount: 2
Fore
SplineSet
1024 1060 m 1,0,-1
 1024 -460 l 1,1,-1
 812 -460 l 1,2,-1
 812 164 l 1,3,-1
 792 164 l 1,4,5
 782 74 782 74 707 27 c 128,-1,6
 632 -20 632 -20 510 -20 c 0,7,8
 376 -20 376 -20 281.5 42.5 c 128,-1,9
 187 105 187 105 137.5 226 c 128,-1,10
 88 347 88 347 88 520 c 0,11,12
 88 697 88 697 137.5 823 c 128,-1,13
 187 949 187 949 282.5 1014.5 c 128,-1,14
 378 1080 378 1080 512 1080 c 0,15,16
 639 1080 639 1080 708.5 1027.5 c 128,-1,17
 778 975 778 975 792 868 c 1,18,-1
 815 868 l 1,19,-1
 832 1060 l 1,20,-1
 1024 1060 l 1,0,-1
812 340 m 2,22,-1
 812 596 l 2,23,24
 812 900 812 900 542 900 c 0,25,26
 425 900 425 900 361.5 801 c 128,-1,27
 298 702 298 702 298 520 c 0,28,29
 298 342 298 342 360 251 c 128,-1,30
 422 160 422 160 544 160 c 0,31,21
 812 160 812 160 812 340 c 2,22,-1
EndSplineSet
EndChar

StartChar: r
Encoding: 114 114 45
Width: 1200
VWidth: 2048
Flags: W
LayerCount: 2
Fore
SplineSet
1018.5 1038.5 m 128,-1,1
 1087 997 1087 997 1119.5 910 c 128,-1,2
 1152 823 1152 823 1152 682 c 1,3,-1
 942 682 l 1,4,5
 942 797 942 797 907.5 848.5 c 128,-1,6
 873 900 873 900 796 900 c 0,7,8
 663 900 663 900 595.5 786 c 128,-1,9
 528 672 528 672 528 456 c 2,10,-1
 528 176 l 1,11,-1
 788 176 l 1,12,-1
 788 0 l 1,13,-1
 80 0 l 1,14,-1
 80 176 l 1,15,-1
 316 176 l 1,16,-1
 316 884 l 1,17,-1
 120 884 l 1,18,-1
 120 1060 l 1,19,-1
 488 1060 l 1,20,-1
 524 788 l 1,21,-1
 548 788 l 1,22,23
 557 935 557 935 629.5 1007.5 c 128,-1,24
 702 1080 702 1080 840 1080 c 0,25,0
 950 1080 950 1080 1018.5 1038.5 c 128,-1,1
EndSplineSet
EndChar

StartChar: s
Encoding: 115 115 46
Width: 1200
VWidth: 2048
Flags: W
LayerCount: 2
Fore
SplineSet
310.5 -13 m 128,-1,1
 225 -6 225 -6 156 10 c 1,2,-1
 180 202 l 1,3,4
 384 170 384 170 518 170 c 0,5,6
 678 170 678 170 751 201.5 c 128,-1,7
 824 233 824 233 824 302 c 0,8,9
 824 348 824 348 799.5 372 c 128,-1,10
 775 396 775 396 720 410 c 2,11,-1
 476 472 l 2,12,13
 374 498 374 498 313 532 c 128,-1,14
 252 566 252 566 222 618.5 c 128,-1,15
 192 671 192 671 192 750 c 0,16,17
 192 867 192 867 248.5 939.5 c 128,-1,18
 305 1012 305 1012 424.5 1046 c 128,-1,19
 544 1080 544 1080 736 1080 c 0,20,21
 882 1080 882 1080 1016 1060 c 1,22,-1
 994 876 l 1,23,24
 843 890 843 890 730 890 c 0,25,26
 562 890 562 890 487 859.5 c 128,-1,27
 412 829 412 829 412 760 c 0,28,29
 412 716 412 716 438 694 c 128,-1,30
 464 672 464 672 526 656 c 2,31,-1
 722 608 l 2,32,33
 836 580 836 580 906 542 c 128,-1,34
 976 504 976 504 1010 447 c 128,-1,35
 1044 390 1044 390 1044 306 c 0,36,37
 1044 191 1044 191 989 119.5 c 128,-1,38
 934 48 934 48 818.5 14 c 128,-1,39
 703 -20 703 -20 518 -20 c 0,40,0
 396 -20 396 -20 310.5 -13 c 128,-1,1
EndSplineSet
EndChar

StartChar: t
Encoding: 116 116 47
Width: 1200
VWidth: 2048
Flags: W
LayerCount: 2
Fore
SplineSet
1060 4 m 1,0,1
 919 -20 919 -20 782 -20 c 0,2,3
 620 -20 620 -20 520 24 c 128,-1,4
 420 68 420 68 373 160 c 128,-1,5
 326 252 326 252 326 400 c 2,6,-1
 326 884 l 1,7,-1
 60 884 l 1,8,-1
 60 1060 l 1,9,-1
 326 1060 l 1,10,-1
 326 1380 l 1,11,-1
 538 1380 l 1,12,-1
 538 1060 l 1,13,-1
 1020 1060 l 1,14,-1
 1020 884 l 1,15,-1
 538 884 l 1,16,-1
 538 410 l 2,17,18
 538 283 538 283 600 226.5 c 128,-1,19
 662 170 662 170 802 170 c 0,20,21
 848 170 848 170 900.5 175 c 128,-1,22
 953 180 953 180 1036 190 c 1,23,-1
 1060 4 l 1,0,1
EndSplineSet
EndChar

StartChar: u
Encoding: 117 117 48
Width: 1200
VWidth: 2048
Flags: W
LayerCount: 2
Fore
SplineSet
1158 170 m 1,0,-1
 1158 0 l 1,1,-1
 818 -10 l 1,2,-1
 803 204 l 1,3,-1
 784 204 l 1,4,5
 760 96 760 96 692.5 38 c 128,-1,6
 625 -20 625 -20 526 -20 c 0,7,8
 349 -20 349 -20 252.5 79 c 128,-1,9
 156 178 156 178 156 360 c 2,10,-1
 156 1080 l 1,11,-1
 364 1080 l 1,12,-1
 364 360 l 2,13,14
 364 264 364 264 417 212 c 128,-1,15
 470 160 470 160 566 160 c 0,16,17
 684 160 684 160 742 237.5 c 128,-1,18
 800 315 800 315 800 490 c 2,19,-1
 800 1080 l 1,20,-1
 1012 1080 l 1,21,-1
 1012 192 l 1,22,-1
 1158 170 l 1,0,-1
EndSplineSet
EndChar

StartChar: v
Encoding: 118 118 49
Width: 1200
VWidth: 2048
Flags: W
LayerCount: 2
Fore
SplineSet
80 1060 m 1,0,-1
 306 1060 l 1,1,-1
 596 160 l 1,2,-1
 614 160 l 1,3,-1
 894 1060 l 1,4,-1
 1120 1060 l 1,5,-1
 746 -20 l 1,6,-1
 464 -20 l 1,7,-1
 80 1060 l 1,0,-1
EndSplineSet
EndChar

StartChar: w
Encoding: 119 119 50
Width: 1200
VWidth: 2048
Flags: W
LayerCount: 2
Fore
SplineSet
930 1060 m 1,0,-1
 1130 1060 l 1,1,-1
 1010 -20 l 1,2,-1
 740 -20 l 1,3,-1
 596 842 l 1,4,-1
 584 842 l 1,5,-1
 440 -20 l 1,6,-1
 170 -20 l 1,7,-1
 70 1060 l 1,8,-1
 270 1060 l 1,9,-1
 330 140 l 1,10,-1
 348 140 l 1,11,-1
 478 1060 l 1,12,-1
 702 1060 l 1,13,-1
 832 140 l 1,14,-1
 850 140 l 1,15,-1
 930 1060 l 1,0,-1
EndSplineSet
Substitution2: "Single Substitution lookup 189 subtable" glyph240
Substitution2: "Single Substitution lookup 188 subtable" glyph55
EndChar

StartChar: x
Encoding: 120 120 51
Width: 1200
VWidth: 2048
Flags: W
LayerCount: 2
Fore
SplineSet
1094 1060 m 1,0,-1
 710 532 l 1,1,-1
 1094 0 l 1,2,-1
 854 0 l 1,3,-1
 595 368 l 1,4,-1
 346 0 l 1,5,-1
 106 0 l 1,6,-1
 485 524 l 1,7,-1
 106 1060 l 1,8,-1
 346 1060 l 1,9,-1
 600 689 l 1,10,-1
 854 1060 l 1,11,-1
 1094 1060 l 1,0,-1
EndSplineSet
Substitution2: "Single Substitution lookup 226 subtable" glyph54
EndChar

StartChar: y
Encoding: 121 121 52
Width: 1200
VWidth: 2048
Flags: W
LayerCount: 2
Fore
SplineSet
1110 1060 m 1,0,-1
 804 94 l 2,1,2
 744 -97 744 -97 670 -212.5 c 128,-1,3
 596 -328 596 -328 495 -386.5 c 128,-1,4
 394 -445 394 -445 250 -460 c 2,5,-1
 70 -480 l 1,6,-1
 60 -290 l 1,7,-1
 226 -270 l 2,8,9
 350 -255 350 -255 430.5 -197 c 128,-1,10
 511 -139 511 -139 567 -20 c 1,11,-1
 462 -20 l 1,12,-1
 50 1060 l 1,13,-1
 270 1060 l 1,14,-1
 606 140 l 1,15,-1
 625 140 l 1,16,-1
 626 144 l 1,17,-1
 890 1060 l 1,18,-1
 1110 1060 l 1,0,-1
EndSplineSet
EndChar

StartChar: z
Encoding: 122 122 53
Width: 1200
VWidth: 2048
Flags: W
LayerCount: 2
Fore
SplineSet
415 176 m 1,0,-1
 1036 176 l 1,1,-1
 1036 0 l 1,2,-1
 160 0 l 1,3,-1
 160 176 l 1,4,-1
 777 884 l 1,5,-1
 160 884 l 1,6,-1
 160 1060 l 1,7,-1
 1016 1060 l 1,8,-1
 1016 884 l 1,9,-1
 415 176 l 1,0,-1
EndSplineSet
EndChar

StartChar: glyph55
Encoding: 65538 -1 55
Width: 1200
VWidth: 2048
Flags: W
LayerCount: 2
Fore
SplineSet
930 1060 m 1,0,-1
 1130 1060 l 1,1,-1
 1020 -20 l 1,2,-1
 730 -20 l 1,3,-1
 572 742 l 1,4,-1
 560 742 l 1,5,-1
 412 -20 l 1,6,-1
 152 -20 l 1,7,-1
 -6 742 l 1,8,-1
 -18 742 l 1,9,-1
 -166 -20 l 1,10,-1
 -426 -20 l 1,11,-1
 -594 742 l 1,12,-1
 -606 742 l 1,13,-1
 -774 -20 l 1,14,-1
 -1034 -20 l 1,15,-1
 -1182 742 l 1,16,-1
 -1194 742 l 1,17,-1
 -1352 -20 l 1,18,-1
 -1612 -20 l 1,19,-1
 -1760 742 l 1,20,-1
 -1772 742 l 1,21,-1
 -1930 -20 l 1,22,-1
 -2220 -20 l 1,23,-1
 -2330 1060 l 1,24,-1
 -2130 1060 l 1,25,-1
 -2050 140 l 1,26,-1
 -2030 140 l 1,27,-1
 -1876 940 l 1,28,-1
 -1656 940 l 1,29,-1
 -1492 140 l 1,30,-1
 -1472 140 l 1,31,-1
 -1298 940 l 1,32,-1
 -1078 940 l 1,33,-1
 -914 140 l 1,34,-1
 -894 140 l 1,35,-1
 -710 940 l 1,36,-1
 -490 940 l 1,37,-1
 -306 140 l 1,38,-1
 -286 140 l 1,39,-1
 -122 940 l 1,40,-1
 98 940 l 1,41,-1
 272 140 l 1,42,-1
 292 140 l 1,43,-1
 456 940 l 1,44,-1
 676 940 l 1,45,-1
 830 140 l 1,46,-1
 850 140 l 1,47,-1
 930 1060 l 1,0,-1
EndSplineSet
EndChar

StartChar: zero
Encoding: 48 48 56
Width: 1200
VWidth: 2048
Flags: W
LayerCount: 2
Fore
SplineSet
116 700 m 0,1,2
 116 1440 116 1440 600 1440 c 256,3,4
 1084 1440 1084 1440 1084 700 c 0,5,6
 1084 -20 1084 -20 600 -20 c 256,7,0
 116 -20 116 -20 116 700 c 0,1,2
870 700 m 0,9,10
 870 1256 870 1256 600 1256 c 256,11,12
 330 1256 330 1256 330 700 c 0,13,14
 330 164 330 164 600 164 c 256,15,8
 870 164 870 164 870 700 c 0,9,10
534 570 m 128,-1,17
 500 590 500 590 480 624.5 c 128,-1,18
 460 659 460 659 460 700 c 0,19,20
 460 740 460 740 480 774 c 128,-1,21
 500 808 500 808 534 828 c 128,-1,22
 568 848 568 848 608 848 c 0,23,24
 649 848 649 848 683.5 828 c 128,-1,25
 718 808 718 808 738 774 c 128,-1,26
 758 740 758 740 758 700 c 0,27,28
 758 659 758 659 738 624.5 c 128,-1,29
 718 590 718 590 683.5 570 c 128,-1,30
 649 550 649 550 608 550 c 0,31,16
 568 550 568 550 534 570 c 128,-1,17
EndSplineSet
EndChar

StartChar: one
Encoding: 49 49 57
Width: 1200
VWidth: 2048
Flags: W
LayerCount: 2
Fore
SplineSet
736 186 m 1,0,-1
 1052 186 l 1,1,-1
 1052 0 l 1,2,-1
 170 0 l 1,3,-1
 170 186 l 1,4,-1
 524 186 l 1,5,-1
 524 1193 l 1,6,-1
 406 1062 l 1,7,-1
 150 1062 l 1,8,-1
 524 1420 l 1,9,-1
 736 1420 l 1,10,-1
 736 186 l 1,0,-1
EndSplineSet
EndChar

StartChar: two
Encoding: 50 50 58
Width: 1200
VWidth: 2048
Flags: W
LayerCount: 2
Fore
SplineSet
1096 186 m 5,0,-1
 1096 0 l 5,1,-1
 172 0 l 5,2,-1
 172 224 l 5,3,4
 497 403 497 403 659.5 598.5 c 132,-1,5
 822 794 822 794 822 1002 c 4,6,7
 822 1256 822 1256 574 1256 c 4,8,9
 473 1256 473 1256 418.5 1205.5 c 132,-1,10
 364 1155 364 1155 364 1062 c 5,11,-1
 150 1062 l 5,12,13
 150 1181 150 1181 201.5 1266 c 132,-1,14
 253 1351 253 1351 351.5 1395.5 c 132,-1,15
 450 1440 450 1440 588 1440 c 4,16,17
 812 1440 812 1440 924 1333.5 c 132,-1,18
 1036 1227 1036 1227 1036 1012 c 4,19,20
 1036 795 1036 795 899 596.5 c 132,-1,21
 762 398 762 398 484 216 c 5,22,-1
 484 186 l 5,23,-1
 1096 186 l 5,0,-1
EndSplineSet
EndChar

StartChar: three
Encoding: 51 51 59
Width: 1200
VWidth: 2048
Flags: W
LayerCount: 2
Fore
SplineSet
935 692 m 128,-1,1
 1011 642 1011 642 1052.5 562.5 c 128,-1,2
 1094 483 1094 483 1094 380 c 0,3,4
 1094 254 1094 254 1036.5 164 c 128,-1,5
 979 74 979 74 869 27 c 128,-1,6
 759 -20 759 -20 604 -20 c 0,7,8
 122 -20 122 -20 122 398 c 1,9,-1
 336 398 l 1,10,11
 336 164 336 164 596 164 c 0,12,13
 731 164 731 164 805.5 226 c 128,-1,14
 880 288 880 288 880 400 c 0,15,16
 880 524 880 524 768 592 c 128,-1,17
 656 660 656 660 452 660 c 2,18,-1
 420 660 l 1,19,-1
 396 790 l 1,20,21
 623 818 623 818 731.5 890.5 c 128,-1,22
 840 963 840 963 840 1072 c 0,23,24
 840 1159 840 1159 779 1207.5 c 128,-1,25
 718 1256 718 1256 606 1256 c 0,26,27
 491 1256 491 1256 428.5 1205.5 c 128,-1,28
 366 1155 366 1155 366 1062 c 1,29,-1
 152 1062 l 1,30,31
 152 1181 152 1181 208 1266 c 128,-1,32
 264 1351 264 1351 371 1395.5 c 128,-1,33
 478 1440 478 1440 628 1440 c 0,34,35
 832 1440 832 1440 943 1357.5 c 128,-1,36
 1054 1275 1054 1275 1054 1122 c 0,37,38
 1054 1040 1054 1040 1017 970.5 c 128,-1,39
 980 901 980 901 913 852 c 128,-1,40
 846 803 846 803 758 780 c 1,41,-1
 758 759 l 1,42,0
 859 742 859 742 935 692 c 128,-1,1
EndSplineSet
EndChar

StartChar: four
Encoding: 52 52 60
Width: 1200
VWidth: 2048
Flags: W
LayerCount: 2
Fore
SplineSet
1120 494 m 1,0,-1
 1120 318 l 1,1,-1
 986 318 l 1,2,-1
 986 0 l 1,3,-1
 784 0 l 1,4,-1
 784 318 l 1,5,-1
 72 318 l 1,6,-1
 75 321 l 1,7,-1
 274 1340 l 1,8,-1
 478 1340 l 1,9,-1
 311 494 l 1,10,-1
 784 494 l 1,11,-1
 784 1420 l 1,12,-1
 986 1420 l 1,13,-1
 986 494 l 1,14,-1
 1120 494 l 1,0,-1
EndSplineSet
EndChar

StartChar: five
Encoding: 53 53 61
Width: 1200
VWidth: 2048
Flags: W
LayerCount: 2
Fore
SplineSet
983.5 807.5 m 128,-1,1
 1094 689 1094 689 1094 458 c 0,2,3
 1094 307 1094 307 1035.5 199.5 c 128,-1,4
 977 92 977 92 865 36 c 128,-1,5
 753 -20 753 -20 594 -20 c 0,6,7
 448 -20 448 -20 344 29 c 128,-1,8
 240 78 240 78 186 172 c 128,-1,9
 132 266 132 266 132 398 c 1,10,-1
 346 398 l 1,11,12
 346 287 346 287 411 225.5 c 128,-1,13
 476 164 476 164 596 164 c 0,14,15
 732 164 732 164 806 241 c 128,-1,16
 880 318 880 318 880 458 c 0,17,18
 880 746 880 746 582 746 c 0,19,20
 447 746 447 746 330 680 c 1,21,-1
 218 680 l 1,22,-1
 238 1420 l 1,23,-1
 1004 1420 l 1,24,-1
 1004 1234 l 1,25,-1
 438 1234 l 1,26,-1
 418 885 l 1,27,28
 518 926 518 926 652 926 c 0,29,0
 873 926 873 926 983.5 807.5 c 128,-1,1
EndSplineSet
EndChar

StartChar: six
Encoding: 54 54 62
Width: 1200
VWidth: 2048
Flags: W
LayerCount: 2
Fore
SplineSet
983 785 m 128,-1,1
 1084 670 1084 670 1084 460 c 0,2,3
 1084 309 1084 309 1029.5 201 c 128,-1,4
 975 93 975 93 870.5 36.5 c 128,-1,5
 766 -20 766 -20 618 -20 c 0,6,7
 459 -20 459 -20 347 44 c 128,-1,8
 235 108 235 108 176.5 230.5 c 128,-1,9
 118 353 118 353 118 526 c 2,10,-1
 118 574 l 2,11,12
 118 981 118 981 325 1193 c 128,-1,13
 532 1405 532 1405 954 1426 c 1,14,-1
 974 1236 l 1,15,16
 655 1223 655 1223 498 1081.5 c 128,-1,17
 341 940 341 940 340 668 c 1,18,-1
 358 668 l 1,19,20
 388 778 388 778 477 839 c 128,-1,21
 566 900 566 900 696 900 c 0,22,0
 882 900 882 900 983 785 c 128,-1,1
805 241.5 m 128,-1,24
 870 319 870 319 870 460 c 0,25,26
 870 583 870 583 801.5 649.5 c 128,-1,27
 733 716 733 716 606 716 c 256,28,29
 479 716 479 716 409.5 644 c 128,-1,30
 340 572 340 572 340 440 c 0,31,32
 340 164 340 164 620 164 c 0,33,23
 740 164 740 164 805 241.5 c 128,-1,24
EndSplineSet
EndChar

StartChar: seven
Encoding: 55 55 63
Width: 1200
VWidth: 2048
Flags: W
LayerCount: 2
Fore
SplineSet
1154 1420 m 1,0,-1
 666 0 l 1,1,-1
 432 0 l 1,2,-1
 853 1224 l 1,3,-1
 322 1224 l 1,4,-1
 322 922 l 1,5,-1
 112 922 l 1,6,-1
 112 1420 l 1,7,-1
 1154 1420 l 1,0,-1
EndSplineSet
EndChar

StartChar: eight
Encoding: 56 56 64
Width: 1200
VWidth: 2048
Flags: W
LayerCount: 2
Fore
SplineSet
1002.5 624.5 m 128,-1,1
 1084 533 1084 533 1084 390 c 0,2,3
 1084 261 1084 261 1027 169 c 128,-1,4
 970 77 970 77 861.5 28.5 c 128,-1,5
 753 -20 753 -20 600 -20 c 256,6,7
 447 -20 447 -20 338.5 28.5 c 128,-1,8
 230 77 230 77 173 169 c 128,-1,9
 116 261 116 261 116 390 c 0,10,11
 116 533 116 533 198.5 625 c 128,-1,12
 281 717 281 717 434 748 c 1,13,-1
 434 763 l 1,14,15
 299 793 299 793 227.5 874.5 c 128,-1,16
 156 956 156 956 156 1080 c 0,17,18
 156 1193 156 1193 208 1274 c 128,-1,19
 260 1355 260 1355 360 1397.5 c 128,-1,20
 460 1440 460 1440 600 1440 c 256,21,22
 740 1440 740 1440 840 1397.5 c 128,-1,23
 940 1355 940 1355 992 1274 c 128,-1,24
 1044 1193 1044 1193 1044 1080 c 0,25,26
 1044 957 1044 957 972.5 875.5 c 128,-1,27
 901 794 901 794 768 763 c 1,28,-1
 768 748 l 1,29,0
 921 716 921 716 1002.5 624.5 c 128,-1,1
430.5 897 m 128,-1,31
 491 846 491 846 600 846 c 256,32,33
 709 846 709 846 769.5 897 c 128,-1,34
 830 948 830 948 830 1040 c 0,35,36
 830 1143 830 1143 770 1199.5 c 128,-1,37
 710 1256 710 1256 600 1256 c 256,38,39
 490 1256 490 1256 430 1199.5 c 128,-1,40
 370 1143 370 1143 370 1040 c 0,41,30
 370 948 370 948 430.5 897 c 128,-1,31
799.5 225.5 m 128,-1,43
 870 287 870 287 870 400 c 0,44,45
 870 520 870 520 799.5 587 c 128,-1,46
 729 654 729 654 600 654 c 256,47,48
 471 654 471 654 400.5 587 c 128,-1,49
 330 520 330 520 330 400 c 0,50,51
 330 287 330 287 400.5 225.5 c 128,-1,52
 471 164 471 164 600 164 c 256,53,42
 729 164 729 164 799.5 225.5 c 128,-1,43
EndSplineSet
EndChar

StartChar: nine
Encoding: 57 57 65
Width: 1200
VWidth: 2048
Flags: W
LayerCount: 2
Fore
SplineSet
855 1376 m 128,-1,1
 967 1312 967 1312 1025.5 1189.5 c 128,-1,2
 1084 1067 1084 1067 1084 894 c 2,3,-1
 1084 846 l 2,4,5
 1084 439 1084 439 877 227 c 128,-1,6
 670 15 670 15 248 -6 c 1,7,-1
 228 184 l 1,8,9
 547 197 547 197 704 338.5 c 128,-1,10
 861 480 861 480 862 752 c 1,11,-1
 844 752 l 1,12,13
 814 642 814 642 725 581 c 128,-1,14
 636 520 636 520 506 520 c 0,15,16
 320 520 320 520 219 635 c 128,-1,17
 118 750 118 750 118 960 c 0,18,19
 118 1111 118 1111 172.5 1219 c 128,-1,20
 227 1327 227 1327 331.5 1383.5 c 128,-1,21
 436 1440 436 1440 584 1440 c 0,22,0
 743 1440 743 1440 855 1376 c 128,-1,1
792.5 776 m 128,-1,24
 862 848 862 848 862 980 c 0,25,26
 862 1256 862 1256 582 1256 c 0,27,28
 462 1256 462 1256 397 1178.5 c 128,-1,29
 332 1101 332 1101 332 960 c 0,30,31
 332 837 332 837 400.5 770.5 c 128,-1,32
 469 704 469 704 596 704 c 256,33,23
 723 704 723 704 792.5 776 c 128,-1,24
EndSplineSet
EndChar

StartChar: period
Encoding: 46 46 66
Width: 1200
VWidth: 2048
Flags: W
LayerCount: 2
Fore
SplineSet
526 0 m 128,-1,1
 492 20 492 20 472 54 c 128,-1,2
 452 88 452 88 452 128 c 256,3,4
 452 168 452 168 472 202 c 128,-1,5
 492 236 492 236 526 256 c 128,-1,6
 560 276 560 276 600 276 c 256,7,8
 640 276 640 276 674 256 c 128,-1,9
 708 236 708 236 728 202 c 128,-1,10
 748 168 748 168 748 128 c 256,11,12
 748 88 748 88 728 54 c 128,-1,13
 708 20 708 20 674 0 c 128,-1,14
 640 -20 640 -20 600 -20 c 256,15,0
 560 -20 560 -20 526 0 c 128,-1,1
EndSplineSet
Substitution2: "Single Substitution lookup 212 subtable" glyph240
Substitution2: "Single Substitution lookup 211 subtable" glyph107
Substitution2: "Single Substitution lookup 210 subtable" glyph240
Substitution2: "Single Substitution lookup 209 subtable" glyph124
Substitution2: "Single Substitution lookup 184 subtable" glyph121
Substitution2: "Single Substitution lookup 176 subtable" glyph240
Substitution2: "Single Substitution lookup 175 subtable" glyph108
EndChar

StartChar: comma
Encoding: 44 44 67
Width: 1200
VWidth: 2048
Flags: W
LayerCount: 2
Fore
SplineSet
482 254 m 1,0,-1
 714 254 l 1,1,-1
 594 -386 l 1,2,-1
 402 -386 l 1,3,-1
 482 254 l 1,0,-1
EndSplineSet
EndChar

StartChar: colon
Encoding: 58 58 68
Width: 1200
VWidth: 2048
Flags: W
LayerCount: 2
Fore
SplineSet
526 804 m 128,-1,1
 492 824 492 824 472 858 c 128,-1,2
 452 892 452 892 452 932 c 256,3,4
 452 972 452 972 472 1006 c 128,-1,5
 492 1040 492 1040 526 1060 c 128,-1,6
 560 1080 560 1080 600 1080 c 256,7,8
 640 1080 640 1080 674 1060 c 128,-1,9
 708 1040 708 1040 728 1006 c 128,-1,10
 748 972 748 972 748 932 c 256,11,12
 748 892 748 892 728 858 c 128,-1,13
 708 824 708 824 674 804 c 128,-1,14
 640 784 640 784 600 784 c 256,15,0
 560 784 560 784 526 804 c 128,-1,1
526 0 m 128,-1,17
 492 20 492 20 472 54 c 128,-1,18
 452 88 452 88 452 128 c 256,19,20
 452 168 452 168 472 202 c 128,-1,21
 492 236 492 236 526 256 c 128,-1,22
 560 276 560 276 600 276 c 256,23,24
 640 276 640 276 674 256 c 128,-1,25
 708 236 708 236 728 202 c 128,-1,26
 748 168 748 168 748 128 c 256,27,28
 748 88 748 88 728 54 c 128,-1,29
 708 20 708 20 674 0 c 128,-1,30
 640 -20 640 -20 600 -20 c 256,31,16
 560 -20 560 -20 526 0 c 128,-1,17
EndSplineSet
Substitution2: "Single Substitution lookup 226 subtable" glyph77
Substitution2: "Single Substitution lookup 221 subtable" glyph240
Substitution2: "Single Substitution lookup 220 subtable" glyph113
Substitution2: "Single Substitution lookup 219 subtable" glyph240
Substitution2: "Single Substitution lookup 215 subtable" glyph135
Substitution2: "Single Substitution lookup 209 subtable" glyph125
Substitution2: "Single Substitution lookup 196 subtable" glyph193
Substitution2: "Single Substitution lookup 194 subtable" glyph204
Substitution2: "Single Substitution lookup 187 subtable" glyph240
Substitution2: "Single Substitution lookup 186 subtable" glyph114
Substitution2: "Single Substitution lookup 185 subtable" glyph240
Substitution2: "Single Substitution lookup 170 subtable" glyph240
EndChar

StartChar: semicolon
Encoding: 59 59 69
Width: 1200
VWidth: 2048
Flags: W
LayerCount: 2
Fore
SplineSet
526 804 m 128,-1,1
 492 824 492 824 472 858 c 128,-1,2
 452 892 452 892 452 932 c 256,3,4
 452 972 452 972 472 1006 c 128,-1,5
 492 1040 492 1040 526 1060 c 128,-1,6
 560 1080 560 1080 600 1080 c 256,7,8
 640 1080 640 1080 674 1060 c 128,-1,9
 708 1040 708 1040 728 1006 c 128,-1,10
 748 972 748 972 748 932 c 256,11,12
 748 892 748 892 728 858 c 128,-1,13
 708 824 708 824 674 804 c 128,-1,14
 640 784 640 784 600 784 c 256,15,0
 560 784 560 784 526 804 c 128,-1,1
714 254 m 1,16,-1
 594 -386 l 1,17,-1
 402 -386 l 1,18,-1
 482 254 l 1,19,-1
 714 254 l 1,16,-1
EndSplineSet
Substitution2: "Single Substitution lookup 208 subtable" glyph240
Substitution2: "Single Substitution lookup 207 subtable" glyph119
EndChar

StartChar: exclam
Encoding: 33 33 70
Width: 1200
VWidth: 2048
Flags: W
LayerCount: 2
Fore
SplineSet
496 1430 m 1,0,-1
 704 1430 l 1,1,-1
 694 456 l 1,2,-1
 502 456 l 1,3,-1
 496 1430 l 1,0,-1
526 0 m 128,-1,5
 492 20 492 20 472 54 c 128,-1,6
 452 88 452 88 452 128 c 256,7,8
 452 168 452 168 472 202 c 128,-1,9
 492 236 492 236 526 256 c 128,-1,10
 560 276 560 276 600 276 c 256,11,12
 640 276 640 276 674 256 c 128,-1,13
 708 236 708 236 728 202 c 128,-1,14
 748 168 748 168 748 128 c 256,15,16
 748 88 748 88 728 54 c 128,-1,17
 708 20 708 20 674 0 c 128,-1,18
 640 -20 640 -20 600 -20 c 256,19,4
 560 -20 560 -20 526 0 c 128,-1,5
EndSplineSet
Substitution2: "Single Substitution lookup 219 subtable" glyph240
Substitution2: "Single Substitution lookup 218 subtable" glyph120
Substitution2: "Single Substitution lookup 217 subtable" glyph240
Substitution2: "Single Substitution lookup 215 subtable" glyph136
Substitution2: "Single Substitution lookup 184 subtable" glyph240
Substitution2: "Single Substitution lookup 168 subtable" glyph240
Substitution2: "Single Substitution lookup 138 subtable" glyph240
EndChar

StartChar: question
Encoding: 63 63 71
Width: 1200
VWidth: 2048
Flags: W
LayerCount: 2
Fore
SplineSet
664 854 m 0,1,2
 826 959 826 959 826 1102 c 0,3,4
 826 1172 826 1172 773 1211 c 128,-1,5
 720 1250 720 1250 624 1250 c 0,6,7
 517 1250 517 1250 458.5 1201 c 128,-1,8
 400 1152 400 1152 400 1062 c 1,9,-1
 198 1062 l 1,10,11
 198 1181 198 1181 248.5 1266 c 128,-1,12
 299 1351 299 1351 395 1395.5 c 128,-1,13
 491 1440 491 1440 626 1440 c 0,14,15
 758 1440 758 1440 852.5 1401.5 c 128,-1,16
 947 1363 947 1363 996.5 1289 c 128,-1,17
 1046 1215 1046 1215 1046 1112 c 0,18,19
 1046 885 1046 885 824 738 c 0,20,21
 696 655 696 655 696 538 c 2,22,-1
 696 456 l 1,23,-1
 500 456 l 1,24,-1
 500 552 l 2,25,0
 500 750 500 750 664 854 c 0,1,2
528 0 m 128,-1,27
 494 20 494 20 474 54 c 128,-1,28
 454 88 454 88 454 128 c 256,29,30
 454 168 454 168 474 202 c 128,-1,31
 494 236 494 236 528 256 c 128,-1,32
 562 276 562 276 602 276 c 256,33,34
 642 276 642 276 676 256 c 128,-1,35
 710 236 710 236 730 202 c 128,-1,36
 750 168 750 168 750 128 c 256,37,38
 750 88 750 88 730 54 c 128,-1,39
 710 20 710 20 676 0 c 128,-1,40
 642 -20 642 -20 602 -20 c 256,41,26
 562 -20 562 -20 528 0 c 128,-1,27
EndSplineSet
Substitution2: "Single Substitution lookup 212 subtable" glyph137
Substitution2: "Single Substitution lookup 210 subtable" glyph111
Substitution2: "Single Substitution lookup 209 subtable" glyph240
Substitution2: "Single Substitution lookup 208 subtable" glyph126
EndChar

StartChar: asterisk
Encoding: 42 42 72
Width: 1200
VWidth: 2048
Flags: W
LayerCount: 2
Fore
SplineSet
1086 758 m 1,0,-1
 737 658 l 1,1,-1
 990 398 l 1,2,-1
 824 258 l 1,3,-1
 598 571 l 1,4,-1
 372 258 l 1,5,-1
 206 398 l 1,6,-1
 459 658 l 1,7,-1
 110 758 l 1,8,-1
 184 962 l 1,9,-1
 516 814 l 1,10,-1
 490 1176 l 1,11,-1
 706 1176 l 1,12,-1
 680 814 l 1,13,-1
 1012 962 l 1,14,-1
 1086 758 l 1,0,-1
EndSplineSet
Substitution2: "Single Substitution lookup 226 subtable" glyph76
Substitution2: "Single Substitution lookup 225 subtable" glyph240
Substitution2: "Single Substitution lookup 224 subtable" glyph128
Substitution2: "Single Substitution lookup 223 subtable" glyph240
Substitution2: "Single Substitution lookup 207 subtable" glyph144
Substitution2: "Single Substitution lookup 194 subtable" glyph206
Substitution2: "Single Substitution lookup 188 subtable" glyph240
Substitution2: "Single Substitution lookup 187 subtable" glyph129
Substitution2: "Single Substitution lookup 155 subtable" glyph240
EndChar

StartChar: numbersign
Encoding: 35 35 73
Width: 1200
VWidth: 2048
Flags: W
LayerCount: 2
Fore
SplineSet
1120 890 m 1,0,-1
 941 890 l 1,1,-1
 911 530 l 1,2,-1
 1120 530 l 1,3,-1
 1120 360 l 1,4,-1
 896 360 l 1,5,-1
 866 0 l 1,6,-1
 690 0 l 1,7,-1
 720 360 l 1,8,-1
 460 360 l 1,9,-1
 430 0 l 1,10,-1
 254 0 l 1,11,-1
 284 360 l 1,12,-1
 120 360 l 1,13,-1
 120 530 l 1,14,-1
 299 530 l 1,15,-1
 329 890 l 1,16,-1
 120 890 l 1,17,-1
 120 1060 l 1,18,-1
 344 1060 l 1,19,-1
 374 1420 l 1,20,-1
 550 1420 l 1,21,-1
 520 1060 l 1,22,-1
 780 1060 l 1,23,-1
 810 1420 l 1,24,-1
 986 1420 l 1,25,-1
 956 1060 l 1,26,-1
 1120 1060 l 1,27,-1
 1120 890 l 1,0,-1
735 530 m 1,28,-1
 765 890 l 1,29,-1
 505 890 l 1,30,-1
 475 530 l 1,31,-1
 735 530 l 1,28,-1
EndSplineSet
Substitution2: "Single Substitution lookup 222 subtable" glyph103
Substitution2: "Single Substitution lookup 221 subtable" glyph105
Substitution2: "Single Substitution lookup 215 subtable" glyph240
Substitution2: "Single Substitution lookup 214 subtable" glyph138
Substitution2: "Single Substitution lookup 213 subtable" glyph240
Substitution2: "Single Substitution lookup 212 subtable" glyph240
Substitution2: "Single Substitution lookup 178 subtable" glyph240
Substitution2: "Single Substitution lookup 177 subtable" glyph139
Substitution2: "Single Substitution lookup 176 subtable" glyph240
Substitution2: "Single Substitution lookup 140 subtable" glyph240
Substitution2: "Single Substitution lookup 139 subtable" glyph140
EndChar

StartChar: slash
Encoding: 47 47 74
Width: 1200
VWidth: 2048
Flags: W
LayerCount: 2
Fore
SplineSet
898 1520 m 1,0,-1
 1100 1520 l 1,1,-1
 286 -280 l 1,2,-1
 84 -280 l 1,3,-1
 898 1520 l 1,0,-1
EndSplineSet
Substitution2: "Single Substitution lookup 223 subtable" glyph131
Substitution2: "Single Substitution lookup 207 subtable" glyph240
Substitution2: "Single Substitution lookup 206 subtable" glyph148
Substitution2: "Single Substitution lookup 191 subtable" glyph229
Substitution2: "Single Substitution lookup 175 subtable" glyph240
Substitution2: "Single Substitution lookup 174 subtable" glyph240
Substitution2: "Single Substitution lookup 173 subtable" glyph149
Substitution2: "Single Substitution lookup 161 subtable" glyph240
Substitution2: "Single Substitution lookup 141 subtable" glyph240
EndChar

StartChar: backslash
Encoding: 92 92 75
Width: 1200
VWidth: 2048
Flags: W
LayerCount: 2
Fore
SplineSet
100 1520 m 1,0,-1
 302 1520 l 1,1,-1
 1116 -280 l 1,2,-1
 914 -280 l 1,3,-1
 100 1520 l 1,0,-1
EndSplineSet
EndChar

StartChar: parenleft
Encoding: 40 40 78
Width: 1200
VWidth: 2048
Flags: W
LayerCount: 2
Fore
SplineSet
580.5 -110 m 128,-1,1
 427 0 427 0 346.5 210 c 128,-1,2
 266 420 266 420 266 716 c 0,3,4
 266 1008 266 1008 346.5 1215.5 c 128,-1,5
 427 1423 427 1423 580.5 1531.5 c 128,-1,6
 734 1640 734 1640 950 1640 c 2,7,-1
 998 1640 l 1,8,-1
 978 1470 l 1,9,-1
 970 1470 l 2,10,11
 810 1470 810 1470 697 1381.5 c 128,-1,12
 584 1293 584 1293 525 1123.5 c 128,-1,13
 466 954 466 954 466 716 c 0,14,15
 466 474 466 474 525 302 c 128,-1,16
 584 130 584 130 697 40 c 128,-1,17
 810 -50 810 -50 970 -50 c 2,18,-1
 978 -50 l 1,19,-1
 998 -220 l 1,20,-1
 950 -220 l 2,21,0
 734 -220 734 -220 580.5 -110 c 128,-1,1
EndSplineSet
Substitution2: "Single Substitution lookup 212 subtable" glyph132
Substitution2: "Single Substitution lookup 176 subtable" glyph143
EndChar

StartChar: parenright
Encoding: 41 41 79
Width: 1200
VWidth: 2048
Flags: W
LayerCount: 2
Fore
SplineSet
230 -50 m 2,0,1
 390 -50 390 -50 503 40 c 128,-1,2
 616 130 616 130 675 302 c 128,-1,3
 734 474 734 474 734 716 c 0,4,5
 734 954 734 954 675 1123.5 c 128,-1,6
 616 1293 616 1293 503 1381.5 c 128,-1,7
 390 1470 390 1470 230 1470 c 2,8,-1
 222 1470 l 1,9,-1
 202 1640 l 1,10,-1
 250 1640 l 2,11,12
 466 1640 466 1640 619.5 1531.5 c 128,-1,13
 773 1423 773 1423 853.5 1215.5 c 128,-1,14
 934 1008 934 1008 934 716 c 0,15,16
 934 420 934 420 853.5 210 c 128,-1,17
 773 0 773 0 619.5 -110 c 128,-1,18
 466 -220 466 -220 250 -220 c 2,19,-1
 202 -220 l 1,20,-1
 222 -50 l 1,21,-1
 230 -50 l 2,0,1
EndSplineSet
EndChar

StartChar: braceleft
Encoding: 123 123 80
Width: 1200
VWidth: 2048
Flags: W
LayerCount: 2
Fore
SplineSet
655.5 -172 m 128,-1,1
 572 -120 572 -120 528 -21 c 128,-1,2
 484 78 484 78 484 216 c 0,3,4
 484 306 484 306 485 351 c 2,5,-1
 486 492 l 2,6,7
 486 544 486 544 448 576 c 128,-1,8
 410 608 410 608 357 622 c 128,-1,9
 304 636 304 636 256 636 c 1,10,-1
 256 794 l 1,11,12
 299 794 299 794 353.5 812 c 128,-1,13
 408 830 408 830 447 862.5 c 128,-1,14
 486 895 486 895 486 938 c 2,15,-1
 485 1082 l 2,16,17
 484 1126 484 1126 484 1214 c 0,18,19
 484 1416 484 1416 581.5 1526 c 128,-1,20
 679 1636 679 1636 856 1636 c 0,21,22
 936 1636 936 1636 996 1616 c 1,23,-1
 972 1446 l 1,24,25
 912 1466 912 1466 874 1466 c 0,26,27
 789 1466 789 1466 743.5 1400.5 c 128,-1,28
 698 1335 698 1335 698 1214 c 0,29,30
 698 1180 698 1180 699 1136 c 128,-1,31
 700 1092 700 1092 701 1068 c 0,32,33
 704 998 704 998 704 922 c 0,34,35
 704 833 704 833 656.5 783.5 c 128,-1,36
 609 734 609 734 522 732 c 1,37,-1
 522 698 l 1,38,39
 608 696 608 696 656 645.5 c 128,-1,40
 704 595 704 595 704 508 c 0,41,42
 704 471 704 471 703 425 c 128,-1,43
 702 379 702 379 701 356 c 0,44,45
 698 287 698 287 698 216 c 0,46,47
 698 86 698 86 743.5 16 c 128,-1,48
 789 -54 789 -54 874 -54 c 0,49,50
 912 -54 912 -54 972 -34 c 1,51,-1
 996 -204 l 1,52,53
 936 -224 936 -224 856 -224 c 0,54,0
 739 -224 739 -224 655.5 -172 c 128,-1,1
EndSplineSet
Substitution2: "Single Substitution lookup 223 subtable" glyph240
Substitution2: "Single Substitution lookup 215 subtable" glyph133
EndChar

StartChar: braceright
Encoding: 125 125 81
Width: 1200
VWidth: 2048
Flags: W
LayerCount: 2
Fore
SplineSet
204 -204 m 1,1,-1
 228 -34 l 1,2,3
 288 -54 288 -54 326 -54 c 0,4,5
 411 -54 411 -54 456.5 16 c 128,-1,6
 502 86 502 86 502 216 c 0,7,8
 502 287 502 287 499 356 c 0,9,10
 498 379 498 379 497 425 c 128,-1,11
 496 471 496 471 496 508 c 0,12,13
 496 595 496 595 544 645.5 c 128,-1,14
 592 696 592 696 678 698 c 1,15,-1
 678 732 l 1,16,17
 591 734 591 734 543.5 783.5 c 128,-1,18
 496 833 496 833 496 922 c 0,19,20
 496 957 496 957 497 1001 c 128,-1,21
 498 1045 498 1045 499 1068 c 0,22,23
 502 1140 502 1140 502 1214 c 0,24,25
 502 1335 502 1335 456.5 1400.5 c 128,-1,26
 411 1466 411 1466 326 1466 c 0,27,28
 288 1466 288 1466 228 1446 c 1,29,-1
 204 1616 l 1,30,31
 264 1636 264 1636 344 1636 c 0,32,33
 521 1636 521 1636 618.5 1526 c 128,-1,34
 716 1416 716 1416 716 1214 c 0,35,36
 716 1126 716 1126 715 1082 c 2,37,-1
 714 938 l 2,38,39
 714 895 714 895 753 862.5 c 128,-1,40
 792 830 792 830 846.5 812 c 128,-1,41
 901 794 901 794 944 794 c 1,42,-1
 944 636 l 1,43,44
 896 636 896 636 843 622 c 128,-1,45
 790 608 790 608 752 576 c 128,-1,46
 714 544 714 544 714 492 c 2,47,-1
 715 351 l 2,48,49
 716 306 716 306 716 216 c 0,50,51
 716 78 716 78 672 -21 c 128,-1,52
 628 -120 628 -120 544.5 -172 c 128,-1,53
 461 -224 461 -224 344 -224 c 0,54,0
 264 -224 264 -224 204 -204 c 1,1,-1
EndSplineSet
Substitution2: "Single Substitution lookup 222 subtable" glyph240
Substitution2: "Single Substitution lookup 202 subtable" glyph170
EndChar

StartChar: bracketleft
Encoding: 91 91 82
Width: 1200
VWidth: 2048
Flags: W
LayerCount: 2
Fore
SplineSet
998 1444 m 1,0,-1
 572 1444 l 1,1,-1
 572 -24 l 1,2,-1
 998 -24 l 1,3,-1
 998 -200 l 1,4,-1
 372 -200 l 1,5,-1
 372 1620 l 1,6,-1
 998 1620 l 1,7,-1
 998 1444 l 1,0,-1
EndSplineSet
Substitution2: "Single Substitution lookup 222 subtable" glyph240
Substitution2: "Single Substitution lookup 215 subtable" glyph134
EndChar

StartChar: bracketright
Encoding: 93 93 83
Width: 1200
VWidth: 2048
Flags: W
LayerCount: 2
Fore
SplineSet
828 1620 m 1,0,-1
 828 -200 l 1,1,-1
 202 -200 l 1,2,-1
 202 -24 l 1,3,-1
 616 -24 l 1,4,-1
 616 1444 l 1,5,-1
 202 1444 l 1,6,-1
 202 1620 l 1,7,-1
 828 1620 l 1,0,-1
EndSplineSet
Substitution2: "Single Substitution lookup 221 subtable" glyph240
Substitution2: "Single Substitution lookup 202 subtable" glyph171
EndChar

StartChar: underscore
Encoding: 95 95 85
Width: 1200
VWidth: 2048
Flags: W
LayerCount: 2
Fore
SplineSet
100 0 m 1,0,-1
 1100 0 l 1,1,-1
 1100 -176 l 1,2,-1
 100 -176 l 1,3,-1
 100 0 l 1,0,-1
EndSplineSet
Substitution2: "Single Substitution lookup 212 subtable" glyph142
Substitution2: "Single Substitution lookup 206 subtable" glyph240
Substitution2: "Single Substitution lookup 205 subtable" glyph151
Substitution2: "Single Substitution lookup 176 subtable" glyph240
Substitution2: "Single Substitution lookup 173 subtable" glyph240
Substitution2: "Single Substitution lookup 172 subtable" glyph150
EndChar

StartChar: quoteleft
Encoding: 8216 8216 89
Width: 1200
VWidth: 2048
Flags: W
LayerCount: 2
Fore
SplineSet
286 1420 m 1,0,-1
 478 1420 l 1,1,-1
 658 780 l 1,2,-1
 426 780 l 1,3,-1
 286 1420 l 1,0,-1
EndSplineSet
EndChar

StartChar: quoteright
Encoding: 8217 8217 90
Width: 1200
VWidth: 2048
Flags: W
LayerCount: 2
Fore
SplineSet
582 1420 m 1,0,-1
 814 1420 l 1,1,-1
 634 780 l 1,2,-1
 442 780 l 1,3,-1
 582 1420 l 1,0,-1
EndSplineSet
EndChar

StartChar: quotesingle
Encoding: 39 39 92
Width: 1200
VWidth: 2048
Flags: W
LayerCount: 2
Fore
SplineSet
482 1420 m 1,0,-1
 714 1420 l 1,1,-1
 694 780 l 1,2,-1
 502 780 l 1,3,-1
 482 1420 l 1,0,-1
EndSplineSet
EndChar

StartChar: glyph93
Encoding: 65542 -1 93
Width: 1200
VWidth: 2048
Flags: W
LayerCount: 2
Fore
SplineSet
-920 802 m 1,0,-1
 -140 802 l 1,1,-1
 -140 616 l 1,2,-1
 -920 616 l 1,3,-1
 -920 802 l 1,0,-1
120 802 m 1,4,-1
 920 802 l 1,5,-1
 920 616 l 1,6,-1
 120 616 l 1,7,-1
 120 802 l 1,4,-1
EndSplineSet
EndChar

StartChar: glyph94
Encoding: 65543 -1 94
Width: 1200
VWidth: 2048
Flags: W
LayerCount: 2
Fore
SplineSet
-2120 802 m 1,0,-1
 -1340 802 l 1,1,-1
 -1340 616 l 1,2,-1
 -2120 616 l 1,3,-1
 -2120 802 l 1,0,-1
-1010 802 m 1,4,-1
 -210 802 l 1,5,-1
 -210 616 l 1,6,-1
 -1010 616 l 1,7,-1
 -1010 802 l 1,4,-1
120 802 m 1,8,-1
 920 802 l 1,9,-1
 920 616 l 1,10,-1
 120 616 l 1,11,-1
 120 802 l 1,8,-1
EndSplineSet
EndChar

StartChar: glyph95
Encoding: 65544 -1 95
Width: 1200
VWidth: 2048
Flags: W
LayerCount: 2
Fore
SplineSet
960 770 m 1,0,-1
 960 648 l 1,1,-1
 6 112 l 1,2,-1
 6 352 l 1,3,4
 313 482 313 482 429 524.5 c 128,-1,5
 545 567 545 567 588 570 c 1,6,-1
 588 614 l 1,7,-1
 -2120 614 l 1,8,-1
 -2120 802 l 1,9,-1
 588 802 l 1,10,-1
 588 846 l 1,11,12
 535 850 535 850 415 892 c 128,-1,13
 295 934 295 934 6 1064 c 1,14,-1
 6 1304 l 1,15,-1
 960 770 l 1,0,-1
EndSplineSet
EndChar

StartChar: glyph96
Encoding: 65545 -1 96
Width: 1200
VWidth: 2048
Flags: W
LayerCount: 2
Fore
SplineSet
580 1760 m 1,0,-1
 780 1760 l 1,1,-1
 780 -280 l 1,2,-1
 580 -280 l 1,3,-1
 580 616 l 1,4,-1
 -920 616 l 1,5,-1
 -920 802 l 1,6,-1
 580 802 l 1,7,-1
 580 1760 l 1,0,-1
EndSplineSet
EndChar

StartChar: glyph97
Encoding: 65546 -1 97
Width: 1200
VWidth: 2048
Flags: W
LayerCount: 2
Fore
SplineSet
960 770 m 1,0,-1
 960 648 l 1,1,-1
 6 112 l 1,2,-1
 6 342 l 1,3,4
 310 477 310 477 427.5 521.5 c 128,-1,5
 545 566 545 566 588 570 c 1,6,-1
 588 614 l 1,7,-1
 -920 614 l 1,8,-1
 -920 802 l 1,9,-1
 588 802 l 1,10,-1
 588 846 l 1,11,12
 535 850 535 850 415 892 c 128,-1,13
 295 934 295 934 6 1064 c 1,14,-1
 6 1304 l 1,15,-1
 960 770 l 1,0,-1
EndSplineSet
EndChar

StartChar: glyph98
Encoding: 65547 -1 98
Width: 1200
VWidth: 2048
Flags: W
LayerCount: 2
Fore
SplineSet
-533.5 490 m 128,-1,1
 -422 534 -422 534 -371 551 c 128,-1,2
 -320 568 -320 568 -294 570 c 1,3,-1
 -294 614 l 1,4,-1
 -2120 614 l 1,5,-1
 -2120 802 l 1,6,-1
 -294 802 l 1,7,-1
 -294 846 l 1,8,9
 -349 850 -349 850 -468.5 892 c 128,-1,10
 -588 934 -588 934 -876 1064 c 1,11,-1
 -876 1304 l 1,12,-1
 78 770 l 1,13,-1
 78 648 l 1,14,-1
 -876 112 l 1,15,-1
 -876 352 l 1,16,0
 -645 446 -645 446 -533.5 490 c 128,-1,1
6 1304 m 1,17,-1
 960 770 l 1,18,-1
 960 648 l 1,19,-1
 6 112 l 1,20,-1
 6 352 l 1,21,-1
 656 700 l 1,22,-1
 656 718 l 1,23,-1
 6 1064 l 1,24,-1
 6 1304 l 1,17,-1
EndSplineSet
EndChar

StartChar: glyph99
Encoding: 65548 -1 99
Width: 1200
VWidth: 2048
Flags: W
LayerCount: 2
Fore
SplineSet
920 1064 m 1,0,-1
 270 718 l 1,1,-1
 270 700 l 1,2,-1
 920 352 l 1,3,-1
 920 112 l 1,4,-1
 9 624 l 1,5,-1
 -920 624 l 1,6,-1
 -920 792 l 1,7,-1
 5 792 l 1,8,-1
 920 1304 l 1,9,-1
 920 1064 l 1,0,-1
EndSplineSet
EndChar

StartChar: glyph100
Encoding: 65549 -1 100
Width: 1200
VWidth: 2048
Flags: W
LayerCount: 2
Fore
SplineSet
-550 718 m 1,0,-1
 -550 700 l 1,1,-1
 100 352 l 1,2,-1
 100 112 l 1,3,-1
 -793 614 l 1,4,-1
 -2120 614 l 1,5,-1
 -2120 802 l 1,6,-1
 -797 802 l 1,7,-1
 100 1304 l 1,8,-1
 100 1064 l 1,9,-1
 -550 718 l 1,0,-1
920 1064 m 1,10,-1
 270 718 l 1,11,-1
 270 700 l 1,12,-1
 920 352 l 1,13,-1
 920 112 l 1,14,-1
 -34 648 l 1,15,-1
 -34 770 l 1,16,-1
 920 1304 l 1,17,-1
 920 1064 l 1,10,-1
EndSplineSet
EndChar

StartChar: glyph101
Encoding: 65550 -1 101
Width: 1200
VWidth: 2048
Flags: W
LayerCount: 2
Fore
SplineSet
1000 978 m 1,0,-1
 1000 908 l 2,1,2
 1000 737 1000 737 926.5 642.5 c 128,-1,3
 853 548 853 548 720 548 c 0,4,5
 667 548 667 548 615 573 c 128,-1,6
 563 598 563 598 482 648 c 0,7,8
 404 698 404 698 350.5 723 c 128,-1,9
 297 748 297 748 244 748 c 0,10,11
 196 748 196 748 169 723.5 c 128,-1,12
 142 699 142 699 142 656 c 2,13,-1
 142 626 l 1,14,-1
 -920 626 l 1,15,-1
 -920 812 l 1,16,-1
 -36 812 l 1,17,18
 -4 886 -4 886 66.5 925 c 128,-1,19
 137 964 137 964 240 964 c 0,20,21
 291 964 291 964 342.5 936 c 128,-1,22
 394 908 394 908 469 854 c 0,23,24
 547 798 547 798 597 771 c 128,-1,25
 647 744 647 744 698 744 c 0,26,27
 746 744 746 744 772 792.5 c 128,-1,28
 798 841 798 841 798 928 c 2,29,-1
 798 978 l 1,30,-1
 1000 978 l 1,0,-1
EndSplineSet
EndChar

StartChar: glyph102
Encoding: 65551 -1 102
Width: 1200
VWidth: 2048
Flags: W
LayerCount: 2
Fore
SplineSet
500 1760 m 1,0,-1
 700 1760 l 1,1,-1
 700 -280 l 1,2,-1
 500 -280 l 1,3,-1
 500 1760 l 1,0,-1
-421 1410.5 m 128,-1,5
 -518 1345 -518 1345 -518 1224 c 0,6,7
 -518 1150 -518 1150 -515 1078 c 0,8,9
 -514 1055 -514 1055 -513 1011 c 128,-1,10
 -512 967 -512 967 -512 932 c 0,11,12
 -512 841 -512 841 -562 791.5 c 128,-1,13
 -612 742 -612 742 -702 742 c 1,14,-1
 -702 708 l 1,15,16
 -612 708 -612 708 -562 657.5 c 128,-1,17
 -512 607 -512 607 -512 518 c 0,18,19
 -512 481 -512 481 -513 435 c 128,-1,20
 -514 389 -514 389 -515 366 c 0,21,22
 -518 297 -518 297 -518 226 c 0,23,24
 -518 96 -518 96 -421 26 c 128,-1,25
 -324 -44 -324 -44 -142 -44 c 0,26,27
 -57 -44 -57 -44 76 -24 c 1,28,-1
 100 -194 l 1,29,30
 -10 -214 -10 -214 -160 -214 c 0,31,32
 -340 -214 -340 -214 -468.5 -162 c 128,-1,33
 -597 -110 -597 -110 -664.5 -11 c 128,-1,34
 -732 88 -732 88 -732 226 c 0,35,36
 -732 316 -732 316 -731 361 c 2,37,-1
 -730 502 l 2,38,39
 -730 554 -730 554 -768 586 c 128,-1,40
 -806 618 -806 618 -859 632 c 128,-1,41
 -912 646 -912 646 -960 646 c 1,42,-1
 -960 804 l 1,43,44
 -917 804 -917 804 -862.5 822 c 128,-1,45
 -808 840 -808 840 -769 872.5 c 128,-1,46
 -730 905 -730 905 -730 948 c 2,47,-1
 -731 1092 l 2,48,49
 -732 1136 -732 1136 -732 1224 c 0,50,51
 -732 1358 -732 1358 -664.5 1452.5 c 128,-1,52
 -597 1547 -597 1547 -468.5 1596.5 c 128,-1,53
 -340 1646 -340 1646 -160 1646 c 0,54,55
 -10 1646 -10 1646 100 1626 c 1,56,-1
 76 1456 l 1,57,58
 -57 1476 -57 1476 -142 1476 c 0,59,4
 -324 1476 -324 1476 -421 1410.5 c 128,-1,5
EndSplineSet
EndChar

StartChar: glyph103
Encoding: 65552 -1 103
Width: 1200
VWidth: 2048
Flags: W
LayerCount: 2
Fore
SplineSet
741 890 m 1,0,-1
 711 530 l 1,1,-1
 920 530 l 1,2,-1
 920 360 l 1,3,-1
 696 360 l 1,4,-1
 666 0 l 1,5,-1
 490 0 l 1,6,-1
 520 360 l 1,7,-1
 260 360 l 1,8,-1
 230 0 l 1,9,-1
 54 0 l 1,10,-1
 84 360 l 1,11,-1
 -447 360 l 1,12,-1
 -446 216 l 2,13,14
 -446 78 -446 78 -490 -21 c 128,-1,15
 -534 -120 -534 -120 -617.5 -172 c 128,-1,16
 -701 -224 -701 -224 -818 -224 c 0,17,18
 -898 -224 -898 -224 -958 -204 c 1,19,-1
 -934 -34 l 1,20,21
 -874 -54 -874 -54 -836 -54 c 0,22,23
 -751 -54 -751 -54 -705.5 16 c 128,-1,24
 -660 86 -660 86 -660 216 c 0,25,26
 -660 287 -660 287 -663 356 c 0,27,28
 -664 379 -664 379 -665 425 c 128,-1,29
 -666 471 -666 471 -666 508 c 0,30,31
 -666 595 -666 595 -618 645.5 c 128,-1,32
 -570 696 -570 696 -484 698 c 1,33,-1
 -484 732 l 1,34,35
 -571 734 -571 734 -618.5 783.5 c 128,-1,36
 -666 833 -666 833 -666 922 c 0,37,38
 -666 998 -666 998 -663 1068 c 0,39,40
 -662 1092 -662 1092 -661 1136 c 128,-1,41
 -660 1180 -660 1180 -660 1214 c 0,42,43
 -660 1335 -660 1335 -705.5 1400.5 c 128,-1,44
 -751 1466 -751 1466 -836 1466 c 0,45,46
 -874 1466 -874 1466 -934 1446 c 1,47,-1
 -958 1616 l 1,48,49
 -898 1636 -898 1636 -818 1636 c 0,50,51
 -641 1636 -641 1636 -543.5 1526 c 128,-1,52
 -446 1416 -446 1416 -446 1214 c 2,53,-1
 -447 1060 l 1,54,-1
 144 1060 l 1,55,-1
 174 1420 l 1,56,-1
 350 1420 l 1,57,-1
 320 1060 l 1,58,-1
 580 1060 l 1,59,-1
 610 1420 l 1,60,-1
 786 1420 l 1,61,-1
 756 1060 l 1,62,-1
 920 1060 l 1,63,-1
 920 890 l 1,64,-1
 741 890 l 1,0,-1
99 530 m 1,65,-1
 129 890 l 1,66,-1
 -438 890 l 1,67,68
 -422 852 -422 852 -383 823 c 128,-1,69
 -344 794 -344 794 -298.5 779 c 128,-1,70
 -253 764 -253 764 -218 764 c 1,71,-1
 -218 666 l 1,72,73
 -261 666 -261 666 -308.5 653 c 128,-1,74
 -356 640 -356 640 -394 609.5 c 128,-1,75
 -432 579 -432 579 -444 530 c 1,76,-1
 99 530 l 1,65,-1
535 530 m 1,77,-1
 565 890 l 1,78,-1
 305 890 l 1,79,-1
 275 530 l 1,80,-1
 535 530 l 1,77,-1
EndSplineSet
EndChar

StartChar: glyph104
Encoding: 65553 -1 104
Width: 1200
VWidth: 2048
Flags: W
LayerCount: 2
Fore
SplineSet
188 1620 m 1,0,-1
 188 1444 l 1,1,-1
 -458 1444 l 1,2,-1
 -458 -24 l 1,3,-1
 188 -24 l 1,4,-1
 188 -200 l 1,5,-1
 -660 -200 l 1,6,-1
 -660 1620 l 1,7,-1
 188 1620 l 1,0,-1
454 1620 m 1,8,-1
 654 1620 l 1,9,-1
 654 -200 l 1,10,-1
 454 -200 l 1,11,-1
 454 1620 l 1,8,-1
EndSplineSet
EndChar

StartChar: glyph105
Encoding: 65554 -1 105
Width: 1200
VWidth: 2048
Flags: W
LayerCount: 2
Fore
SplineSet
920 890 m 1,0,-1
 741 890 l 1,1,-1
 711 530 l 1,2,-1
 920 530 l 1,3,-1
 920 360 l 1,4,-1
 696 360 l 1,5,-1
 666 0 l 1,6,-1
 490 0 l 1,7,-1
 520 360 l 1,8,-1
 260 360 l 1,9,-1
 230 0 l 1,10,-1
 54 0 l 1,11,-1
 84 360 l 1,12,-1
 -334 360 l 1,13,-1
 -334 -220 l 1,14,-1
 -960 -220 l 1,15,-1
 -960 -44 l 1,16,-1
 -534 -44 l 1,17,-1
 -534 1424 l 1,18,-1
 -960 1424 l 1,19,-1
 -960 1600 l 1,20,-1
 -334 1600 l 1,21,-1
 -334 1060 l 1,22,-1
 144 1060 l 1,23,-1
 174 1420 l 1,24,-1
 350 1420 l 1,25,-1
 320 1060 l 1,26,-1
 580 1060 l 1,27,-1
 610 1420 l 1,28,-1
 786 1420 l 1,29,-1
 756 1060 l 1,30,-1
 920 1060 l 1,31,-1
 920 890 l 1,0,-1
-334 530 m 1,32,-1
 99 530 l 1,33,-1
 129 890 l 1,34,-1
 -334 890 l 1,35,-1
 -334 530 l 1,32,-1
535 530 m 1,36,-1
 565 890 l 1,37,-1
 305 890 l 1,38,-1
 275 530 l 1,39,-1
 535 530 l 1,36,-1
EndSplineSet
EndChar

StartChar: glyph106
Encoding: 65555 -1 106
Width: 1200
VWidth: 2048
Flags: W
LayerCount: 2
Fore
SplineSet
-734 580 m 128,-1,1
 -768 600 -768 600 -788 634 c 128,-1,2
 -808 668 -808 668 -808 708 c 256,3,4
 -808 748 -808 748 -788 782 c 128,-1,5
 -768 816 -768 816 -734 836 c 128,-1,6
 -700 856 -700 856 -660 856 c 256,7,8
 -620 856 -620 856 -586 836 c 128,-1,9
 -552 816 -552 816 -532 782 c 128,-1,10
 -512 748 -512 748 -512 708 c 256,11,12
 -512 668 -512 668 -532 634 c 128,-1,13
 -552 600 -552 600 -586 580 c 128,-1,14
 -620 560 -620 560 -660 560 c 256,15,0
 -700 560 -700 560 -734 580 c 128,-1,1
-180 800 m 1,16,-1
 920 800 l 1,17,-1
 920 614 l 1,18,-1
 -180 614 l 1,19,-1
 -180 800 l 1,16,-1
EndSplineSet
EndChar

StartChar: glyph109
Encoding: 65558 -1 109
Width: 1200
VWidth: 2048
Flags: W
LayerCount: 2
Fore
SplineSet
-500 1052 m 1,0,-1
 920 1052 l 1,1,-1
 920 866 l 1,2,-1
 -500 866 l 1,3,-1
 -500 1052 l 1,0,-1
-1994 580 m 128,-1,5
 -2028 600 -2028 600 -2048 634 c 128,-1,6
 -2068 668 -2068 668 -2068 708 c 256,7,8
 -2068 748 -2068 748 -2048 782 c 128,-1,9
 -2028 816 -2028 816 -1994 836 c 128,-1,10
 -1960 856 -1960 856 -1920 856 c 256,11,12
 -1880 856 -1880 856 -1846 836 c 128,-1,13
 -1812 816 -1812 816 -1792 782 c 128,-1,14
 -1772 748 -1772 748 -1772 708 c 256,15,16
 -1772 668 -1772 668 -1792 634 c 128,-1,17
 -1812 600 -1812 600 -1846 580 c 128,-1,18
 -1880 560 -1880 560 -1920 560 c 256,19,4
 -1960 560 -1960 560 -1994 580 c 128,-1,5
-1224 580 m 128,-1,21
 -1258 600 -1258 600 -1278 634 c 128,-1,22
 -1298 668 -1298 668 -1298 708 c 256,23,24
 -1298 748 -1298 748 -1278 782 c 128,-1,25
 -1258 816 -1258 816 -1224 836 c 128,-1,26
 -1190 856 -1190 856 -1150 856 c 256,27,28
 -1110 856 -1110 856 -1076 836 c 128,-1,29
 -1042 816 -1042 816 -1022 782 c 128,-1,30
 -1002 748 -1002 748 -1002 708 c 256,31,32
 -1002 668 -1002 668 -1022 634 c 128,-1,33
 -1042 600 -1042 600 -1076 580 c 128,-1,34
 -1110 560 -1110 560 -1150 560 c 256,35,20
 -1190 560 -1190 560 -1224 580 c 128,-1,21
-500 552 m 1,36,-1
 920 552 l 1,37,-1
 920 366 l 1,38,-1
 -500 366 l 1,39,-1
 -500 552 l 1,36,-1
EndSplineSet
EndChar

StartChar: glyph110
Encoding: 65559 -1 110
Width: 1200
VWidth: 2048
Flags: W
LayerCount: 2
Fore
SplineSet
-218 608 m 1,0,-1
 -218 810 l 1,1,-1
 920 1204 l 1,2,-1
 920 984 l 1,3,-1
 60 718 l 1,4,-1
 60 700 l 1,5,-1
 920 434 l 1,6,-1
 920 214 l 1,7,-1
 -218 608 l 1,0,-1
-1934 562 m 128,-1,9
 -1968 582 -1968 582 -1988 616 c 128,-1,10
 -2008 650 -2008 650 -2008 690 c 256,11,12
 -2008 730 -2008 730 -1988 764 c 128,-1,13
 -1968 798 -1968 798 -1934 818 c 128,-1,14
 -1900 838 -1900 838 -1860 838 c 256,15,16
 -1820 838 -1820 838 -1786 818 c 128,-1,17
 -1752 798 -1752 798 -1732 764 c 128,-1,18
 -1712 730 -1712 730 -1712 690 c 256,19,20
 -1712 650 -1712 650 -1732 616 c 128,-1,21
 -1752 582 -1752 582 -1786 562 c 128,-1,22
 -1820 542 -1820 542 -1860 542 c 256,23,8
 -1900 542 -1900 542 -1934 562 c 128,-1,9
-936 562 m 128,-1,25
 -970 582 -970 582 -990 616 c 128,-1,26
 -1010 650 -1010 650 -1010 690 c 256,27,28
 -1010 730 -1010 730 -990 764 c 128,-1,29
 -970 798 -970 798 -936 818 c 128,-1,30
 -902 838 -902 838 -862 838 c 256,31,32
 -822 838 -822 838 -788 818 c 128,-1,33
 -754 798 -754 798 -734 764 c 128,-1,34
 -714 730 -714 730 -714 690 c 256,35,36
 -714 650 -714 650 -734 616 c 128,-1,37
 -754 582 -754 582 -788 562 c 128,-1,38
 -822 542 -822 542 -862 542 c 256,39,24
 -902 542 -902 542 -936 562 c 128,-1,25
EndSplineSet
EndChar

StartChar: glyph112
Encoding: 65561 -1 112
Width: 1200
VWidth: 2048
Flags: W
LayerCount: 2
Fore
SplineSet
-100 1052 m 1,0,-1
 920 1052 l 1,1,-1
 920 866 l 1,2,-1
 -100 866 l 1,3,-1
 -100 1052 l 1,0,-1
-734 580 m 128,-1,5
 -768 600 -768 600 -788 634 c 128,-1,6
 -808 668 -808 668 -808 708 c 256,7,8
 -808 748 -808 748 -788 782 c 128,-1,9
 -768 816 -768 816 -734 836 c 128,-1,10
 -700 856 -700 856 -660 856 c 256,11,12
 -620 856 -620 856 -586 836 c 128,-1,13
 -552 816 -552 816 -532 782 c 128,-1,14
 -512 748 -512 748 -512 708 c 256,15,16
 -512 668 -512 668 -532 634 c 128,-1,17
 -552 600 -552 600 -586 580 c 128,-1,18
 -620 560 -620 560 -660 560 c 256,19,4
 -700 560 -700 560 -734 580 c 128,-1,5
-100 552 m 1,20,-1
 920 552 l 1,21,-1
 920 366 l 1,22,-1
 -100 366 l 1,23,-1
 -100 552 l 1,20,-1
EndSplineSet
EndChar

StartChar: glyph115
Encoding: 65564 -1 115
Width: 1200
VWidth: 2048
Flags: W
LayerCount: 2
Fore
SplineSet
-1994 984 m 128,-1,1
 -2028 1004 -2028 1004 -2048 1038 c 128,-1,2
 -2068 1072 -2068 1072 -2068 1112 c 256,3,4
 -2068 1152 -2068 1152 -2048 1186 c 128,-1,5
 -2028 1220 -2028 1220 -1994 1240 c 128,-1,6
 -1960 1260 -1960 1260 -1920 1260 c 256,7,8
 -1880 1260 -1880 1260 -1846 1240 c 128,-1,9
 -1812 1220 -1812 1220 -1792 1186 c 128,-1,10
 -1772 1152 -1772 1152 -1772 1112 c 256,11,12
 -1772 1072 -1772 1072 -1792 1038 c 128,-1,13
 -1812 1004 -1812 1004 -1846 984 c 128,-1,14
 -1880 964 -1880 964 -1920 964 c 256,15,0
 -1960 964 -1960 964 -1994 984 c 128,-1,1
-1224 984 m 128,-1,17
 -1258 1004 -1258 1004 -1278 1038 c 128,-1,18
 -1298 1072 -1298 1072 -1298 1112 c 256,19,20
 -1298 1152 -1298 1152 -1278 1186 c 128,-1,21
 -1258 1220 -1258 1220 -1224 1240 c 128,-1,22
 -1190 1260 -1190 1260 -1150 1260 c 256,23,24
 -1110 1260 -1110 1260 -1076 1240 c 128,-1,25
 -1042 1220 -1042 1220 -1022 1186 c 128,-1,26
 -1002 1152 -1002 1152 -1002 1112 c 256,27,28
 -1002 1072 -1002 1072 -1022 1038 c 128,-1,29
 -1042 1004 -1042 1004 -1076 984 c 128,-1,30
 -1110 964 -1110 964 -1150 964 c 256,31,16
 -1190 964 -1190 964 -1224 984 c 128,-1,17
-500 1052 m 1,32,-1
 920 1052 l 1,33,-1
 920 866 l 1,34,-1
 -500 866 l 1,35,-1
 -500 1052 l 1,32,-1
-500 552 m 1,36,-1
 920 552 l 1,37,-1
 920 366 l 1,38,-1
 -500 366 l 1,39,-1
 -500 552 l 1,36,-1
-1994 180 m 128,-1,41
 -2028 200 -2028 200 -2048 234 c 128,-1,42
 -2068 268 -2068 268 -2068 308 c 256,43,44
 -2068 348 -2068 348 -2048 382 c 128,-1,45
 -2028 416 -2028 416 -1994 436 c 128,-1,46
 -1960 456 -1960 456 -1920 456 c 256,47,48
 -1880 456 -1880 456 -1846 436 c 128,-1,49
 -1812 416 -1812 416 -1792 382 c 128,-1,50
 -1772 348 -1772 348 -1772 308 c 256,51,52
 -1772 268 -1772 268 -1792 234 c 128,-1,53
 -1812 200 -1812 200 -1846 180 c 128,-1,54
 -1880 160 -1880 160 -1920 160 c 256,55,40
 -1960 160 -1960 160 -1994 180 c 128,-1,41
-1224 180 m 128,-1,57
 -1258 200 -1258 200 -1278 234 c 128,-1,58
 -1298 268 -1298 268 -1298 308 c 256,59,60
 -1298 348 -1298 348 -1278 382 c 128,-1,61
 -1258 416 -1258 416 -1224 436 c 128,-1,62
 -1190 456 -1190 456 -1150 456 c 256,63,64
 -1110 456 -1110 456 -1076 436 c 128,-1,65
 -1042 416 -1042 416 -1022 382 c 128,-1,66
 -1002 348 -1002 348 -1002 308 c 256,67,68
 -1002 268 -1002 268 -1022 234 c 128,-1,69
 -1042 200 -1042 200 -1076 180 c 128,-1,70
 -1110 160 -1110 160 -1150 160 c 256,71,56
 -1190 160 -1190 160 -1224 180 c 128,-1,57
EndSplineSet
EndChar

StartChar: glyph116
Encoding: 65565 -1 116
Width: 1200
VWidth: 2048
Flags: W
LayerCount: 2
Fore
SplineSet
-734 984 m 128,-1,1
 -768 1004 -768 1004 -788 1038 c 128,-1,2
 -808 1072 -808 1072 -808 1112 c 256,3,4
 -808 1152 -808 1152 -788 1186 c 128,-1,5
 -768 1220 -768 1220 -734 1240 c 128,-1,6
 -700 1260 -700 1260 -660 1260 c 256,7,8
 -620 1260 -620 1260 -586 1240 c 128,-1,9
 -552 1220 -552 1220 -532 1186 c 128,-1,10
 -512 1152 -512 1152 -512 1112 c 256,11,12
 -512 1072 -512 1072 -532 1038 c 128,-1,13
 -552 1004 -552 1004 -586 984 c 128,-1,14
 -620 964 -620 964 -660 964 c 256,15,0
 -700 964 -700 964 -734 984 c 128,-1,1
-200 1012 m 1,16,-1
 920 1012 l 1,17,-1
 920 826 l 1,18,-1
 -200 826 l 1,19,-1
 -200 1012 l 1,16,-1
-200 512 m 1,20,-1
 920 512 l 1,21,-1
 920 326 l 1,22,-1
 -200 326 l 1,23,-1
 -200 512 l 1,20,-1
-734 180 m 128,-1,25
 -768 200 -768 200 -788 234 c 128,-1,26
 -808 268 -808 268 -808 308 c 256,27,28
 -808 348 -808 348 -788 382 c 128,-1,29
 -768 416 -768 416 -734 436 c 128,-1,30
 -700 456 -700 456 -660 456 c 256,31,32
 -620 456 -620 456 -586 436 c 128,-1,33
 -552 416 -552 416 -532 382 c 128,-1,34
 -512 348 -512 348 -512 308 c 256,35,36
 -512 268 -512 268 -532 234 c 128,-1,37
 -552 200 -552 200 -586 180 c 128,-1,38
 -620 160 -620 160 -660 160 c 256,39,24
 -700 160 -700 160 -734 180 c 128,-1,25
EndSplineSet
EndChar

StartChar: glyph117
Encoding: 65566 -1 117
Width: 1200
VWidth: 2048
Flags: W
LayerCount: 2
Fore
SplineSet
-734 984 m 128,-1,1
 -768 1004 -768 1004 -788 1038 c 128,-1,2
 -808 1072 -808 1072 -808 1112 c 256,3,4
 -808 1152 -808 1152 -788 1186 c 128,-1,5
 -768 1220 -768 1220 -734 1240 c 128,-1,6
 -700 1260 -700 1260 -660 1260 c 256,7,8
 -620 1260 -620 1260 -586 1240 c 128,-1,9
 -552 1220 -552 1220 -532 1186 c 128,-1,10
 -512 1152 -512 1152 -512 1112 c 256,11,12
 -512 1072 -512 1072 -532 1038 c 128,-1,13
 -552 1004 -552 1004 -586 984 c 128,-1,14
 -620 964 -620 964 -660 964 c 256,15,0
 -700 964 -700 964 -734 984 c 128,-1,1
-156 434 m 1,16,-1
 664 700 l 1,17,-1
 664 718 l 1,18,-1
 -156 984 l 1,19,-1
 -156 1204 l 1,20,-1
 962 810 l 1,21,-1
 962 608 l 1,22,-1
 -156 214 l 1,23,-1
 -156 434 l 1,16,-1
-734 180 m 128,-1,25
 -768 200 -768 200 -788 234 c 128,-1,26
 -808 268 -808 268 -808 308 c 256,27,28
 -808 348 -808 348 -788 382 c 128,-1,29
 -768 416 -768 416 -734 436 c 128,-1,30
 -700 456 -700 456 -660 456 c 256,31,32
 -620 456 -620 456 -586 436 c 128,-1,33
 -552 416 -552 416 -532 382 c 128,-1,34
 -512 348 -512 348 -512 308 c 256,35,36
 -512 268 -512 268 -532 234 c 128,-1,37
 -552 200 -552 200 -586 180 c 128,-1,38
 -620 160 -620 160 -660 160 c 256,39,24
 -700 160 -700 160 -734 180 c 128,-1,25
EndSplineSet
EndChar

StartChar: glyph118
Encoding: 65567 -1 118
Width: 1200
VWidth: 2048
Flags: W
LayerCount: 2
Fore
SplineSet
-726 984 m 128,-1,1
 -760 1004 -760 1004 -780 1038 c 128,-1,2
 -800 1072 -800 1072 -800 1112 c 256,3,4
 -800 1152 -800 1152 -780 1186 c 128,-1,5
 -760 1220 -760 1220 -726 1240 c 128,-1,6
 -692 1260 -692 1260 -652 1260 c 256,7,8
 -612 1260 -612 1260 -578 1240 c 128,-1,9
 -544 1220 -544 1220 -524 1186 c 128,-1,10
 -504 1152 -504 1152 -504 1112 c 256,11,12
 -504 1072 -504 1072 -524 1038 c 128,-1,13
 -544 1004 -544 1004 -578 984 c 128,-1,14
 -612 964 -612 964 -652 964 c 256,15,0
 -692 964 -692 964 -726 984 c 128,-1,1
-198 608 m 1,16,-1
 -198 810 l 1,17,-1
 920 1204 l 1,18,-1
 920 984 l 1,19,-1
 100 718 l 1,20,-1
 100 700 l 1,21,-1
 920 434 l 1,22,-1
 920 214 l 1,23,-1
 -198 608 l 1,16,-1
-726 180 m 128,-1,25
 -760 200 -760 200 -780 234 c 128,-1,26
 -800 268 -800 268 -800 308 c 256,27,28
 -800 348 -800 348 -780 382 c 128,-1,29
 -760 416 -760 416 -726 436 c 128,-1,30
 -692 456 -692 456 -652 456 c 256,31,32
 -612 456 -612 456 -578 436 c 128,-1,33
 -544 416 -544 416 -524 382 c 128,-1,34
 -504 348 -504 348 -504 308 c 256,35,36
 -504 268 -504 268 -524 234 c 128,-1,37
 -544 200 -544 200 -578 180 c 128,-1,38
 -612 160 -612 160 -652 160 c 256,39,24
 -692 160 -692 160 -726 180 c 128,-1,25
EndSplineSet
EndChar

StartChar: glyph122
Encoding: 65571 -1 122
Width: 1200
VWidth: 2048
Flags: W
LayerCount: 2
Fore
SplineSet
920 866 m 1,0,-1
 171 866 l 1,1,-1
 14 552 l 1,2,-1
 920 552 l 1,3,-1
 920 366 l 1,4,-1
 -80 366 l 1,5,-1
 -314 -100 l 1,6,-1
 -516 -100 l 1,7,-1
 -282 366 l 1,8,-1
 -920 366 l 1,9,-1
 -920 552 l 1,10,-1
 -188 552 l 1,11,-1
 -31 866 l 1,12,-1
 -920 866 l 1,13,-1
 -920 1052 l 1,14,-1
 63 1052 l 1,15,-1
 298 1520 l 1,16,-1
 500 1520 l 1,17,-1
 265 1052 l 1,18,-1
 920 1052 l 1,19,-1
 920 866 l 1,0,-1
EndSplineSet
EndChar

StartChar: glyph123
Encoding: 65572 -1 123
Width: 1200
VWidth: 2048
Flags: W
LayerCount: 2
Fore
SplineSet
920 1026 m 1,0,-1
 -308 1026 l 1,1,-1
 -421 802 l 1,2,-1
 920 802 l 1,3,-1
 920 616 l 1,4,-1
 -514 616 l 1,5,-1
 -627 392 l 1,6,-1
 920 392 l 1,7,-1
 920 206 l 1,8,-1
 -720 206 l 1,9,-1
 -874 -100 l 1,10,-1
 -1076 -100 l 1,11,-1
 -922 206 l 1,12,-1
 -2120 206 l 1,13,-1
 -2120 392 l 1,14,-1
 -829 392 l 1,15,-1
 -716 616 l 1,16,-1
 -2120 616 l 1,17,-1
 -2120 802 l 1,18,-1
 -623 802 l 1,19,-1
 -510 1026 l 1,20,-1
 -2120 1026 l 1,21,-1
 -2120 1212 l 1,22,-1
 -417 1212 l 1,23,-1
 -262 1520 l 1,24,-1
 -60 1520 l 1,25,-1
 -215 1212 l 1,26,-1
 920 1212 l 1,27,-1
 920 1026 l 1,0,-1
EndSplineSet
EndChar

StartChar: glyph127
Encoding: 65576 -1 127
Width: 1200
VWidth: 2048
Flags: W
LayerCount: 2
Fore
SplineSet
-494 854 m 0,1,2
 -332 959 -332 959 -332 1102 c 0,3,4
 -332 1172 -332 1172 -385 1211 c 128,-1,5
 -438 1250 -438 1250 -534 1250 c 0,6,7
 -641 1250 -641 1250 -699.5 1201 c 128,-1,8
 -758 1152 -758 1152 -758 1062 c 1,9,-1
 -960 1062 l 1,10,11
 -960 1181 -960 1181 -909.5 1266 c 128,-1,12
 -859 1351 -859 1351 -763 1395.5 c 128,-1,13
 -667 1440 -667 1440 -532 1440 c 0,14,15
 -400 1440 -400 1440 -305.5 1401.5 c 128,-1,16
 -211 1363 -211 1363 -161.5 1289 c 128,-1,17
 -112 1215 -112 1215 -112 1112 c 0,18,19
 -112 885 -112 885 -334 738 c 0,20,21
 -462 655 -462 655 -462 538 c 2,22,-1
 -462 456 l 1,23,-1
 -658 456 l 1,24,-1
 -658 552 l 2,25,0
 -658 750 -658 750 -494 854 c 0,1,2
-5 976 m 128,-1,27
 12 1027 12 1027 20 1072 c 1,28,-1
 920 1072 l 1,29,-1
 920 886 l 1,30,-1
 -44 886 l 1,31,26
 -22 925 -22 925 -5 976 c 128,-1,27
-98 592 m 1,32,-1
 920 592 l 1,33,-1
 920 406 l 1,34,-1
 -98 406 l 1,35,-1
 -98 592 l 1,32,-1
-630 0 m 128,-1,37
 -664 20 -664 20 -684 54 c 128,-1,38
 -704 88 -704 88 -704 128 c 256,39,40
 -704 168 -704 168 -684 202 c 128,-1,41
 -664 236 -664 236 -630 256 c 128,-1,42
 -596 276 -596 276 -556 276 c 256,43,44
 -516 276 -516 276 -482 256 c 128,-1,45
 -448 236 -448 236 -428 202 c 128,-1,46
 -408 168 -408 168 -408 128 c 256,47,48
 -408 88 -408 88 -428 54 c 128,-1,49
 -448 20 -448 20 -482 0 c 128,-1,50
 -516 -20 -516 -20 -556 -20 c 256,51,36
 -596 -20 -596 -20 -630 0 c 128,-1,37
EndSplineSet
EndChar

StartChar: glyph132
Encoding: 65581 -1 132
Width: 1200
VWidth: 2048
Flags: W
LayerCount: 2
Fore
SplineSet
958 -50 m 1,0,-1
 978 -220 l 1,1,-1
 930 -220 l 2,2,3
 677 -220 677 -220 510.5 -70.5 c 128,-1,4
 344 79 344 79 282 360 c 1,5,-1
 -144 360 l 1,6,-1
 -174 0 l 1,7,-1
 -350 0 l 1,8,-1
 -320 360 l 1,9,-1
 -580 360 l 1,10,-1
 -610 0 l 1,11,-1
 -786 0 l 1,12,-1
 -756 360 l 1,13,-1
 -920 360 l 1,14,-1
 -920 530 l 1,15,-1
 -741 530 l 1,16,-1
 -711 890 l 1,17,-1
 -920 890 l 1,18,-1
 -920 1060 l 1,19,-1
 -696 1060 l 1,20,-1
 -666 1420 l 1,21,-1
 -490 1420 l 1,22,-1
 -520 1060 l 1,23,-1
 -260 1060 l 1,24,-1
 -230 1420 l 1,25,-1
 -54 1420 l 1,26,-1
 -84 1060 l 1,27,-1
 280 1060 l 1,28,29
 342 1341 342 1341 508.5 1490.5 c 128,-1,30
 675 1640 675 1640 930 1640 c 2,31,-1
 978 1640 l 1,32,-1
 958 1470 l 1,33,-1
 950 1470 l 2,34,35
 790 1470 790 1470 677 1381.5 c 128,-1,36
 564 1293 564 1293 505 1123.5 c 128,-1,37
 446 954 446 954 446 716 c 0,38,39
 446 474 446 474 505 302 c 128,-1,40
 564 130 564 130 677 40 c 128,-1,41
 790 -50 790 -50 950 -50 c 2,42,-1
 958 -50 l 1,0,-1
-565 530 m 1,43,-1
 -305 530 l 1,44,-1
 -275 890 l 1,45,-1
 -535 890 l 1,46,-1
 -565 530 l 1,43,-1
255 530 m 1,47,48
 246 619 246 619 246 716 c 0,49,50
 246 802 246 802 254 890 c 1,51,-1
 -99 890 l 1,52,-1
 -129 530 l 1,53,-1
 255 530 l 1,47,48
EndSplineSet
EndChar

StartChar: glyph133
Encoding: 65582 -1 133
Width: 1200
VWidth: 2048
Flags: W
LayerCount: 2
Fore
SplineSet
972 -34 m 1,1,-1
 996 -204 l 1,2,3
 936 -224 936 -224 856 -224 c 0,4,5
 739 -224 739 -224 655.5 -172 c 128,-1,6
 572 -120 572 -120 528 -21 c 128,-1,7
 484 78 484 78 484 216 c 2,8,-1
 485 360 l 1,9,-1
 -164 360 l 1,10,-1
 -194 0 l 1,11,-1
 -370 0 l 1,12,-1
 -340 360 l 1,13,-1
 -600 360 l 1,14,-1
 -630 0 l 1,15,-1
 -806 0 l 1,16,-1
 -776 360 l 1,17,-1
 -940 360 l 1,18,-1
 -940 530 l 1,19,-1
 -761 530 l 1,20,-1
 -731 890 l 1,21,-1
 -940 890 l 1,22,-1
 -940 1060 l 1,23,-1
 -716 1060 l 1,24,-1
 -686 1420 l 1,25,-1
 -510 1420 l 1,26,-1
 -540 1060 l 1,27,-1
 -280 1060 l 1,28,-1
 -250 1420 l 1,29,-1
 -74 1420 l 1,30,-1
 -104 1060 l 1,31,-1
 485 1060 l 1,32,-1
 484 1214 l 2,33,34
 484 1416 484 1416 581.5 1526 c 128,-1,35
 679 1636 679 1636 856 1636 c 0,36,37
 936 1636 936 1636 996 1616 c 1,38,-1
 972 1446 l 1,39,40
 912 1466 912 1466 874 1466 c 0,41,42
 789 1466 789 1466 743.5 1400.5 c 128,-1,43
 698 1335 698 1335 698 1214 c 0,44,45
 698 1180 698 1180 699 1136 c 128,-1,46
 700 1092 700 1092 701 1068 c 0,47,48
 704 998 704 998 704 922 c 0,49,50
 704 833 704 833 656.5 783.5 c 128,-1,51
 609 734 609 734 522 732 c 1,52,-1
 522 698 l 1,53,54
 608 696 608 696 656 645.5 c 128,-1,55
 704 595 704 595 704 508 c 0,56,57
 704 471 704 471 703 425 c 128,-1,58
 702 379 702 379 701 356 c 0,59,60
 698 287 698 287 698 216 c 0,61,62
 698 86 698 86 743.5 16 c 128,-1,63
 789 -54 789 -54 874 -54 c 0,64,0
 912 -54 912 -54 972 -34 c 1,1,-1
-585 530 m 1,65,-1
 -325 530 l 1,66,-1
 -295 890 l 1,67,-1
 -555 890 l 1,68,-1
 -585 530 l 1,65,-1
-149 530 m 1,69,-1
 482 530 l 1,70,71
 470 579 470 579 432 609.5 c 128,-1,72
 394 640 394 640 346.5 653 c 128,-1,73
 299 666 299 666 256 666 c 1,74,-1
 256 764 l 1,75,76
 291 764 291 764 336.5 779 c 128,-1,77
 382 794 382 794 421 823 c 128,-1,78
 460 852 460 852 476 890 c 1,79,-1
 -119 890 l 1,80,-1
 -149 530 l 1,69,-1
EndSplineSet
EndChar

StartChar: glyph134
Encoding: 65583 -1 134
Width: 1200
VWidth: 2048
Flags: W
LayerCount: 2
Fore
SplineSet
962 1444 m 1,0,-1
 536 1444 l 1,1,-1
 536 -24 l 1,2,-1
 962 -24 l 1,3,-1
 962 -200 l 1,4,-1
 336 -200 l 1,5,-1
 336 360 l 1,6,-1
 -144 360 l 1,7,-1
 -174 0 l 1,8,-1
 -350 0 l 1,9,-1
 -320 360 l 1,10,-1
 -580 360 l 1,11,-1
 -610 0 l 1,12,-1
 -786 0 l 1,13,-1
 -756 360 l 1,14,-1
 -920 360 l 1,15,-1
 -920 530 l 1,16,-1
 -741 530 l 1,17,-1
 -711 890 l 1,18,-1
 -920 890 l 1,19,-1
 -920 1060 l 1,20,-1
 -696 1060 l 1,21,-1
 -666 1420 l 1,22,-1
 -490 1420 l 1,23,-1
 -520 1060 l 1,24,-1
 -260 1060 l 1,25,-1
 -230 1420 l 1,26,-1
 -54 1420 l 1,27,-1
 -84 1060 l 1,28,-1
 336 1060 l 1,29,-1
 336 1620 l 1,30,-1
 962 1620 l 1,31,-1
 962 1444 l 1,0,-1
-565 530 m 1,32,-1
 -305 530 l 1,33,-1
 -275 890 l 1,34,-1
 -535 890 l 1,35,-1
 -565 530 l 1,32,-1
-129 530 m 1,36,-1
 336 530 l 1,37,-1
 336 890 l 1,38,-1
 -99 890 l 1,39,-1
 -129 530 l 1,36,-1
EndSplineSet
EndChar

StartChar: glyph137
Encoding: 65586 -1 137
Width: 1200
VWidth: 2048
Flags: W
LayerCount: 2
Fore
SplineSet
768.5 1401.5 m 128,-1,1
 863 1363 863 1363 912.5 1289 c 128,-1,2
 962 1215 962 1215 962 1112 c 0,3,4
 962 882 962 882 740 738 c 0,5,6
 612 655 612 655 612 538 c 2,7,-1
 612 456 l 1,8,-1
 416 456 l 1,9,-1
 416 552 l 2,10,11
 416 750 416 750 580 854 c 0,12,13
 742 959 742 959 742 1102 c 0,14,15
 742 1172 742 1172 689 1211 c 128,-1,16
 636 1250 636 1250 540 1250 c 0,17,18
 424 1250 424 1250 360 1190.5 c 128,-1,19
 296 1131 296 1131 296 1022 c 2,20,-1
 296 890 l 1,21,-1
 -99 890 l 1,22,-1
 -129 530 l 1,23,-1
 80 530 l 1,24,-1
 80 360 l 1,25,-1
 -144 360 l 1,26,-1
 -174 0 l 1,27,-1
 -350 0 l 1,28,-1
 -320 360 l 1,29,-1
 -580 360 l 1,30,-1
 -610 0 l 1,31,-1
 -786 0 l 1,32,-1
 -756 360 l 1,33,-1
 -920 360 l 1,34,-1
 -920 530 l 1,35,-1
 -741 530 l 1,36,-1
 -711 890 l 1,37,-1
 -920 890 l 1,38,-1
 -920 1060 l 1,39,-1
 -696 1060 l 1,40,-1
 -666 1420 l 1,41,-1
 -490 1420 l 1,42,-1
 -520 1060 l 1,43,-1
 -260 1060 l 1,44,-1
 -230 1420 l 1,45,-1
 -54 1420 l 1,46,-1
 -84 1060 l 1,47,-1
 95 1060 l 1,48,49
 106 1242 106 1242 223 1341 c 128,-1,50
 340 1440 340 1440 542 1440 c 0,51,0
 674 1440 674 1440 768.5 1401.5 c 128,-1,1
-305 530 m 1,52,-1
 -275 890 l 1,53,-1
 -535 890 l 1,54,-1
 -565 530 l 1,55,-1
 -305 530 l 1,52,-1
592 256 m 128,-1,57
 626 236 626 236 646 202 c 128,-1,58
 666 168 666 168 666 128 c 256,59,60
 666 88 666 88 646 54 c 128,-1,61
 626 20 626 20 592 0 c 128,-1,62
 558 -20 558 -20 518 -20 c 256,63,64
 478 -20 478 -20 444 0 c 128,-1,65
 410 20 410 20 390 54 c 128,-1,66
 370 88 370 88 370 128 c 256,67,68
 370 168 370 168 390 202 c 128,-1,69
 410 236 410 236 444 256 c 128,-1,70
 478 276 478 276 518 276 c 256,71,56
 558 276 558 276 592 256 c 128,-1,57
EndSplineSet
EndChar

StartChar: glyph138
Encoding: 65587 -1 138
Width: 1200
VWidth: 2048
Flags: W
LayerCount: 2
Fore
SplineSet
920 890 m 1,0,-1
 741 890 l 1,1,-1
 711 530 l 1,2,-1
 920 530 l 1,3,-1
 920 360 l 1,4,-1
 696 360 l 1,5,-1
 666 0 l 1,6,-1
 490 0 l 1,7,-1
 520 360 l 1,8,-1
 260 360 l 1,9,-1
 230 0 l 1,10,-1
 54 0 l 1,11,-1
 84 360 l 1,12,-1
 -144 360 l 1,13,-1
 -174 0 l 1,14,-1
 -350 0 l 1,15,-1
 -320 360 l 1,16,-1
 -580 360 l 1,17,-1
 -610 0 l 1,18,-1
 -786 0 l 1,19,-1
 -756 360 l 1,20,-1
 -920 360 l 1,21,-1
 -920 530 l 1,22,-1
 -741 530 l 1,23,-1
 -711 890 l 1,24,-1
 -920 890 l 1,25,-1
 -920 1060 l 1,26,-1
 -696 1060 l 1,27,-1
 -666 1420 l 1,28,-1
 -490 1420 l 1,29,-1
 -520 1060 l 1,30,-1
 -260 1060 l 1,31,-1
 -230 1420 l 1,32,-1
 -54 1420 l 1,33,-1
 -84 1060 l 1,34,-1
 144 1060 l 1,35,-1
 174 1420 l 1,36,-1
 350 1420 l 1,37,-1
 320 1060 l 1,38,-1
 580 1060 l 1,39,-1
 610 1420 l 1,40,-1
 786 1420 l 1,41,-1
 756 1060 l 1,42,-1
 920 1060 l 1,43,-1
 920 890 l 1,0,-1
-565 530 m 1,44,-1
 -305 530 l 1,45,-1
 -275 890 l 1,46,-1
 -535 890 l 1,47,-1
 -565 530 l 1,44,-1
99 530 m 1,48,-1
 129 890 l 1,49,-1
 -99 890 l 1,50,-1
 -129 530 l 1,51,-1
 99 530 l 1,48,-1
535 530 m 1,52,-1
 565 890 l 1,53,-1
 305 890 l 1,54,-1
 275 530 l 1,55,-1
 535 530 l 1,52,-1
EndSplineSet
EndChar

StartChar: glyph139
Encoding: 65588 -1 139
Width: 1200
VWidth: 2048
Flags: W
LayerCount: 2
Fore
SplineSet
920 890 m 1,0,-1
 741 890 l 1,1,-1
 711 530 l 1,2,-1
 920 530 l 1,3,-1
 920 360 l 1,4,-1
 696 360 l 1,5,-1
 666 0 l 1,6,-1
 490 0 l 1,7,-1
 520 360 l 1,8,-1
 260 360 l 1,9,-1
 230 0 l 1,10,-1
 54 0 l 1,11,-1
 84 360 l 1,12,-1
 -324 360 l 1,13,-1
 -354 0 l 1,14,-1
 -530 0 l 1,15,-1
 -500 360 l 1,16,-1
 -760 360 l 1,17,-1
 -790 0 l 1,18,-1
 -966 0 l 1,19,-1
 -936 360 l 1,20,-1
 -1344 360 l 1,21,-1
 -1374 0 l 1,22,-1
 -1550 0 l 1,23,-1
 -1520 360 l 1,24,-1
 -1780 360 l 1,25,-1
 -1810 0 l 1,26,-1
 -1986 0 l 1,27,-1
 -1956 360 l 1,28,-1
 -2120 360 l 1,29,-1
 -2120 530 l 1,30,-1
 -1941 530 l 1,31,-1
 -1911 890 l 1,32,-1
 -2120 890 l 1,33,-1
 -2120 1060 l 1,34,-1
 -1896 1060 l 1,35,-1
 -1866 1420 l 1,36,-1
 -1690 1420 l 1,37,-1
 -1720 1060 l 1,38,-1
 -1460 1060 l 1,39,-1
 -1430 1420 l 1,40,-1
 -1254 1420 l 1,41,-1
 -1284 1060 l 1,42,-1
 -876 1060 l 1,43,-1
 -846 1420 l 1,44,-1
 -670 1420 l 1,45,-1
 -700 1060 l 1,46,-1
 -440 1060 l 1,47,-1
 -410 1420 l 1,48,-1
 -234 1420 l 1,49,-1
 -264 1060 l 1,50,-1
 144 1060 l 1,51,-1
 174 1420 l 1,52,-1
 350 1420 l 1,53,-1
 320 1060 l 1,54,-1
 580 1060 l 1,55,-1
 610 1420 l 1,56,-1
 786 1420 l 1,57,-1
 756 1060 l 1,58,-1
 920 1060 l 1,59,-1
 920 890 l 1,0,-1
-1765 530 m 1,60,-1
 -1505 530 l 1,61,-1
 -1475 890 l 1,62,-1
 -1735 890 l 1,63,-1
 -1765 530 l 1,60,-1
-921 530 m 1,64,-1
 -891 890 l 1,65,-1
 -1299 890 l 1,66,-1
 -1329 530 l 1,67,-1
 -921 530 l 1,64,-1
-745 530 m 1,68,-1
 -485 530 l 1,69,-1
 -455 890 l 1,70,-1
 -715 890 l 1,71,-1
 -745 530 l 1,68,-1
99 530 m 1,72,-1
 129 890 l 1,73,-1
 -279 890 l 1,74,-1
 -309 530 l 1,75,-1
 99 530 l 1,72,-1
535 530 m 1,76,-1
 565 890 l 1,77,-1
 305 890 l 1,78,-1
 275 530 l 1,79,-1
 535 530 l 1,76,-1
EndSplineSet
EndChar

StartChar: glyph140
Encoding: 65589 -1 140
Width: 1200
VWidth: 2048
Flags: W
LayerCount: 2
Fore
SplineSet
920 890 m 1,0,-1
 741 890 l 1,1,-1
 711 530 l 1,2,-1
 920 530 l 1,3,-1
 920 360 l 1,4,-1
 696 360 l 1,5,-1
 666 0 l 1,6,-1
 490 0 l 1,7,-1
 520 360 l 1,8,-1
 260 360 l 1,9,-1
 230 0 l 1,10,-1
 54 0 l 1,11,-1
 84 360 l 1,12,-1
 -384 360 l 1,13,-1
 -414 0 l 1,14,-1
 -590 0 l 1,15,-1
 -560 360 l 1,16,-1
 -820 360 l 1,17,-1
 -850 0 l 1,18,-1
 -1026 0 l 1,19,-1
 -996 360 l 1,20,-1
 -1464 360 l 1,21,-1
 -1494 0 l 1,22,-1
 -1670 0 l 1,23,-1
 -1640 360 l 1,24,-1
 -1900 360 l 1,25,-1
 -1930 0 l 1,26,-1
 -2106 0 l 1,27,-1
 -2076 360 l 1,28,-1
 -2544 360 l 1,29,-1
 -2574 0 l 1,30,-1
 -2750 0 l 1,31,-1
 -2720 360 l 1,32,-1
 -2980 360 l 1,33,-1
 -3010 0 l 1,34,-1
 -3186 0 l 1,35,-1
 -3156 360 l 1,36,-1
 -3320 360 l 1,37,-1
 -3320 530 l 1,38,-1
 -3141 530 l 1,39,-1
 -3111 890 l 1,40,-1
 -3320 890 l 1,41,-1
 -3320 1060 l 1,42,-1
 -3096 1060 l 1,43,-1
 -3066 1420 l 1,44,-1
 -2890 1420 l 1,45,-1
 -2920 1060 l 1,46,-1
 -2660 1060 l 1,47,-1
 -2630 1420 l 1,48,-1
 -2454 1420 l 1,49,-1
 -2484 1060 l 1,50,-1
 -2016 1060 l 1,51,-1
 -1986 1420 l 1,52,-1
 -1810 1420 l 1,53,-1
 -1840 1060 l 1,54,-1
 -1580 1060 l 1,55,-1
 -1550 1420 l 1,56,-1
 -1374 1420 l 1,57,-1
 -1404 1060 l 1,58,-1
 -936 1060 l 1,59,-1
 -906 1420 l 1,60,-1
 -730 1420 l 1,61,-1
 -760 1060 l 1,62,-1
 -500 1060 l 1,63,-1
 -470 1420 l 1,64,-1
 -294 1420 l 1,65,-1
 -324 1060 l 1,66,-1
 144 1060 l 1,67,-1
 174 1420 l 1,68,-1
 350 1420 l 1,69,-1
 320 1060 l 1,70,-1
 580 1060 l 1,71,-1
 610 1420 l 1,72,-1
 786 1420 l 1,73,-1
 756 1060 l 1,74,-1
 920 1060 l 1,75,-1
 920 890 l 1,0,-1
-2965 530 m 1,76,-1
 -2705 530 l 1,77,-1
 -2675 890 l 1,78,-1
 -2935 890 l 1,79,-1
 -2965 530 l 1,76,-1
-2061 530 m 1,80,-1
 -2031 890 l 1,81,-1
 -2499 890 l 1,82,-1
 -2529 530 l 1,83,-1
 -2061 530 l 1,80,-1
-1885 530 m 1,84,-1
 -1625 530 l 1,85,-1
 -1595 890 l 1,86,-1
 -1855 890 l 1,87,-1
 -1885 530 l 1,84,-1
-981 530 m 1,88,-1
 -951 890 l 1,89,-1
 -1419 890 l 1,90,-1
 -1449 530 l 1,91,-1
 -981 530 l 1,88,-1
-805 530 m 1,92,-1
 -545 530 l 1,93,-1
 -515 890 l 1,94,-1
 -775 890 l 1,95,-1
 -805 530 l 1,92,-1
99 530 m 1,96,-1
 129 890 l 1,97,-1
 -339 890 l 1,98,-1
 -369 530 l 1,99,-1
 99 530 l 1,96,-1
535 530 m 1,100,-1
 565 890 l 1,101,-1
 305 890 l 1,102,-1
 275 530 l 1,103,-1
 535 530 l 1,100,-1
EndSplineSet
EndChar

StartChar: glyph141
Encoding: 65590 -1 141
Width: 1200
VWidth: 2048
Flags: W
LayerCount: 2
Fore
SplineSet
-54 1420 m 1,0,-1
 -84 1060 l 1,1,-1
 80 1060 l 1,2,-1
 80 890 l 1,3,-1
 -99 890 l 1,4,-1
 -129 530 l 1,5,-1
 80 530 l 1,6,-1
 80 360 l 1,7,-1
 -144 360 l 1,8,-1
 -174 0 l 1,9,-1
 -350 0 l 1,10,-1
 -320 360 l 1,11,-1
 -580 360 l 1,12,-1
 -610 0 l 1,13,-1
 -786 0 l 1,14,-1
 -756 360 l 1,15,-1
 -920 360 l 1,16,-1
 -920 530 l 1,17,-1
 -741 530 l 1,18,-1
 -711 890 l 1,19,-1
 -920 890 l 1,20,-1
 -920 1060 l 1,21,-1
 -696 1060 l 1,22,-1
 -666 1420 l 1,23,-1
 -490 1420 l 1,24,-1
 -520 1060 l 1,25,-1
 -260 1060 l 1,26,-1
 -230 1420 l 1,27,-1
 -54 1420 l 1,0,-1
160 1060 m 1,28,-1
 920 1060 l 1,29,-1
 920 884 l 1,30,-1
 160 884 l 1,31,-1
 160 1060 l 1,28,-1
-305 530 m 1,32,-1
 -275 890 l 1,33,-1
 -535 890 l 1,34,-1
 -565 530 l 1,35,-1
 -305 530 l 1,32,-1
160 358 m 1,36,-1
 160 534 l 1,37,-1
 920 534 l 1,38,-1
 920 358 l 1,39,-1
 160 358 l 1,36,-1
EndSplineSet
EndChar

StartChar: glyph142
Encoding: 65591 -1 142
Width: 1200
VWidth: 2048
Flags: W
LayerCount: 2
Fore
SplineSet
-173 0 m 1,0,-1
 960 0 l 1,1,-1
 960 -176 l 1,2,-1
 -364 -176 l 1,3,-1
 -319 360 l 1,4,-1
 -580 360 l 1,5,-1
 -610 0 l 1,6,-1
 -786 0 l 1,7,-1
 -756 360 l 1,8,-1
 -920 360 l 1,9,-1
 -920 530 l 1,10,-1
 -741 530 l 1,11,-1
 -711 890 l 1,12,-1
 -920 890 l 1,13,-1
 -920 1060 l 1,14,-1
 -696 1060 l 1,15,-1
 -666 1420 l 1,16,-1
 -490 1420 l 1,17,-1
 -520 1060 l 1,18,-1
 -260 1060 l 1,19,-1
 -230 1420 l 1,20,-1
 -54 1420 l 1,21,-1
 -84 1060 l 1,22,-1
 80 1060 l 1,23,-1
 80 890 l 1,24,-1
 -98 890 l 1,25,-1
 -129 530 l 1,26,-1
 80 530 l 1,27,-1
 80 360 l 1,28,-1
 -143 360 l 1,29,-1
 -173 0 l 1,0,-1
-565 530 m 1,30,-1
 -305 530 l 1,31,-1
 -274 890 l 1,32,-1
 -535 890 l 1,33,-1
 -565 530 l 1,30,-1
EndSplineSet
EndChar

StartChar: glyph143
Encoding: 65592 -1 143
Width: 1200
VWidth: 2048
Flags: W
LayerCount: 2
Fore
SplineSet
960 -30 m 1,0,-1
 974 -176 l 1,1,-1
 -1564 -176 l 1,2,-1
 -1519 360 l 1,3,-1
 -1780 360 l 1,4,-1
 -1810 0 l 1,5,-1
 -1986 0 l 1,6,-1
 -1956 360 l 1,7,-1
 -2120 360 l 1,8,-1
 -2120 530 l 1,9,-1
 -1941 530 l 1,10,-1
 -1911 890 l 1,11,-1
 -2120 890 l 1,12,-1
 -2120 1060 l 1,13,-1
 -1896 1060 l 1,14,-1
 -1866 1420 l 1,15,-1
 -1690 1420 l 1,16,-1
 -1720 1060 l 1,17,-1
 -1460 1060 l 1,18,-1
 -1430 1420 l 1,19,-1
 -1254 1420 l 1,20,-1
 -1284 1060 l 1,21,-1
 -1120 1060 l 1,22,-1
 -1120 890 l 1,23,-1
 -1298 890 l 1,24,-1
 -1329 530 l 1,25,-1
 -1120 530 l 1,26,-1
 -1120 360 l 1,27,-1
 -1343 360 l 1,28,-1
 -1373 0 l 1,29,-1
 612 0 l 1,30,-1
 612 20 l 1,31,32
 523 20 523 20 439 104 c 128,-1,33
 355 188 355 188 301.5 346.5 c 128,-1,34
 248 505 248 505 248 716 c 0,35,36
 248 1008 248 1008 328.5 1215.5 c 128,-1,37
 409 1423 409 1423 562.5 1531.5 c 128,-1,38
 716 1640 716 1640 932 1640 c 2,39,-1
 980 1640 l 1,40,-1
 960 1470 l 1,41,-1
 952 1470 l 2,42,43
 792 1470 792 1470 679 1381.5 c 128,-1,44
 566 1293 566 1293 507 1123.5 c 128,-1,45
 448 954 448 954 448 716 c 0,46,47
 448 480 448 480 507 312.5 c 128,-1,48
 566 145 566 145 679 57.5 c 128,-1,49
 792 -30 792 -30 952 -30 c 2,50,-1
 960 -30 l 1,0,-1
-1765 530 m 1,51,-1
 -1505 530 l 1,52,-1
 -1474 890 l 1,53,-1
 -1735 890 l 1,54,-1
 -1765 530 l 1,51,-1
EndSplineSet
EndChar

StartChar: glyph145
Encoding: 65594 -1 145
Width: 1200
VWidth: 2048
Flags: W
LayerCount: 2
Fore
SplineSet
20 1520 m 1,0,-1
 -794 -280 l 1,1,-1
 -996 -280 l 1,2,-1
 -182 1520 l 1,3,-1
 20 1520 l 1,0,-1
12 1052 m 1,4,-1
 922 1052 l 1,5,-1
 922 866 l 1,6,-1
 -78 866 l 1,7,-1
 12 1052 l 1,4,-1
-218 552 m 1,8,-1
 922 552 l 1,9,-1
 922 366 l 1,10,-1
 -308 366 l 1,11,-1
 -218 552 l 1,8,-1
EndSplineSet
EndChar

StartChar: glyph146
Encoding: 65595 -1 146
Width: 1200
VWidth: 2048
Flags: W
LayerCount: 2
Fore
SplineSet
-1180 1520 m 1,0,-1
 -1994 -280 l 1,1,-1
 -2196 -280 l 1,2,-1
 -1382 1520 l 1,3,-1
 -1180 1520 l 1,0,-1
-1188 1052 m 1,4,-1
 -278 1052 l 1,5,-1
 -278 866 l 1,6,-1
 -1278 866 l 1,7,-1
 -1188 1052 l 1,4,-1
-120 1052 m 1,8,-1
 920 1052 l 1,9,-1
 920 866 l 1,10,-1
 -120 866 l 1,11,-1
 -120 1052 l 1,8,-1
-1418 552 m 1,12,-1
 -278 552 l 1,13,-1
 -278 366 l 1,14,-1
 -1508 366 l 1,15,-1
 -1418 552 l 1,12,-1
-120 552 m 1,16,-1
 920 552 l 1,17,-1
 920 366 l 1,18,-1
 -120 366 l 1,19,-1
 -120 552 l 1,16,-1
EndSplineSet
EndChar

StartChar: glyph147
Encoding: 65596 -1 147
Width: 1200
VWidth: 2048
Flags: W
LayerCount: 2
Fore
SplineSet
-96 1263 m 1,0,-1
 1006 810 l 1,1,-1
 1006 608 l 1,2,-1
 48 214 l 1,3,-1
 48 434 l 1,4,-1
 748 700 l 1,5,-1
 748 718 l 1,6,-1
 -178 1083 l 1,7,-1
 -794 -280 l 1,8,-1
 -996 -280 l 1,9,-1
 -182 1520 l 1,10,-1
 20 1520 l 1,11,-1
 -96 1263 l 1,0,-1
EndSplineSet
EndChar

StartChar: glyph150
Encoding: 65599 -1 150
Width: 1200
VWidth: 2048
Flags: W
LayerCount: 2
Fore
SplineSet
-500 0 m 1,0,-1
 920 0 l 1,1,-1
 920 -176 l 1,2,-1
 -2120 -176 l 1,3,-1
 -2120 0 l 1,4,-1
 -700 0 l 1,5,-1
 -700 1760 l 1,6,-1
 -500 1760 l 1,7,-1
 -500 0 l 1,0,-1
EndSplineSet
EndChar

StartChar: glyph151
Encoding: 65600 -1 151
Width: 1200
VWidth: 2048
Flags: W
LayerCount: 2
Fore
SplineSet
-920 0 m 1,0,-1
 920 0 l 1,1,-1
 920 -176 l 1,2,-1
 -920 -176 l 1,3,-1
 -920 0 l 1,0,-1
EndSplineSet
EndChar

StartChar: dollar
Encoding: 36 36 152
Width: 1200
VWidth: 2048
Flags: W
LayerCount: 2
Fore
SplineSet
682 -22 m 1,1,-1
 682 -334 l 1,2,-1
 544 -334 l 1,3,-1
 544 -30 l 1,4,5
 304 -30 304 -30 124 48 c 1,6,-1
 150 242 l 1,7,8
 361 158 361 158 544 154 c 1,9,-1
 544 623 l 1,10,-1
 462 660 l 2,11,12
 312 728 312 728 237 822 c 128,-1,13
 162 916 162 916 162 1050 c 0,14,15
 162 1221 162 1221 261.5 1321 c 128,-1,16
 361 1421 361 1421 544 1437 c 1,17,-1
 544 1720 l 1,18,-1
 682 1720 l 1,19,-1
 682 1437 l 1,20,21
 843 1421 843 1421 930.5 1334 c 128,-1,22
 1018 1247 1018 1247 1018 1102 c 1,23,-1
 822 1102 l 1,24,25
 822 1161 822 1161 786 1199 c 128,-1,26
 750 1237 750 1237 682 1250 c 1,27,-1
 682 795 l 1,28,-1
 730 772 l 2,29,30
 894 695 894 695 973 600.5 c 128,-1,31
 1052 506 1052 506 1052 366 c 0,32,0
 1052 27 1052 27 682 -22 c 1,1,-1
544 860 m 1,33,-1
 544 1250 l 1,34,35
 463 1236 463 1236 419.5 1187 c 128,-1,36
 376 1138 376 1138 376 1060 c 0,37,38
 376 993 376 993 411.5 949.5 c 128,-1,39
 447 906 447 906 522 870 c 2,40,-1
 544 860 l 1,33,-1
799.5 234.5 m 128,-1,42
 838 283 838 283 838 362 c 0,43,44
 838 489 838 489 708 548 c 2,45,-1
 682 560 l 1,46,-1
 682 166 l 1,47,41
 761 186 761 186 799.5 234.5 c 128,-1,42
EndSplineSet
Substitution2: "Single Substitution lookup 201 subtable" glyph240
Substitution2: "Single Substitution lookup 194 subtable" glyph212
Substitution2: "Single Substitution lookup 152 subtable" glyph240
EndChar

StartChar: plus
Encoding: 43 43 153
Width: 1200
VWidth: 2048
Flags: W
LayerCount: 2
Fore
SplineSet
1100 803 m 1,0,-1
 1100 617 l 1,1,-1
 696 617 l 1,2,-1
 696 190 l 1,3,-1
 504 190 l 1,4,-1
 504 617 l 1,5,-1
 100 617 l 1,6,-1
 100 803 l 1,7,-1
 504 803 l 1,8,-1
 504 1228 l 1,9,-1
 696 1228 l 1,10,-1
 696 803 l 1,11,-1
 1100 803 l 1,0,-1
EndSplineSet
Substitution2: "Single Substitution lookup 225 subtable" glyph163
Substitution2: "Single Substitution lookup 201 subtable" glyph240
Substitution2: "Single Substitution lookup 200 subtable" glyph179
Substitution2: "Single Substitution lookup 199 subtable" glyph240
Substitution2: "Single Substitution lookup 194 subtable" glyph214
Substitution2: "Single Substitution lookup 172 subtable" glyph240
Substitution2: "Single Substitution lookup 171 subtable" glyph180
Substitution2: "Single Substitution lookup 148 subtable" glyph240
EndChar

StartChar: minus
Encoding: 8722 8722 154
Width: 1200
VWidth: 2048
Flags: W
LayerCount: 2
Fore
SplineSet
100 802 m 1,0,-1
 1100 802 l 1,1,-1
 1100 616 l 1,2,-1
 100 616 l 1,3,-1
 100 802 l 1,0,-1
EndSplineSet
EndChar

StartChar: multiply
Encoding: 215 215 155
Width: 1200
VWidth: 2048
Flags: W
LayerCount: 2
Fore
SplineSet
1079 1065 m 1,0,-1
 722 687 l 1,1,-1
 1079 309 l 1,2,-1
 951 188 l 1,3,-1
 600 559 l 1,4,-1
 249 188 l 1,5,-1
 121 309 l 1,6,-1
 478 687 l 1,7,-1
 121 1065 l 1,8,-1
 249 1188 l 1,9,-1
 600 816 l 1,10,-1
 951 1188 l 1,11,-1
 1079 1065 l 1,0,-1
EndSplineSet
EndChar

StartChar: divide
Encoding: 247 247 156
Width: 1200
VWidth: 2048
Flags: W
LayerCount: 2
Fore
SplineSet
529.5 963 m 128,-1,1
 497 982 497 982 478 1014.5 c 128,-1,2
 459 1047 459 1047 459 1085 c 256,3,4
 459 1123 459 1123 478 1155 c 128,-1,5
 497 1187 497 1187 529.5 1206 c 128,-1,6
 562 1225 562 1225 600 1225 c 256,7,8
 638 1225 638 1225 670.5 1206 c 128,-1,9
 703 1187 703 1187 722 1155 c 128,-1,10
 741 1123 741 1123 741 1085 c 256,11,12
 741 1047 741 1047 722 1014.5 c 128,-1,13
 703 982 703 982 670.5 963 c 128,-1,14
 638 944 638 944 600 944 c 256,15,0
 562 944 562 944 529.5 963 c 128,-1,1
1100 802 m 1,16,-1
 1100 616 l 1,17,-1
 100 616 l 1,18,-1
 100 802 l 1,19,-1
 1100 802 l 1,16,-1
529.5 170 m 128,-1,21
 497 189 497 189 478 221 c 128,-1,22
 459 253 459 253 459 291 c 256,23,24
 459 329 459 329 478 361.5 c 128,-1,25
 497 394 497 394 529.5 413 c 128,-1,26
 562 432 562 432 600 432 c 256,27,28
 638 432 638 432 670.5 413 c 128,-1,29
 703 394 703 394 722 361.5 c 128,-1,30
 741 329 741 329 741 291 c 256,31,32
 741 253 741 253 722 221 c 128,-1,33
 703 189 703 189 670.5 170 c 128,-1,34
 638 151 638 151 600 151 c 256,35,20
 562 151 562 151 529.5 170 c 128,-1,21
EndSplineSet
EndChar

StartChar: equal
Encoding: 61 61 157
Width: 1200
VWidth: 2048
Flags: W
LayerCount: 2
Fore
SplineSet
100 1052 m 1,0,-1
 1100 1052 l 1,1,-1
 1100 866 l 1,2,-1
 100 866 l 1,3,-1
 100 1052 l 1,0,-1
100 552 m 1,4,-1
 1100 552 l 1,5,-1
 1100 366 l 1,6,-1
 100 366 l 1,7,-1
 100 552 l 1,4,-1
EndSplineSet
Substitution2: "Single Substitution lookup 219 subtable" glyph116
Substitution2: "Single Substitution lookup 217 subtable" glyph122
Substitution2: "Single Substitution lookup 213 subtable" glyph141
Substitution2: "Single Substitution lookup 212 subtable" glyph112
Substitution2: "Single Substitution lookup 209 subtable" glyph127
Substitution2: "Single Substitution lookup 207 subtable" glyph145
Substitution2: "Single Substitution lookup 202 subtable" glyph176
Substitution2: "Single Substitution lookup 201 subtable" glyph237
Substitution2: "Single Substitution lookup 199 subtable" glyph240
Substitution2: "Single Substitution lookup 198 subtable" glyph184
Substitution2: "Single Substitution lookup 197 subtable" glyph240
Substitution2: "Single Substitution lookup 196 subtable" glyph194
Substitution2: "Single Substitution lookup 194 subtable" glyph216
Substitution2: "Single Substitution lookup 191 subtable" glyph233
Substitution2: "Single Substitution lookup 185 subtable" glyph115
Substitution2: "Single Substitution lookup 184 subtable" glyph240
Substitution2: "Single Substitution lookup 183 subtable" glyph123
Substitution2: "Single Substitution lookup 176 subtable" glyph109
Substitution2: "Single Substitution lookup 175 subtable" glyph240
Substitution2: "Single Substitution lookup 174 subtable" glyph146
Substitution2: "Single Substitution lookup 172 subtable" glyph174
Substitution2: "Single Substitution lookup 171 subtable" glyph240
Substitution2: "Single Substitution lookup 170 subtable" glyph182
Substitution2: "Single Substitution lookup 169 subtable" glyph240
Substitution2: "Single Substitution lookup 168 subtable" glyph183
Substitution2: "Single Substitution lookup 167 subtable" glyph240
Substitution2: "Single Substitution lookup 166 subtable" glyph185
Substitution2: "Single Substitution lookup 165 subtable" glyph240
Substitution2: "Single Substitution lookup 164 subtable" glyph240
Substitution2: "Single Substitution lookup 163 subtable" glyph240
Substitution2: "Single Substitution lookup 162 subtable" glyph240
Substitution2: "Single Substitution lookup 161 subtable" glyph190
Substitution2: "Single Substitution lookup 158 subtable" glyph240
Substitution2: "Single Substitution lookup 157 subtable" glyph198
Substitution2: "Single Substitution lookup 148 subtable" glyph240
Substitution2: "Single Substitution lookup 147 subtable" glyph217
Substitution2: "Single Substitution lookup 146 subtable" glyph240
Substitution2: "Single Substitution lookup 145 subtable" glyph240
Substitution2: "Single Substitution lookup 144 subtable" glyph224
Substitution2: "Single Substitution lookup 137 subtable" glyph240
EndChar

StartChar: greater
Encoding: 62 62 158
Width: 1200
VWidth: 2048
Flags: W
LayerCount: 2
Fore
SplineSet
146 434 m 1,0,-1
 846 700 l 1,1,-1
 846 718 l 1,2,-1
 146 984 l 1,3,-1
 146 1204 l 1,4,-1
 1104 810 l 1,5,-1
 1104 608 l 1,6,-1
 146 214 l 1,7,-1
 146 434 l 1,0,-1
EndSplineSet
Substitution2: "Single Substitution lookup 223 subtable" glyph130
Substitution2: "Single Substitution lookup 219 subtable" glyph117
Substitution2: "Single Substitution lookup 215 subtable" glyph97
Substitution2: "Single Substitution lookup 207 subtable" glyph147
Substitution2: "Single Substitution lookup 202 subtable" glyph177
Substitution2: "Single Substitution lookup 201 subtable" glyph178
Substitution2: "Single Substitution lookup 199 subtable" glyph181
Substitution2: "Single Substitution lookup 197 subtable" glyph187
Substitution2: "Single Substitution lookup 196 subtable" glyph240
Substitution2: "Single Substitution lookup 195 subtable" glyph196
Substitution2: "Single Substitution lookup 194 subtable" glyph221
Substitution2: "Single Substitution lookup 191 subtable" glyph234
Substitution2: "Single Substitution lookup 181 subtable" glyph95
Substitution2: "Single Substitution lookup 180 subtable" glyph240
Substitution2: "Single Substitution lookup 179 subtable" glyph98
Substitution2: "Single Substitution lookup 172 subtable" glyph175
Substitution2: "Single Substitution lookup 165 subtable" glyph186
Substitution2: "Single Substitution lookup 164 subtable" glyph240
Substitution2: "Single Substitution lookup 163 subtable" glyph188
Substitution2: "Single Substitution lookup 161 subtable" glyph240
Substitution2: "Single Substitution lookup 160 subtable" glyph192
Substitution2: "Single Substitution lookup 159 subtable" glyph240
Substitution2: "Single Substitution lookup 158 subtable" glyph195
Substitution2: "Single Substitution lookup 157 subtable" glyph240
Substitution2: "Single Substitution lookup 156 subtable" glyph199
Substitution2: "Single Substitution lookup 155 subtable" glyph207
Substitution2: "Single Substitution lookup 153 subtable" glyph211
Substitution2: "Single Substitution lookup 152 subtable" glyph213
Substitution2: "Single Substitution lookup 150 subtable" glyph202
Substitution2: "Single Substitution lookup 148 subtable" glyph215
Substitution2: "Single Substitution lookup 146 subtable" glyph219
Substitution2: "Single Substitution lookup 142 subtable" glyph227
Substitution2: "Single Substitution lookup 141 subtable" glyph230
Substitution2: "Single Substitution lookup 140 subtable" glyph236
Substitution2: "Single Substitution lookup 139 subtable" glyph173
Substitution2: "Single Substitution lookup 137 subtable" glyph218
EndChar

StartChar: less
Encoding: 60 60 159
Width: 1200
VWidth: 2048
Flags: W
LayerCount: 2
Fore
SplineSet
96 608 m 1,0,-1
 96 810 l 1,1,-1
 1054 1204 l 1,2,-1
 1054 984 l 1,3,-1
 314 718 l 1,4,-1
 314 700 l 1,5,-1
 1054 434 l 1,6,-1
 1054 214 l 1,7,-1
 96 608 l 1,0,-1
EndSplineSet
Substitution2: "Single Substitution lookup 219 subtable" glyph118
Substitution2: "Single Substitution lookup 215 subtable" glyph99
Substitution2: "Single Substitution lookup 194 subtable" glyph240
Substitution2: "Single Substitution lookup 193 subtable" glyph222
Substitution2: "Single Substitution lookup 192 subtable" glyph240
Substitution2: "Single Substitution lookup 191 subtable" glyph240
Substitution2: "Single Substitution lookup 179 subtable" glyph240
Substitution2: "Single Substitution lookup 178 subtable" glyph100
Substitution2: "Single Substitution lookup 176 subtable" glyph110
Substitution2: "Single Substitution lookup 163 subtable" glyph240
Substitution2: "Single Substitution lookup 162 subtable" glyph189
Substitution2: "Single Substitution lookup 155 subtable" glyph240
Substitution2: "Single Substitution lookup 153 subtable" glyph240
Substitution2: "Single Substitution lookup 152 subtable" glyph240
Substitution2: "Single Substitution lookup 150 subtable" glyph240
Substitution2: "Single Substitution lookup 149 subtable" glyph203
Substitution2: "Single Substitution lookup 148 subtable" glyph240
Substitution2: "Single Substitution lookup 146 subtable" glyph240
Substitution2: "Single Substitution lookup 145 subtable" glyph220
Substitution2: "Single Substitution lookup 144 subtable" glyph240
Substitution2: "Single Substitution lookup 143 subtable" glyph225
Substitution2: "Single Substitution lookup 142 subtable" glyph240
Substitution2: "Single Substitution lookup 141 subtable" glyph240
Substitution2: "Single Substitution lookup 139 subtable" glyph240
Substitution2: "Single Substitution lookup 138 subtable" glyph240
Substitution2: "Single Substitution lookup 137 subtable" glyph240
EndChar

StartChar: asciitilde
Encoding: 126 126 160
Width: 1200
VWidth: 2048
Flags: W
LayerCount: 2
Fore
SplineSet
164.5 751.5 m 128,-1,1
 229 836 229 836 360 836 c 0,2,3
 409 836 409 836 457.5 828.5 c 128,-1,4
 506 821 506 821 579 806 c 256,5,6
 652 791 652 791 700.5 783.5 c 128,-1,7
 749 776 749 776 798 776 c 0,8,9
 898 776 898 776 898 940 c 2,10,-1
 898 970 l 1,11,-1
 1100 970 l 1,12,-1
 1100 920 l 2,13,14
 1100 749 1100 749 1045.5 664.5 c 128,-1,15
 991 580 991 580 880 580 c 0,16,17
 829 580 829 580 778.5 587.5 c 128,-1,18
 728 595 728 595 652 610 c 256,19,20
 576 625 576 625 525.5 632.5 c 128,-1,21
 475 640 475 640 424 640 c 0,22,23
 304 640 304 640 304 476 c 2,24,-1
 304 446 l 1,25,-1
 100 446 l 1,26,-1
 100 496 l 2,27,0
 100 667 100 667 164.5 751.5 c 128,-1,1
EndSplineSet
Substitution2: "Single Substitution lookup 225 subtable" glyph235
Substitution2: "Single Substitution lookup 215 subtable" glyph101
Substitution2: "Single Substitution lookup 192 subtable" glyph226
Substitution2: "Single Substitution lookup 191 subtable" glyph240
Substitution2: "Single Substitution lookup 190 subtable" glyph235
Substitution2: "Single Substitution lookup 142 subtable" glyph240
Substitution2: "Single Substitution lookup 141 subtable" glyph228
Substitution2: "Single Substitution lookup 140 subtable" glyph240
EndChar

StartChar: asciicircum
Encoding: 94 94 161
Width: 1200
VWidth: 2048
Flags: W
LayerCount: 2
Fore
SplineSet
464 1420 m 1,0,-1
 734 1420 l 1,1,-1
 994 820 l 1,2,-1
 774 820 l 1,3,-1
 608 1260 l 1,4,-1
 590 1260 l 1,5,-1
 424 820 l 1,6,-1
 204 820 l 1,7,-1
 464 1420 l 1,0,-1
EndSplineSet
Substitution2: "Single Substitution lookup 201 subtable" glyph240
EndChar

StartChar: percent
Encoding: 37 37 162
Width: 1200
VWidth: 2048
Flags: W
LayerCount: 2
Fore
SplineSet
203 834 m 128,-1,1
 132 874 132 874 93 947 c 128,-1,2
 54 1020 54 1020 54 1116 c 0,3,4
 54 1213 54 1213 93 1286.5 c 128,-1,5
 132 1360 132 1360 203 1400 c 128,-1,6
 274 1440 274 1440 368 1440 c 256,7,8
 462 1440 462 1440 532.5 1400.5 c 128,-1,9
 603 1361 603 1361 641.5 1288 c 128,-1,10
 680 1215 680 1215 680 1116 c 0,11,12
 680 1020 680 1020 641 947 c 128,-1,13
 602 874 602 874 531.5 834 c 128,-1,14
 461 794 461 794 368 794 c 0,15,0
 274 794 274 794 203 834 c 128,-1,1
459.5 1004.5 m 128,-1,17
 494 1047 494 1047 494 1116 c 0,18,19
 494 1188 494 1188 459.5 1231 c 128,-1,20
 425 1274 425 1274 368 1274 c 0,21,22
 310 1274 310 1274 275 1231 c 128,-1,23
 240 1188 240 1188 240 1116 c 0,24,25
 240 1047 240 1047 275 1004.5 c 128,-1,26
 310 962 310 962 368 962 c 0,27,16
 425 962 425 962 459.5 1004.5 c 128,-1,17
94 432 m 1,28,-1
 1024 1106 l 1,29,-1
 1116 986 l 1,30,-1
 186 306 l 1,31,-1
 94 432 l 1,28,-1
689 20 m 128,-1,33
 618 60 618 60 579 133 c 128,-1,34
 540 206 540 206 540 302 c 0,35,36
 540 399 540 399 579 472.5 c 128,-1,37
 618 546 618 546 689 586 c 128,-1,38
 760 626 760 626 854 626 c 0,39,40
 947 626 947 626 1018 586 c 128,-1,41
 1089 546 1089 546 1127.5 472.5 c 128,-1,42
 1166 399 1166 399 1166 302 c 0,43,44
 1166 206 1166 206 1127 133 c 128,-1,45
 1088 60 1088 60 1017.5 20 c 128,-1,46
 947 -20 947 -20 854 -20 c 0,47,32
 760 -20 760 -20 689 20 c 128,-1,33
945.5 190.5 m 128,-1,49
 980 233 980 233 980 302 c 0,50,51
 980 373 980 373 945.5 415.5 c 128,-1,52
 911 458 911 458 854 458 c 0,53,54
 796 458 796 458 761 415.5 c 128,-1,55
 726 373 726 373 726 302 c 0,56,57
 726 233 726 233 761 190.5 c 128,-1,58
 796 148 796 148 854 148 c 0,59,48
 911 148 911 148 945.5 190.5 c 128,-1,49
EndSplineSet
Substitution2: "Single Substitution lookup 190 subtable" glyph240
Substitution2: "Single Substitution lookup 189 subtable" glyph238
EndChar

StartChar: at
Encoding: 64 64 164
Width: 1200
VWidth: 2048
Flags: W
LayerCount: 2
Fore
SplineSet
1072 944 m 2,1,-1
 1072 820 l 1,2,-1
 1072 654 l 1,3,-1
 1072 298 l 1,4,-1
 900 298 l 1,5,-1
 900 510 l 1,6,-1
 888 510 l 1,7,8
 870 399 870 399 814.5 338.5 c 128,-1,9
 759 278 759 278 676 278 c 0,10,11
 543 278 543 278 469.5 388.5 c 128,-1,12
 396 499 396 499 396 700 c 0,13,14
 396 919 396 919 468.5 1029.5 c 128,-1,15
 541 1140 541 1140 678 1140 c 0,16,17
 755 1140 755 1140 810.5 1079 c 128,-1,18
 866 1018 866 1018 888 908 c 1,19,-1
 900 908 l 1,20,-1
 900 938 l 2,21,22
 900 1104 900 1104 839.5 1187 c 128,-1,23
 779 1270 779 1270 660 1270 c 0,24,25
 539 1270 539 1270 452.5 1205.5 c 128,-1,26
 366 1141 366 1141 321 1017.5 c 128,-1,27
 276 894 276 894 276 720 c 0,28,29
 276 440 276 440 374.5 300 c 128,-1,30
 473 160 473 160 674 160 c 0,31,32
 837 160 837 160 922 220 c 1,33,-1
 942 40 l 1,34,35
 850 -20 850 -20 674 -20 c 0,36,37
 393 -20 393 -20 250.5 166.5 c 128,-1,38
 108 353 108 353 108 720 c 0,39,40
 108 948 108 948 173 1109.5 c 128,-1,41
 238 1271 238 1271 362 1355.5 c 128,-1,42
 486 1440 486 1440 660 1440 c 0,43,0
 1072 1440 1072 1440 1072 944 c 2,1,-1
856.5 528.5 m 128,-1,45
 900 589 900 589 900 700 c 0,46,47
 900 828 900 828 861.5 889 c 128,-1,48
 823 950 823 950 748 950 c 0,49,50
 576 950 576 950 576 700 c 0,51,52
 576 589 576 589 617.5 528.5 c 128,-1,53
 659 468 659 468 734 468 c 0,54,44
 813 468 813 468 856.5 528.5 c 128,-1,45
EndSplineSet
Substitution2: "Single Substitution lookup 191 subtable" glyph232
EndChar

StartChar: ampersand
Encoding: 38 38 165
Width: 1200
VWidth: 2048
Flags: W
LayerCount: 2
Fore
SplineSet
962 0 m 1,0,-1
 860 116 l 1,1,2
 704 -20 704 -20 462 -20 c 0,3,4
 341 -20 341 -20 249 25 c 128,-1,5
 157 70 157 70 106.5 152.5 c 128,-1,6
 56 235 56 235 56 344 c 0,7,8
 56 483 56 483 131 579.5 c 128,-1,9
 206 676 206 676 345 718 c 1,10,11
 281 809 281 809 251.5 887 c 128,-1,12
 222 965 222 965 222 1042 c 0,13,14
 222 1232 222 1232 328.5 1336 c 128,-1,15
 435 1440 435 1440 630 1440 c 0,16,17
 801 1440 801 1440 895.5 1356.5 c 128,-1,18
 990 1273 990 1273 990 1122 c 1,19,-1
 776 1122 l 1,20,21
 776 1186 776 1186 739 1221 c 128,-1,22
 702 1256 702 1256 634 1256 c 0,23,24
 542 1256 542 1256 492 1199.5 c 128,-1,25
 442 1143 442 1143 442 1040 c 0,26,27
 442 971 442 971 478 903 c 128,-1,28
 514 835 514 835 586 750 c 2,29,-1
 851 438 l 1,30,31
 900 576 900 576 900 766 c 1,32,-1
 1092 766 l 1,33,34
 1092 471 1092 471 988 278 c 1,35,-1
 1224 0 l 1,36,-1
 962 0 l 1,0,-1
737 257 m 1,38,-1
 466 566 l 1,39,-1
 447 588 l 1,40,41
 356 553 356 553 307 492.5 c 128,-1,42
 258 432 258 432 258 354 c 0,43,44
 258 297 258 297 286 254 c 128,-1,45
 314 211 314 211 366 187.5 c 128,-1,46
 418 164 418 164 486 164 c 0,47,37
 636 164 636 164 737 257 c 1,38,-1
EndSplineSet
Substitution2: "Single Substitution lookup 205 subtable" glyph240
Substitution2: "Single Substitution lookup 204 subtable" glyph168
EndChar

StartChar: bar
Encoding: 124 124 166
Width: 1200
VWidth: 2048
Flags: W
LayerCount: 2
Fore
SplineSet
500 1760 m 1,0,-1
 700 1760 l 1,1,-1
 700 -280 l 1,2,-1
 500 -280 l 1,3,-1
 500 1760 l 1,0,-1
EndSplineSet
Substitution2: "Single Substitution lookup 223 subtable" glyph102
Substitution2: "Single Substitution lookup 222 subtable" glyph104
Substitution2: "Single Substitution lookup 217 subtable" glyph96
Substitution2: "Single Substitution lookup 204 subtable" glyph240
Substitution2: "Single Substitution lookup 203 subtable" glyph172
Substitution2: "Single Substitution lookup 202 subtable" glyph240
Substitution2: "Single Substitution lookup 194 subtable" glyph208
Substitution2: "Single Substitution lookup 172 subtable" glyph240
Substitution2: "Single Substitution lookup 155 subtable" glyph240
Substitution2: "Single Substitution lookup 154 subtable" glyph209
Substitution2: "Single Substitution lookup 153 subtable" glyph240
Substitution2: "Single Substitution lookup 139 subtable" glyph240
Substitution2: "Single Substitution lookup 138 subtable" glyph210
EndChar

StartChar: glyph167
Encoding: 65602 -1 167
Width: 1200
VWidth: 2048
Flags: W
LayerCount: 2
Fore
SplineSet
1072 884 m 2,1,-1
 1072 760 l 1,2,-1
 1072 454 l 1,3,-1
 1072 0 l 1,4,-1
 900 0 l 1,5,-1
 900 212 l 1,6,-1
 888 212 l 1,7,8
 870 101 870 101 814.5 40.5 c 128,-1,9
 759 -20 759 -20 676 -20 c 0,10,11
 587 -20 587 -20 524.5 41 c 128,-1,12
 462 102 462 102 429 219 c 128,-1,13
 396 336 396 336 396 500 c 0,14,15
 396 789 396 789 474 934.5 c 128,-1,16
 552 1080 552 1080 698 1080 c 0,17,18
 767 1080 767 1080 817 1019.5 c 128,-1,19
 867 959 867 959 888 848 c 1,20,-1
 900 848 l 1,21,-1
 900 878 l 2,22,23
 900 1044 900 1044 839.5 1127 c 128,-1,24
 779 1210 779 1210 660 1210 c 0,25,26
 539 1210 539 1210 452.5 1129 c 128,-1,27
 366 1048 366 1048 321 893 c 128,-1,28
 276 738 276 738 276 520 c 0,29,30
 276 191 276 191 384 26.5 c 128,-1,31
 492 -138 492 -138 714 -138 c 0,32,33
 867 -138 867 -138 942 -90 c 1,34,-1
 962 -270 l 1,35,36
 881 -318 881 -318 714 -318 c 0,37,38
 414 -318 414 -318 261 -107 c 128,-1,39
 108 104 108 104 108 520 c 0,40,41
 108 792 108 792 173 985 c 128,-1,42
 238 1178 238 1178 362 1279 c 128,-1,43
 486 1380 486 1380 660 1380 c 0,44,0
 1072 1380 1072 1380 1072 884 c 2,1,-1
856.5 256 m 128,-1,46
 900 342 900 342 900 500 c 0,47,48
 900 890 900 890 748 890 c 0,49,50
 576 890 576 890 576 500 c 0,51,52
 576 343 576 343 617.5 256.5 c 128,-1,53
 659 170 659 170 734 170 c 0,54,45
 813 170 813 170 856.5 256 c 128,-1,46
EndSplineSet
EndChar

StartChar: glyph168
Encoding: 65603 -1 168
Width: 1200
VWidth: 2048
Flags: W
LayerCount: 2
Fore
SplineSet
-198 272 m 1,1,-1
 -26 0 l 1,2,-1
 -258 0 l 1,3,-1
 -319 95 l 1,4,5
 -443 -20 -443 -20 -648 -20 c 0,6,7
 -1014 -20 -1014 -20 -1014 344 c 0,8,9
 -1014 674 -1014 674 -728 735 c 1,10,11
 -805 857 -805 857 -845.5 945 c 128,-1,12
 -886 1033 -886 1033 -886 1102 c 0,13,14
 -886 1263 -886 1263 -792.5 1351.5 c 128,-1,15
 -699 1440 -699 1440 -530 1440 c 0,16,17
 -359 1440 -359 1440 -264.5 1356.5 c 128,-1,18
 -170 1273 -170 1273 -170 1122 c 1,19,-1
 -384 1122 l 1,20,21
 -384 1186 -384 1186 -421 1221 c 128,-1,22
 -458 1256 -458 1256 -526 1256 c 0,23,24
 -592 1256 -592 1256 -629 1215.5 c 128,-1,25
 -666 1175 -666 1175 -666 1100 c 0,26,27
 -666 1049 -666 1049 -642.5 992 c 128,-1,28
 -619 935 -619 935 -578 870 c 2,29,-1
 -325 472 l 1,30,31
 -300 593 -300 593 -300 766 c 1,32,-1
 -118 766 l 1,33,0
 -118 459 -118 459 -198 272 c 1,1,-1
762 0 m 1,34,-1
 703 93 l 1,35,36
 580 -20 580 -20 372 -20 c 0,37,38
 6 -20 6 -20 6 344 c 0,39,40
 6 674 6 674 292 735 c 1,41,42
 213 861 213 861 173.5 945 c 128,-1,43
 134 1029 134 1029 134 1102 c 0,44,45
 134 1263 134 1263 227.5 1351.5 c 128,-1,46
 321 1440 321 1440 490 1440 c 0,47,48
 850 1440 850 1440 850 1122 c 1,49,-1
 636 1122 l 1,50,51
 636 1186 636 1186 599 1221 c 128,-1,52
 562 1256 562 1256 494 1256 c 0,53,54
 428 1256 428 1256 391 1215.5 c 128,-1,55
 354 1175 354 1175 354 1100 c 0,56,57
 354 1048 354 1048 378 990.5 c 128,-1,58
 402 933 402 933 442 870 c 2,59,-1
 695 472 l 1,60,61
 720 593 720 593 720 766 c 1,62,-1
 902 766 l 1,63,64
 902 455 902 455 823 269 c 1,65,-1
 994 0 l 1,66,-1
 762 0 l 1,34,-1
-418 250 m 1,68,-1
 -644 603 l 1,69,70
 -812 539 -812 539 -812 354 c 0,71,72
 -812 154 -812 154 -624 154 c 0,73,67
 -494 154 -494 154 -418 250 c 1,68,-1
602 250 m 1,75,-1
 376 603 l 1,76,77
 208 539 208 539 208 354 c 0,78,79
 208 154 208 154 396 154 c 0,80,74
 524 154 524 154 602 250 c 1,75,-1
EndSplineSet
EndChar

StartChar: glyph169
Encoding: 65604 -1 169
Width: 1200
VWidth: 2048
Flags: W
LayerCount: 2
Fore
SplineSet
920 802 m 1,0,-1
 920 616 l 1,1,-1
 -546 616 l 1,2,-1
 -546 -280 l 1,3,-1
 -746 -280 l 1,4,-1
 -746 1760 l 1,5,-1
 -546 1760 l 1,6,-1
 -546 802 l 1,7,-1
 920 802 l 1,0,-1
EndSplineSet
EndChar

StartChar: glyph170
Encoding: 65605 -1 170
Width: 1200
VWidth: 2048
Flags: W
LayerCount: 2
Fore
SplineSet
-700 -280 m 1,0,-1
 -700 1760 l 1,1,-1
 -500 1760 l 1,2,-1
 -500 -280 l 1,3,-1
 -700 -280 l 1,0,-1
769 872.5 m 128,-1,5
 808 840 808 840 862.5 822 c 128,-1,6
 917 804 917 804 960 804 c 1,7,-1
 960 646 l 1,8,9
 912 646 912 646 859 632 c 128,-1,10
 806 618 806 618 768 586 c 128,-1,11
 730 554 730 554 730 502 c 2,12,-1
 731 361 l 2,13,14
 732 316 732 316 732 226 c 0,15,16
 732 88 732 88 664.5 -11 c 128,-1,17
 597 -110 597 -110 468.5 -162 c 128,-1,18
 340 -214 340 -214 160 -214 c 0,19,20
 10 -214 10 -214 -100 -194 c 1,21,-1
 -76 -24 l 1,22,23
 57 -44 57 -44 142 -44 c 0,24,25
 324 -44 324 -44 421 26 c 128,-1,26
 518 96 518 96 518 226 c 0,27,28
 518 297 518 297 515 366 c 0,29,30
 514 389 514 389 513 435 c 128,-1,31
 512 481 512 481 512 518 c 0,32,33
 512 607 512 607 562 657.5 c 128,-1,34
 612 708 612 708 702 708 c 1,35,-1
 702 742 l 1,36,37
 612 742 612 742 562 791.5 c 128,-1,38
 512 841 512 841 512 932 c 0,39,40
 512 967 512 967 513 1011 c 128,-1,41
 514 1055 514 1055 515 1078 c 0,42,43
 518 1150 518 1150 518 1224 c 0,44,45
 518 1345 518 1345 421 1410.5 c 128,-1,46
 324 1476 324 1476 142 1476 c 0,47,48
 57 1476 57 1476 -76 1456 c 1,49,-1
 -100 1626 l 1,50,51
 10 1646 10 1646 160 1646 c 0,52,53
 340 1646 340 1646 468.5 1596.5 c 128,-1,54
 597 1547 597 1547 664.5 1452.5 c 128,-1,55
 732 1358 732 1358 732 1224 c 0,56,57
 732 1136 732 1136 731 1092 c 2,58,-1
 730 948 l 2,59,4
 730 905 730 905 769 872.5 c 128,-1,5
EndSplineSet
EndChar

StartChar: glyph171
Encoding: 65606 -1 171
Width: 1200
VWidth: 2048
Flags: W
LayerCount: 2
Fore
SplineSet
-654 -200 m 1,0,-1
 -654 1620 l 1,1,-1
 -454 1620 l 1,2,-1
 -454 -200 l 1,3,-1
 -654 -200 l 1,0,-1
654 1620 m 1,4,-1
 654 -200 l 1,5,-1
 -114 -200 l 1,6,-1
 -114 -24 l 1,7,-1
 452 -24 l 1,8,-1
 452 1444 l 1,9,-1
 -114 1444 l 1,10,-1
 -114 1620 l 1,11,-1
 654 1620 l 1,4,-1
EndSplineSet
EndChar

StartChar: glyph173
Encoding: 65608 -1 173
Width: 1200
VWidth: 2048
Flags: W
LayerCount: 2
Fore
SplineSet
-2744 -280 m 1,0,-1
 -2744 1760 l 1,1,-1
 -2544 1760 l 1,2,-1
 -2544 -280 l 1,3,-1
 -2744 -280 l 1,0,-1
-1744 -280 m 1,4,-1
 -1744 1760 l 1,5,-1
 -1544 1760 l 1,6,-1
 -1544 -280 l 1,7,-1
 -1744 -280 l 1,4,-1
-804 1430 m 1,8,-1
 700 810 l 1,9,-1
 700 608 l 1,10,-1
 -804 -10 l 1,11,-1
 -804 1430 l 1,8,-1
442 700 m 1,12,-1
 442 718 l 1,13,-1
 -604 1114 l 1,14,-1
 -604 305 l 1,15,-1
 442 700 l 1,12,-1
EndSplineSet
EndChar

StartChar: glyph174
Encoding: 65609 -1 174
Width: 1200
VWidth: 2048
Flags: W
LayerCount: 2
Fore
SplineSet
-1680 -280 m 1,0,-1
 -1680 1760 l 1,1,-1
 -1480 1760 l 1,2,-1
 -1480 -280 l 1,3,-1
 -1680 -280 l 1,0,-1
920 866 m 1,4,-1
 -700 866 l 1,5,-1
 -700 552 l 1,6,-1
 920 552 l 1,7,-1
 920 366 l 1,8,-1
 -700 366 l 1,9,-1
 -700 -280 l 1,10,-1
 -900 -280 l 1,11,-1
 -900 1760 l 1,12,-1
 -700 1760 l 1,13,-1
 -700 1052 l 1,14,-1
 920 1052 l 1,15,-1
 920 866 l 1,4,-1
EndSplineSet
EndChar

StartChar: glyph175
Encoding: 65610 -1 175
Width: 1200
VWidth: 2048
Flags: W
LayerCount: 2
Fore
SplineSet
-1640 -280 m 1,0,-1
 -1640 1760 l 1,1,-1
 -1440 1760 l 1,2,-1
 -1440 -280 l 1,3,-1
 -1640 -280 l 1,0,-1
-849 1430 m 1,4,-1
 655 810 l 1,5,-1
 655 608 l 1,6,-1
 -849 -10 l 1,7,-1
 -849 1430 l 1,4,-1
397 700 m 1,8,-1
 397 718 l 1,9,-1
 -649 1114 l 1,10,-1
 -649 305 l 1,11,-1
 397 700 l 1,8,-1
EndSplineSet
EndChar

StartChar: glyph176
Encoding: 65611 -1 176
Width: 1200
VWidth: 2048
Flags: W
LayerCount: 2
Fore
SplineSet
920 866 m 1,0,-1
 -546 866 l 1,1,-1
 -546 552 l 1,2,-1
 920 552 l 1,3,-1
 920 366 l 1,4,-1
 -546 366 l 1,5,-1
 -546 -280 l 1,6,-1
 -746 -280 l 1,7,-1
 -746 1760 l 1,8,-1
 -546 1760 l 1,9,-1
 -546 1052 l 1,10,-1
 920 1052 l 1,11,-1
 920 866 l 1,0,-1
EndSplineSet
EndChar

StartChar: glyph177
Encoding: 65612 -1 177
Width: 1200
VWidth: 2048
Flags: W
LayerCount: 2
Fore
SplineSet
-659 1430 m 1,0,-1
 845 810 l 1,1,-1
 845 608 l 1,2,-1
 -659 -10 l 1,3,-1
 -659 1430 l 1,0,-1
587 700 m 1,4,-1
 587 718 l 1,5,-1
 -459 1114 l 1,6,-1
 -459 305 l 1,7,-1
 587 700 l 1,4,-1
EndSplineSet
EndChar

StartChar: glyph178
Encoding: 65613 -1 178
Width: 1200
VWidth: 2048
Flags: W
LayerCount: 2
Fore
SplineSet
965 810 m 1,0,-1
 965 608 l 1,1,-1
 7 214 l 1,2,-1
 7 434 l 1,3,-1
 707 700 l 1,4,-1
 707 718 l 1,5,-1
 -458 1204 l 1,6,-1
 -458 796 l 1,7,-1
 -408 772 l 2,8,9
 -244 695 -244 695 -165 600.5 c 128,-1,10
 -86 506 -86 506 -86 366 c 0,11,12
 -86 195 -86 195 -178.5 98.5 c 128,-1,13
 -271 2 -271 2 -458 -22 c 1,14,-1
 -458 -334 l 1,15,-1
 -596 -334 l 1,16,-1
 -596 -30 l 1,17,18
 -836 -30 -836 -30 -1014 48 c 1,19,-1
 -988 242 l 1,20,21
 -777 158 -777 158 -596 154 c 1,22,-1
 -596 624 l 1,23,-1
 -676 660 l 2,24,25
 -826 728 -826 728 -901 822 c 128,-1,26
 -976 916 -976 916 -976 1050 c 0,27,28
 -976 1220 -976 1220 -877.5 1320 c 128,-1,29
 -779 1420 -779 1420 -596 1437 c 1,30,-1
 -596 1720 l 1,31,-1
 -458 1720 l 1,32,-1
 -458 1418 l 1,33,-1
 965 810 l 1,0,-1
-596 861 m 1,34,-1
 -596 1250 l 1,35,36
 -676 1235 -676 1235 -719 1186 c 128,-1,37
 -762 1137 -762 1137 -762 1060 c 0,38,39
 -762 993 -762 993 -726.5 949.5 c 128,-1,40
 -691 906 -691 906 -616 870 c 2,41,-1
 -596 861 l 1,34,-1
-458 561 m 1,42,-1
 -458 166 l 1,43,44
 -300 203 -300 203 -300 362 c 0,45,46
 -300 489 -300 489 -430 548 c 2,47,-1
 -458 561 l 1,42,-1
EndSplineSet
EndChar

StartChar: glyph179
Encoding: 65614 -1 179
Width: 1200
VWidth: 2048
Flags: W
LayerCount: 2
Fore
SplineSet
960 803 m 1,0,-1
 960 617 l 1,1,-1
 556 617 l 1,2,-1
 556 190 l 1,3,-1
 364 190 l 1,4,-1
 364 617 l 1,5,-1
 -364 617 l 1,6,-1
 -364 190 l 1,7,-1
 -556 190 l 1,8,-1
 -556 617 l 1,9,-1
 -960 617 l 1,10,-1
 -960 803 l 1,11,-1
 -556 803 l 1,12,-1
 -556 1228 l 1,13,-1
 -364 1228 l 1,14,-1
 -364 803 l 1,15,-1
 364 803 l 1,16,-1
 364 1228 l 1,17,-1
 556 1228 l 1,18,-1
 556 803 l 1,19,-1
 960 803 l 1,0,-1
EndSplineSet
EndChar

StartChar: glyph180
Encoding: 65615 -1 180
Width: 1200
VWidth: 2048
Flags: W
LayerCount: 2
Fore
SplineSet
920 803 m 1,0,-1
 920 617 l 1,1,-1
 516 617 l 1,2,-1
 516 190 l 1,3,-1
 324 190 l 1,4,-1
 324 617 l 1,5,-1
 286 617 l 1,6,-1
 286 616 l 1,7,-1
 -398 616 l 1,8,-1
 -398 617 l 1,9,-1
 -504 617 l 1,10,-1
 -504 190 l 1,11,-1
 -696 190 l 1,12,-1
 -696 617 l 1,13,-1
 -754 617 l 1,14,-1
 -754 616 l 1,15,-1
 -1438 616 l 1,16,-1
 -1438 617 l 1,17,-1
 -1524 617 l 1,18,-1
 -1524 190 l 1,19,-1
 -1716 190 l 1,20,-1
 -1716 617 l 1,21,-1
 -2120 617 l 1,22,-1
 -2120 803 l 1,23,-1
 -1716 803 l 1,24,-1
 -1716 1228 l 1,25,-1
 -1524 1228 l 1,26,-1
 -1524 803 l 1,27,-1
 -1120 803 l 1,28,-1
 -1120 802 l 1,29,-1
 -1100 802 l 1,30,-1
 -1100 803 l 1,31,-1
 -696 803 l 1,32,-1
 -696 1228 l 1,33,-1
 -504 1228 l 1,34,-1
 -504 803 l 1,35,-1
 -100 803 l 1,36,-1
 -100 802 l 1,37,-1
 -80 802 l 1,38,-1
 -80 803 l 1,39,-1
 324 803 l 1,40,-1
 324 1228 l 1,41,-1
 516 1228 l 1,42,-1
 516 803 l 1,43,-1
 920 803 l 1,0,-1
EndSplineSet
EndChar

StartChar: glyph184
Encoding: 65619 -1 184
Width: 1200
VWidth: 2048
Flags: W
LayerCount: 2
Fore
SplineSet
-920 1052 m 1,0,-1
 920 1052 l 1,1,-1
 920 866 l 1,2,-1
 -920 866 l 1,3,-1
 -920 1052 l 1,0,-1
-920 552 m 1,4,-1
 920 552 l 1,5,-1
 920 366 l 1,6,-1
 -920 366 l 1,7,-1
 -920 552 l 1,4,-1
EndSplineSet
EndChar

StartChar: glyph185
Encoding: 65620 -1 185
Width: 1200
VWidth: 2048
Flags: W
LayerCount: 2
Fore
SplineSet
-2120 1212 m 1,0,-1
 920 1212 l 1,1,-1
 920 1026 l 1,2,-1
 -2120 1026 l 1,3,-1
 -2120 1212 l 1,0,-1
-2120 802 m 1,4,-1
 920 802 l 1,5,-1
 920 616 l 1,6,-1
 -2120 616 l 1,7,-1
 -2120 802 l 1,4,-1
-2120 392 m 1,8,-1
 920 392 l 1,9,-1
 920 206 l 1,10,-1
 -2120 206 l 1,11,-1
 -2120 392 l 1,8,-1
EndSplineSet
EndChar

StartChar: glyph186
Encoding: 65621 -1 186
Width: 1200
VWidth: 2048
Flags: W
LayerCount: 2
Fore
SplineSet
6 1304 m 1,0,-1
 960 770 l 1,1,-1
 960 648 l 1,2,-1
 6 112 l 1,3,-1
 6 332 l 1,4,-1
 206 362 l 1,5,-1
 206 386 l 1,6,-1
 -2120 386 l 1,7,-1
 -2120 572 l 1,8,-1
 436 572 l 1,9,-1
 666 700 l 1,10,-1
 666 718 l 1,11,-1
 445 846 l 1,12,-1
 -2120 846 l 1,13,-1
 -2120 1032 l 1,14,-1
 210 1032 l 1,15,-1
 210 1052 l 1,16,-1
 6 1084 l 1,17,-1
 6 1304 l 1,0,-1
EndSplineSet
EndChar

StartChar: glyph187
Encoding: 65622 -1 187
Width: 1200
VWidth: 2048
Flags: W
LayerCount: 2
Fore
SplineSet
6 1304 m 1,0,-1
 960 770 l 1,1,-1
 960 648 l 1,2,-1
 6 112 l 1,3,-1
 6 332 l 1,4,-1
 206 362 l 1,5,-1
 206 386 l 1,6,-1
 -920 386 l 1,7,-1
 -920 572 l 1,8,-1
 436 572 l 1,9,-1
 666 700 l 1,10,-1
 666 718 l 1,11,-1
 445 846 l 1,12,-1
 -920 846 l 1,13,-1
 -920 1032 l 1,14,-1
 210 1032 l 1,15,-1
 210 1052 l 1,16,-1
 6 1084 l 1,17,-1
 6 1304 l 1,0,-1
EndSplineSet
EndChar

StartChar: glyph188
Encoding: 65623 -1 188
Width: 1200
VWidth: 2048
Flags: W
LayerCount: 2
Fore
SplineSet
-714 332 m 1,0,-1
 -514 362 l 1,1,-1
 -514 386 l 1,2,-1
 -2120 386 l 1,3,-1
 -2120 572 l 1,4,-1
 -284 572 l 1,5,-1
 -54 700 l 1,6,-1
 -54 718 l 1,7,-1
 -275 846 l 1,8,-1
 -2120 846 l 1,9,-1
 -2120 1032 l 1,10,-1
 -510 1032 l 1,11,-1
 -510 1052 l 1,12,-1
 -714 1084 l 1,13,-1
 -714 1304 l 1,14,-1
 240 770 l 1,15,-1
 240 648 l 1,16,-1
 -714 112 l 1,17,-1
 -714 332 l 1,0,-1
6 1304 m 1,18,-1
 960 770 l 1,19,-1
 960 648 l 1,20,-1
 6 112 l 1,21,-1
 6 332 l 1,22,-1
 666 700 l 1,23,-1
 666 718 l 1,24,-1
 6 1084 l 1,25,-1
 6 1304 l 1,18,-1
EndSplineSet
EndChar

StartChar: glyph189
Encoding: 65624 -1 189
Width: 1200
VWidth: 2048
Flags: W
LayerCount: 2
Fore
SplineSet
100 1084 m 1,0,-1
 -292 866 l 1,1,-1
 -2120 866 l 1,2,-1
 -2120 1052 l 1,3,-1
 -346 1052 l 1,4,-1
 100 1304 l 1,5,-1
 100 1084 l 1,0,-1
920 1084 m 1,6,-1
 260 718 l 1,7,-1
 260 700 l 1,8,-1
 920 332 l 1,9,-1
 920 112 l 1,10,-1
 -34 648 l 1,11,-1
 -34 770 l 1,12,-1
 920 1304 l 1,13,-1
 920 1084 l 1,6,-1
-2120 552 m 1,14,-1
 -292 552 l 1,15,-1
 100 332 l 1,16,-1
 100 112 l 1,17,-1
 -350 366 l 1,18,-1
 -2120 366 l 1,19,-1
 -2120 552 l 1,14,-1
EndSplineSet
EndChar

StartChar: glyph190
Encoding: 65625 -1 190
Width: 1200
VWidth: 2048
Flags: W
LayerCount: 2
Fore
SplineSet
920 866 m 1,0,-1
 -429 866 l 1,1,-1
 -586 552 l 1,2,-1
 920 552 l 1,3,-1
 920 366 l 1,4,-1
 -680 366 l 1,5,-1
 -914 -100 l 1,6,-1
 -1116 -100 l 1,7,-1
 -882 366 l 1,8,-1
 -2120 366 l 1,9,-1
 -2120 552 l 1,10,-1
 -788 552 l 1,11,-1
 -631 866 l 1,12,-1
 -2120 866 l 1,13,-1
 -2120 1052 l 1,14,-1
 -537 1052 l 1,15,-1
 -302 1520 l 1,16,-1
 -100 1520 l 1,17,-1
 -335 1052 l 1,18,-1
 920 1052 l 1,19,-1
 920 866 l 1,0,-1
EndSplineSet
EndChar

StartChar: glyph191
Encoding: 65626 -1 191
Width: 1200
VWidth: 2048
Flags: W
LayerCount: 2
Fore
SplineSet
920 802 m 1,0,-1
 920 614 l 1,1,-1
 -27 614 l 1,2,-1
 -920 112 l 1,3,-1
 -920 332 l 1,4,-1
 -260 700 l 1,5,-1
 -260 718 l 1,6,-1
 -920 1084 l 1,7,-1
 -920 1304 l 1,8,-1
 -23 802 l 1,9,-1
 920 802 l 1,0,-1
EndSplineSet
EndChar

StartChar: glyph192
Encoding: 65627 -1 192
Width: 1200
VWidth: 2048
Flags: W
LayerCount: 2
Fore
SplineSet
960 770 m 1,0,-1
 960 648 l 1,1,-1
 6 112 l 1,2,-1
 6 352 l 1,3,-1
 275 458 l 2,4,5
 448 527 448 527 504.5 547.5 c 128,-1,6
 561 568 561 568 588 570 c 1,7,-1
 588 614 l 1,8,-1
 -1227 614 l 1,9,-1
 -2120 112 l 1,10,-1
 -2120 332 l 1,11,-1
 -1460 700 l 1,12,-1
 -1460 718 l 1,13,-1
 -2120 1084 l 1,14,-1
 -2120 1304 l 1,15,-1
 -1223 802 l 1,16,-1
 588 802 l 1,17,-1
 588 846 l 1,18,19
 540 850 540 850 421 892.5 c 128,-1,20
 302 935 302 935 6 1064 c 1,21,-1
 6 1304 l 1,22,-1
 960 770 l 1,0,-1
EndSplineSet
EndChar

StartChar: glyph194
Encoding: 65629 -1 194
Width: 1200
VWidth: 2048
Flags: W
LayerCount: 2
Fore
SplineSet
-704 704 m 1,0,-1
 422 920 l 1,1,-1
 422 938 l 1,2,-1
 -704 1154 l 1,3,-1
 -704 1384 l 1,4,-1
 800 1030 l 1,5,-1
 800 828 l 1,6,-1
 -704 474 l 1,7,-1
 -704 704 l 1,0,-1
-704 214 m 1,8,-1
 800 588 l 1,9,-1
 800 378 l 1,10,-1
 -704 4 l 1,11,-1
 -704 214 l 1,8,-1
EndSplineSet
EndChar

StartChar: glyph195
Encoding: 65630 -1 195
Width: 1200
VWidth: 2048
Flags: W
LayerCount: 2
Fore
SplineSet
6 1304 m 1,0,-1
 960 770 l 1,1,-1
 960 648 l 1,2,-1
 6 112 l 1,3,-1
 6 332 l 1,4,-1
 206 362 l 1,5,-1
 206 386 l 1,6,-1
 -1635 386 l 1,7,-1
 -2120 112 l 1,8,-1
 -2120 332 l 1,9,-1
 -1728 562 l 1,10,-1
 418 562 l 1,11,-1
 666 700 l 1,12,-1
 666 718 l 1,13,-1
 428 856 l 1,14,-1
 -1728 856 l 1,15,-1
 -2120 1084 l 1,16,-1
 -2120 1304 l 1,17,-1
 -1638 1032 l 1,18,-1
 210 1032 l 1,19,-1
 210 1052 l 1,20,-1
 6 1084 l 1,21,-1
 6 1304 l 1,0,-1
EndSplineSet
EndChar

StartChar: glyph196
Encoding: 65631 -1 196
Width: 1200
VWidth: 2048
Flags: W
LayerCount: 2
Fore
SplineSet
-920 394 m 1,0,-1
 -220 700 l 1,1,-1
 -220 718 l 1,2,-1
 -920 1024 l 1,3,-1
 -920 1244 l 1,4,-1
 38 810 l 1,5,-1
 38 608 l 1,6,-1
 -920 174 l 1,7,-1
 -920 394 l 1,0,-1
2 394 m 1,8,-1
 702 700 l 1,9,-1
 702 718 l 1,10,-1
 2 1024 l 1,11,-1
 2 1244 l 1,12,-1
 960 810 l 1,13,-1
 960 608 l 1,14,-1
 2 174 l 1,15,-1
 2 394 l 1,8,-1
EndSplineSet
EndChar

StartChar: glyph197
Encoding: 65632 -1 197
Width: 1200
VWidth: 2048
Flags: W
LayerCount: 2
Fore
SplineSet
-1166 770 m 1,0,-1
 -1166 648 l 1,1,-1
 -2120 112 l 1,2,-1
 -2120 332 l 1,3,-1
 -1460 700 l 1,4,-1
 -1460 718 l 1,5,-1
 -2120 1084 l 1,6,-1
 -2120 1304 l 1,7,-1
 -1166 770 l 1,0,-1
920 802 m 1,8,-1
 920 614 l 1,9,-1
 -388 614 l 1,10,-1
 -1300 112 l 1,11,-1
 -1300 332 l 1,12,-1
 -640 700 l 1,13,-1
 -640 718 l 1,14,-1
 -1300 1084 l 1,15,-1
 -1300 1304 l 1,16,-1
 -384 802 l 1,17,-1
 920 802 l 1,8,-1
EndSplineSet
EndChar

StartChar: glyph198
Encoding: 65633 -1 198
Width: 1200
VWidth: 2048
Flags: W
LayerCount: 2
Fore
SplineSet
-1166 770 m 1,0,-1
 -1166 648 l 1,1,-1
 -2120 112 l 1,2,-1
 -2120 332 l 1,3,-1
 -1460 700 l 1,4,-1
 -1460 718 l 1,5,-1
 -2120 1084 l 1,6,-1
 -2120 1304 l 1,7,-1
 -1166 770 l 1,0,-1
-854 1052 m 1,8,-1
 920 1052 l 1,9,-1
 920 866 l 1,10,-1
 -908 866 l 1,11,-1
 -1300 1084 l 1,12,-1
 -1300 1304 l 1,13,-1
 -854 1052 l 1,8,-1
-1300 332 m 1,14,-1
 -908 552 l 1,15,-1
 920 552 l 1,16,-1
 920 366 l 1,17,-1
 -850 366 l 1,18,-1
 -1300 112 l 1,19,-1
 -1300 332 l 1,14,-1
EndSplineSet
EndChar

StartChar: glyph200
Encoding: 65635 -1 200
Width: 1200
VWidth: 2048
Flags: W
LayerCount: 2
Fore
SplineSet
-588 614 m 1,0,-1
 -588 570 l 1,1,2
 -561 568 -561 568 -504.5 547.5 c 128,-1,3
 -448 527 -448 527 -275 458 c 2,4,-1
 -6 352 l 1,5,-1
 -6 112 l 1,6,-1
 -960 648 l 1,7,-1
 -960 770 l 1,8,-1
 -6 1304 l 1,9,-1
 -6 1064 l 1,10,11
 -302 935 -302 935 -421 892.5 c 128,-1,12
 -540 850 -540 850 -588 846 c 1,13,-1
 -588 802 l 1,14,-1
 920 802 l 1,15,-1
 920 614 l 1,16,-1
 -588 614 l 1,0,-1
EndSplineSet
EndChar

StartChar: glyph201
Encoding: 65636 -1 201
Width: 1200
VWidth: 2048
Flags: W
LayerCount: 2
Fore
SplineSet
-1788 614 m 1,0,-1
 -1788 570 l 1,1,2
 -1761 568 -1761 568 -1704.5 547.5 c 128,-1,3
 -1648 527 -1648 527 -1475 458 c 2,4,-1
 -1206 352 l 1,5,-1
 -1206 112 l 1,6,-1
 -2160 648 l 1,7,-1
 -2160 770 l 1,8,-1
 -1206 1304 l 1,9,-1
 -1206 1064 l 1,10,11
 -1502 935 -1502 935 -1621 892.5 c 128,-1,12
 -1740 850 -1740 850 -1788 846 c 1,13,-1
 -1788 802 l 1,14,-1
 920 802 l 1,15,-1
 920 614 l 1,16,-1
 -1788 614 l 1,0,-1
EndSplineSet
EndChar

StartChar: glyph202
Encoding: 65637 -1 202
Width: 1200
VWidth: 2048
Flags: W
LayerCount: 2
Fore
SplineSet
960 770 m 1,0,-1
 960 648 l 1,1,-1
 6 112 l 1,2,-1
 6 352 l 1,3,-1
 275 458 l 2,4,5
 448 527 448 527 504.5 547.5 c 128,-1,6
 561 568 561 568 588 570 c 1,7,-1
 588 614 l 1,8,-1
 -1788 614 l 1,9,-1
 -1788 570 l 1,10,11
 -1761 568 -1761 568 -1704.5 547.5 c 128,-1,12
 -1648 527 -1648 527 -1475 458 c 2,13,-1
 -1206 352 l 1,14,-1
 -1206 112 l 1,15,-1
 -2160 648 l 1,16,-1
 -2160 770 l 1,17,-1
 -1206 1304 l 1,18,-1
 -1206 1064 l 1,19,20
 -1502 935 -1502 935 -1621 892.5 c 128,-1,21
 -1740 850 -1740 850 -1788 846 c 1,22,-1
 -1788 802 l 1,23,-1
 588 802 l 1,24,-1
 588 846 l 1,25,26
 540 850 540 850 421 892.5 c 128,-1,27
 302 935 302 935 6 1064 c 1,28,-1
 6 1304 l 1,29,-1
 960 770 l 1,0,-1
EndSplineSet
EndChar

StartChar: glyph203
Encoding: 65638 -1 203
Width: 1200
VWidth: 2048
Flags: W
LayerCount: 2
Fore
SplineSet
280 718 m 1,0,-1
 280 700 l 1,1,-1
 920 352 l 1,2,-1
 920 112 l 1,3,-1
 27 614 l 1,4,-1
 -1788 614 l 1,5,-1
 -1788 570 l 1,6,7
 -1761 568 -1761 568 -1704.5 547.5 c 128,-1,8
 -1648 527 -1648 527 -1475 458 c 2,9,-1
 -1206 352 l 1,10,-1
 -1206 112 l 1,11,-1
 -2160 648 l 1,12,-1
 -2160 770 l 1,13,-1
 -1206 1304 l 1,14,-1
 -1206 1064 l 1,15,16
 -1502 935 -1502 935 -1621 892.5 c 128,-1,17
 -1740 850 -1740 850 -1788 846 c 1,18,-1
 -1788 802 l 1,19,-1
 23 802 l 1,20,-1
 920 1304 l 1,21,-1
 920 1064 l 1,22,-1
 280 718 l 1,0,-1
EndSplineSet
EndChar

StartChar: glyph205
Encoding: 65640 -1 205
Width: 1200
VWidth: 2048
Flags: W
LayerCount: 2
Fore
SplineSet
-1546 456 m 1,0,-1
 -1738 456 l 1,1,-1
 -1744 1430 l 1,2,-1
 -1536 1430 l 1,3,-1
 -1546 456 l 1,0,-1
-2988 802 m 1,4,-1
 -2002 802 l 1,5,-1
 -2002 614 l 1,6,-1
 -2988 614 l 1,7,-1
 -2988 570 l 1,8,9
 -2961 568 -2961 568 -2904.5 547.5 c 128,-1,10
 -2848 527 -2848 527 -2675 458 c 2,11,-1
 -2406 352 l 1,12,-1
 -2406 112 l 1,13,-1
 -3360 648 l 1,14,-1
 -3360 770 l 1,15,-1
 -2406 1304 l 1,16,-1
 -2406 1064 l 1,17,18
 -2702 935 -2702 935 -2821 892.5 c 128,-1,19
 -2940 850 -2940 850 -2988 846 c 1,20,-1
 -2988 802 l 1,4,-1
-1282 802 m 1,21,-1
 920 802 l 1,22,-1
 920 614 l 1,23,-1
 -1282 614 l 1,24,-1
 -1282 802 l 1,21,-1
-1566 256 m 128,-1,26
 -1532 236 -1532 236 -1512 202 c 128,-1,27
 -1492 168 -1492 168 -1492 128 c 256,28,29
 -1492 88 -1492 88 -1512 54 c 128,-1,30
 -1532 20 -1532 20 -1566 0 c 128,-1,31
 -1600 -20 -1600 -20 -1640 -20 c 256,32,33
 -1680 -20 -1680 -20 -1714 0 c 128,-1,34
 -1748 20 -1748 20 -1768 54 c 128,-1,35
 -1788 88 -1788 88 -1788 128 c 256,36,37
 -1788 168 -1788 168 -1768 202 c 128,-1,38
 -1748 236 -1748 236 -1714 256 c 128,-1,39
 -1680 276 -1680 276 -1640 276 c 256,40,25
 -1600 276 -1600 276 -1566 256 c 128,-1,26
EndSplineSet
EndChar

StartChar: glyph208
Encoding: 65643 -1 208
Width: 1200
VWidth: 2048
Flags: W
LayerCount: 2
Fore
SplineSet
-845 810 m 1,0,-1
 659 1430 l 1,1,-1
 659 -10 l 1,2,-1
 -845 608 l 1,3,-1
 -845 810 l 1,0,-1
459 305 m 1,4,-1
 459 1114 l 1,5,-1
 -587 718 l 1,6,-1
 -587 700 l 1,7,-1
 459 305 l 1,4,-1
EndSplineSet
EndChar

StartChar: glyph209
Encoding: 65644 -1 209
Width: 1200
VWidth: 2048
Flags: W
LayerCount: 2
Fore
SplineSet
340 1760 m 1,0,-1
 540 1760 l 1,1,-1
 540 -280 l 1,2,-1
 340 -280 l 1,3,-1
 340 1760 l 1,0,-1
-1904 608 m 1,4,-1
 -1904 810 l 1,5,-1
 -400 1430 l 1,6,-1
 -400 -10 l 1,7,-1
 -1904 608 l 1,4,-1
-1646 718 m 1,8,-1
 -1646 700 l 1,9,-1
 -600 305 l 1,10,-1
 -600 1114 l 1,11,-1
 -1646 718 l 1,8,-1
EndSplineSet
EndChar

StartChar: glyph210
Encoding: 65645 -1 210
Width: 1200
VWidth: 2048
Flags: W
LayerCount: 2
Fore
SplineSet
-856 -280 m 1,0,-1
 -856 1760 l 1,1,-1
 -656 1760 l 1,2,-1
 -656 -280 l 1,3,-1
 -856 -280 l 1,0,-1
144 1760 m 1,4,-1
 344 1760 l 1,5,-1
 344 -280 l 1,6,-1
 144 -280 l 1,7,-1
 144 1760 l 1,4,-1
-3104 608 m 1,8,-1
 -3104 810 l 1,9,-1
 -1600 1430 l 1,10,-1
 -1600 -10 l 1,11,-1
 -3104 608 l 1,8,-1
-2846 718 m 1,12,-1
 -2846 700 l 1,13,-1
 -1800 305 l 1,14,-1
 -1800 1114 l 1,15,-1
 -2846 718 l 1,12,-1
EndSplineSet
EndChar

StartChar: glyph212
Encoding: 65647 -1 212
Width: 1200
VWidth: 2048
Flags: W
LayerCount: 2
Fore
SplineSet
881.5 98.5 m 128,-1,1
 789 2 789 2 602 -22 c 1,2,-1
 602 -334 l 1,3,-1
 464 -334 l 1,4,-1
 464 -27 l 1,5,-1
 -1000 608 l 1,6,-1
 -1000 810 l 1,7,-1
 -22 1210 l 1,8,-1
 -22 994 l 1,9,-1
 -752 718 l 1,10,-1
 -752 700 l 1,11,-1
 464 192 l 1,12,-1
 464 624 l 1,13,-1
 384 660 l 2,14,15
 234 728 234 728 159 822 c 128,-1,16
 84 916 84 916 84 1050 c 0,17,18
 84 1220 84 1220 182.5 1320 c 128,-1,19
 281 1420 281 1420 464 1437 c 1,20,-1
 464 1720 l 1,21,-1
 602 1720 l 1,22,-1
 602 1437 l 1,23,24
 764 1422 764 1422 852 1335 c 128,-1,25
 940 1248 940 1248 940 1102 c 1,26,-1
 744 1102 l 1,27,28
 744 1162 744 1162 707 1200 c 128,-1,29
 670 1238 670 1238 602 1250 c 1,30,-1
 602 796 l 1,31,-1
 652 772 l 2,32,33
 816 695 816 695 895 600.5 c 128,-1,34
 974 506 974 506 974 366 c 0,35,0
 974 195 974 195 881.5 98.5 c 128,-1,1
464 861 m 1,36,-1
 464 1250 l 1,37,38
 384 1235 384 1235 341 1186 c 128,-1,39
 298 1137 298 1137 298 1060 c 0,40,41
 298 993 298 993 333.5 949.5 c 128,-1,42
 369 906 369 906 444 870 c 2,43,-1
 464 861 l 1,36,-1
760 362 m 0,45,46
 760 489 760 489 630 548 c 2,47,-1
 602 561 l 1,48,-1
 602 166 l 1,49,44
 760 203 760 203 760 362 c 0,45,46
EndSplineSet
EndChar

StartChar: glyph213
Encoding: 65648 -1 213
Width: 1200
VWidth: 2048
Flags: W
LayerCount: 2
Fore
SplineSet
960 810 m 1,0,-1
 960 608 l 1,1,-1
 2 214 l 1,2,-1
 2 434 l 1,3,-1
 702 700 l 1,4,-1
 702 718 l 1,5,-1
 -530 1225 l 1,6,-1
 -530 796 l 1,7,-1
 -480 772 l 2,8,9
 -315 694 -315 694 -236.5 600 c 128,-1,10
 -158 506 -158 506 -158 366 c 0,11,12
 -158 195 -158 195 -250.5 98.5 c 128,-1,13
 -343 2 -343 2 -530 -22 c 1,14,-1
 -530 -334 l 1,15,-1
 -668 -334 l 1,16,-1
 -668 -36 l 1,17,-1
 -2200 608 l 1,18,-1
 -2200 810 l 1,19,-1
 -1222 1210 l 1,20,-1
 -1222 994 l 1,21,-1
 -1952 718 l 1,22,-1
 -1952 700 l 1,23,-1
 -668 173 l 1,24,-1
 -668 624 l 1,25,-1
 -748 660 l 2,26,27
 -898 728 -898 728 -973 822 c 128,-1,28
 -1048 916 -1048 916 -1048 1050 c 0,29,30
 -1048 1220 -1048 1220 -949.5 1320 c 128,-1,31
 -851 1420 -851 1420 -668 1437 c 1,32,-1
 -668 1720 l 1,33,-1
 -530 1720 l 1,34,-1
 -530 1440 l 1,35,-1
 960 810 l 1,0,-1
-668 861 m 1,36,-1
 -668 1250 l 1,37,38
 -748 1235 -748 1235 -791 1186 c 128,-1,39
 -834 1137 -834 1137 -834 1060 c 0,40,41
 -834 993 -834 993 -798.5 949 c 128,-1,42
 -763 905 -763 905 -688 870 c 2,43,-1
 -668 861 l 1,36,-1
-530 561 m 1,44,-1
 -530 166 l 1,45,46
 -372 203 -372 203 -372 362 c 0,47,48
 -372 489 -372 489 -502 548 c 2,49,-1
 -530 561 l 1,44,-1
EndSplineSet
EndChar

StartChar: glyph216
Encoding: 65651 -1 216
Width: 1200
VWidth: 2048
Flags: W
LayerCount: 2
Fore
SplineSet
-800 828 m 1,0,-1
 -800 1030 l 1,1,-1
 704 1384 l 1,2,-1
 704 1154 l 1,3,-1
 -422 938 l 1,4,-1
 -422 920 l 1,5,-1
 704 704 l 1,6,-1
 704 474 l 1,7,-1
 -800 828 l 1,0,-1
-800 378 m 1,8,-1
 -800 588 l 1,9,-1
 704 214 l 1,10,-1
 704 4 l 1,11,-1
 -800 378 l 1,8,-1
EndSplineSet
EndChar

StartChar: glyph217
Encoding: 65652 -1 217
Width: 1200
VWidth: 2048
Flags: W
LayerCount: 2
Fore
SplineSet
-1645 846 m 1,0,-1
 -1866 718 l 1,1,-1
 -1866 700 l 1,2,-1
 -1636 572 l 1,3,-1
 920 572 l 1,4,-1
 920 386 l 1,5,-1
 -1406 386 l 1,6,-1
 -1406 362 l 1,7,-1
 -1206 332 l 1,8,-1
 -1206 92 l 1,9,-1
 -2160 648 l 1,10,-1
 -2160 770 l 1,11,-1
 -1206 1324 l 1,12,-1
 -1206 1084 l 1,13,-1
 -1410 1052 l 1,14,-1
 -1410 1032 l 1,15,-1
 920 1032 l 1,16,-1
 920 846 l 1,17,-1
 -1645 846 l 1,0,-1
EndSplineSet
EndChar

StartChar: glyph218
Encoding: 65653 -1 218
Width: 1200
VWidth: 2048
Flags: W
LayerCount: 2
Fore
SplineSet
6 1304 m 1,0,-1
 960 770 l 1,1,-1
 960 648 l 1,2,-1
 6 112 l 1,3,-1
 6 332 l 1,4,-1
 206 362 l 1,5,-1
 206 386 l 1,6,-1
 -2606 386 l 1,7,-1
 -2606 362 l 1,8,-1
 -2406 332 l 1,9,-1
 -2406 112 l 1,10,-1
 -3360 648 l 1,11,-1
 -3360 770 l 1,12,-1
 -2406 1304 l 1,13,-1
 -2406 1084 l 1,14,-1
 -2610 1052 l 1,15,-1
 -2610 1032 l 1,16,-1
 210 1032 l 1,17,-1
 210 1052 l 1,18,-1
 6 1084 l 1,19,-1
 6 1304 l 1,0,-1
-3066 718 m 1,20,-1
 -3066 700 l 1,21,-1
 -2800 552 l 1,22,-1
 400 552 l 1,23,-1
 666 700 l 1,24,-1
 666 718 l 1,25,-1
 410 866 l 1,26,-1
 -2810 866 l 1,27,-1
 -3066 718 l 1,20,-1
EndSplineSet
EndChar

StartChar: glyph219
Encoding: 65654 -1 219
Width: 1200
VWidth: 2048
Flags: W
LayerCount: 2
Fore
SplineSet
6 1324 m 1,0,-1
 960 770 l 1,1,-1
 960 648 l 1,2,-1
 6 92 l 1,3,-1
 6 332 l 1,4,-1
 206 362 l 1,5,-1
 206 386 l 1,6,-1
 -1406 386 l 1,7,-1
 -1406 362 l 1,8,-1
 -1206 332 l 1,9,-1
 -1206 92 l 1,10,-1
 -2160 648 l 1,11,-1
 -2160 770 l 1,12,-1
 -1206 1324 l 1,13,-1
 -1206 1084 l 1,14,-1
 -1410 1052 l 1,15,-1
 -1410 1032 l 1,16,-1
 210 1032 l 1,17,-1
 210 1052 l 1,18,-1
 6 1084 l 1,19,-1
 6 1324 l 1,0,-1
-1866 718 m 1,20,-1
 -1866 700 l 1,21,-1
 -1636 572 l 1,22,-1
 436 572 l 1,23,-1
 666 700 l 1,24,-1
 666 718 l 1,25,-1
 445 846 l 1,26,-1
 -1645 846 l 1,27,-1
 -1866 718 l 1,20,-1
EndSplineSet
EndChar

StartChar: glyph220
Encoding: 65655 -1 220
Width: 1200
VWidth: 2048
Flags: W
LayerCount: 2
Fore
SplineSet
-1679 826 m 1,0,-1
 -1866 718 l 1,1,-1
 -1866 700 l 1,2,-1
 -1672 592 l 1,3,-1
 528 592 l 1,4,-1
 920 332 l 1,5,-1
 920 112 l 1,6,-1
 466 386 l 1,7,-1
 -1406 386 l 1,8,-1
 -1406 362 l 1,9,-1
 -1206 332 l 1,10,-1
 -1206 92 l 1,11,-1
 -2160 648 l 1,12,-1
 -2160 770 l 1,13,-1
 -1206 1324 l 1,14,-1
 -1206 1084 l 1,15,-1
 -1410 1052 l 1,16,-1
 -1410 1032 l 1,17,-1
 469 1032 l 1,18,-1
 920 1304 l 1,19,-1
 920 1084 l 1,20,-1
 528 826 l 1,21,-1
 -1679 826 l 1,0,-1
EndSplineSet
EndChar

StartChar: glyph222
Encoding: 65657 -1 222
Width: 1200
VWidth: 2048
Flags: W
LayerCount: 2
Fore
SplineSet
-960 608 m 1,0,-1
 -960 810 l 1,1,-1
 18 1254 l 1,2,-1
 18 1034 l 1,3,-1
 -702 718 l 1,4,-1
 -702 700 l 1,5,-1
 18 384 l 1,6,-1
 18 164 l 1,7,-1
 -960 608 l 1,0,-1
-38 608 m 1,8,-1
 -38 810 l 1,9,-1
 920 1254 l 1,10,-1
 920 1034 l 1,11,-1
 220 718 l 1,12,-1
 220 700 l 1,13,-1
 920 384 l 1,14,-1
 920 164 l 1,15,-1
 -38 608 l 1,8,-1
EndSplineSet
EndChar

StartChar: glyph223
Encoding: 65658 -1 223
Width: 1200
VWidth: 2048
Flags: W
LayerCount: 2
Fore
SplineSet
-1866 718 m 1,0,-1
 -1866 700 l 1,1,-1
 -1206 352 l 1,2,-1
 -1206 112 l 1,3,-1
 -2160 648 l 1,4,-1
 -2160 770 l 1,5,-1
 -1206 1304 l 1,6,-1
 -1206 1064 l 1,7,-1
 -1866 718 l 1,0,-1
-906 614 m 1,8,-1
 -906 570 l 1,9,10
 -879 568 -879 568 -822.5 547.5 c 128,-1,11
 -766 527 -766 527 -593 458 c 2,12,-1
 -324 352 l 1,13,-1
 -324 112 l 1,14,-1
 -1278 648 l 1,15,-1
 -1278 770 l 1,16,-1
 -324 1304 l 1,17,-1
 -324 1064 l 1,18,19
 -620 935 -620 935 -739 892.5 c 128,-1,20
 -858 850 -858 850 -906 846 c 1,21,-1
 -906 802 l 1,22,-1
 920 802 l 1,23,-1
 920 614 l 1,24,-1
 -906 614 l 1,8,-1
EndSplineSet
EndChar

StartChar: glyph224
Encoding: 65659 -1 224
Width: 1200
VWidth: 2048
Flags: W
LayerCount: 2
Fore
SplineSet
-1866 718 m 1,0,-1
 -1866 700 l 1,1,-1
 -1206 332 l 1,2,-1
 -1206 92 l 1,3,-1
 -2160 648 l 1,4,-1
 -2160 770 l 1,5,-1
 -1206 1324 l 1,6,-1
 -1206 1084 l 1,7,-1
 -1866 718 l 1,0,-1
-925 846 m 1,8,-1
 -1146 718 l 1,9,-1
 -1146 700 l 1,10,-1
 -916 572 l 1,11,-1
 920 572 l 1,12,-1
 920 386 l 1,13,-1
 -686 386 l 1,14,-1
 -686 362 l 1,15,-1
 -486 332 l 1,16,-1
 -486 92 l 1,17,-1
 -1440 648 l 1,18,-1
 -1440 770 l 1,19,-1
 -486 1324 l 1,20,-1
 -486 1084 l 1,21,-1
 -690 1052 l 1,22,-1
 -690 1032 l 1,23,-1
 920 1032 l 1,24,-1
 920 846 l 1,25,-1
 -925 846 l 1,8,-1
EndSplineSet
EndChar

StartChar: glyph226
Encoding: 65661 -1 226
Width: 1200
VWidth: 2048
Flags: W
LayerCount: 2
Fore
SplineSet
932 748 m 1,1,-1
 836 604 l 1,2,3
 772 674 772 674 638 674 c 0,4,5
 591 674 591 674 556 661.5 c 128,-1,6
 521 649 521 649 473 622 c 0,7,8
 432 600 432 600 403 587.5 c 128,-1,9
 374 575 374 575 332 565.5 c 128,-1,10
 290 556 290 556 236 556 c 0,11,12
 150 556 150 556 95.5 571.5 c 128,-1,13
 41 587 41 587 -25 617 c 0,14,15
 -86 646 -86 646 -135.5 660 c 128,-1,16
 -185 674 -185 674 -260 674 c 0,17,18
 -307 674 -307 674 -344 666.5 c 128,-1,19
 -381 659 -381 659 -432 644 c 0,20,21
 -478 630 -478 630 -512.5 622.5 c 128,-1,22
 -547 615 -547 615 -588 614 c 1,23,-1
 -588 570 l 1,24,25
 -561 568 -561 568 -504.5 547.5 c 128,-1,26
 -448 527 -448 527 -275 458 c 2,27,-1
 -6 352 l 1,28,-1
 -6 112 l 1,29,-1
 -960 648 l 1,30,-1
 -960 770 l 1,31,-1
 -6 1304 l 1,32,-1
 -6 1064 l 1,33,34
 -302 935 -302 935 -421 892.5 c 128,-1,35
 -540 850 -540 850 -588 846 c 1,36,-1
 -588 802 l 1,37,38
 -562 803 -562 803 -536 809 c 128,-1,39
 -510 815 -510 815 -474 826 c 0,40,41
 -416 843 -416 843 -367.5 852.5 c 128,-1,42
 -319 862 -319 862 -256 862 c 0,43,44
 -177 862 -177 862 -121 846 c 128,-1,45
 -65 830 -65 830 4 799 c 0,46,47
 67 771 67 771 112 757.5 c 128,-1,48
 157 744 157 744 218 744 c 0,49,50
 276 744 276 744 316.5 752.5 c 128,-1,51
 357 761 357 761 382.5 773 c 128,-1,52
 408 785 408 785 441 805 c 0,53,54
 486 834 486 834 527 848 c 128,-1,55
 568 862 568 862 640 862 c 0,56,0
 833 862 833 862 932 748 c 1,1,-1
EndSplineSet
EndChar

StartChar: glyph228
Encoding: 65663 -1 228
Width: 1200
VWidth: 2048
Flags: W
LayerCount: 2
Fore
SplineSet
944 596 m 1,0,1
 920 577 920 577 885 566.5 c 128,-1,2
 850 556 850 556 820 556 c 0,3,4
 741 556 741 556 696.5 570 c 128,-1,5
 652 584 652 584 603 613 c 0,6,7
 568 633 568 633 539.5 645 c 128,-1,8
 511 657 511 657 466.5 665.5 c 128,-1,9
 422 674 422 674 358 674 c 0,10,11
 297 674 297 674 252 660.5 c 128,-1,12
 207 647 207 647 144 619 c 0,13,14
 75 588 75 588 19 572 c 128,-1,15
 -37 556 -37 556 -116 556 c 0,16,17
 -168 556 -168 556 -220 572.5 c 128,-1,18
 -272 589 -272 589 -352 622 c 0,19,20
 -416 649 -416 649 -453 661.5 c 128,-1,21
 -490 674 -490 674 -522 674 c 0,22,23
 -574 674 -574 674 -612.5 661.5 c 128,-1,24
 -651 649 -651 649 -704 622 c 0,25,26
 -770 590 -770 590 -824.5 573 c 128,-1,27
 -879 556 -879 556 -964 556 c 0,28,29
 -1050 556 -1050 556 -1104.5 571.5 c 128,-1,30
 -1159 587 -1159 587 -1225 617 c 0,31,32
 -1286 646 -1286 646 -1335.5 660 c 128,-1,33
 -1385 674 -1385 674 -1460 674 c 0,34,35
 -1507 674 -1507 674 -1544 666.5 c 128,-1,36
 -1581 659 -1581 659 -1632 644 c 0,37,38
 -1678 630 -1678 630 -1712.5 622.5 c 128,-1,39
 -1747 615 -1747 615 -1788 614 c 1,40,-1
 -1788 570 l 1,41,42
 -1761 568 -1761 568 -1704.5 547.5 c 128,-1,43
 -1648 527 -1648 527 -1475 458 c 2,44,-1
 -1206 352 l 1,45,-1
 -1206 112 l 1,46,-1
 -2160 648 l 1,47,-1
 -2160 770 l 1,48,-1
 -1206 1304 l 1,49,-1
 -1206 1064 l 1,50,51
 -1502 935 -1502 935 -1621 892.5 c 128,-1,52
 -1740 850 -1740 850 -1788 846 c 1,53,-1
 -1788 802 l 1,54,55
 -1762 803 -1762 803 -1736 809 c 128,-1,56
 -1710 815 -1710 815 -1674 826 c 0,57,58
 -1616 843 -1616 843 -1567.5 852.5 c 128,-1,59
 -1519 862 -1519 862 -1456 862 c 0,60,61
 -1377 862 -1377 862 -1321 846 c 128,-1,62
 -1265 830 -1265 830 -1196 799 c 0,63,64
 -1133 771 -1133 771 -1088 757.5 c 128,-1,65
 -1043 744 -1043 744 -982 744 c 0,66,67
 -904 744 -904 744 -851 760 c 128,-1,68
 -798 776 -798 776 -736 806 c 0,69,70
 -675 834 -675 834 -630 848 c 128,-1,71
 -585 862 -585 862 -520 862 c 0,72,73
 -462 862 -462 862 -417.5 847 c 128,-1,74
 -373 832 -373 832 -314 802 c 256,75,76
 -255 772 -255 772 -214 758 c 128,-1,77
 -173 744 -173 744 -120 744 c 0,78,79
 -45 744 -45 744 4.5 758 c 128,-1,80
 54 772 54 772 115 801 c 0,81,82
 181 831 181 831 235.5 846.5 c 128,-1,83
 290 862 290 862 376 862 c 0,84,85
 461 862 461 862 515.5 845 c 128,-1,86
 570 828 570 828 636 796 c 0,87,88
 689 769 689 769 727.5 756.5 c 128,-1,89
 766 744 766 744 818 744 c 256,90,91
 870 744 870 744 892 756 c 1,92,-1
 944 596 l 1,0,1
EndSplineSet
EndChar

StartChar: glyph229
Encoding: 65664 -1 229
Width: 1200
VWidth: 2048
Flags: W
LayerCount: 2
Fore
SplineSet
842 1520 m 1,0,-1
 1044 1520 l 1,1,-1
 230 -280 l 1,2,-1
 28 -280 l 1,3,-1
 202 104 l 1,4,-1
 -960 608 l 1,5,-1
 -960 810 l 1,6,-1
 18 1214 l 1,7,-1
 18 994 l 1,8,-1
 -712 718 l 1,9,-1
 -712 700 l 1,10,-1
 282 281 l 1,11,-1
 842 1520 l 1,0,-1
EndSplineSet
EndChar

StartChar: glyph230
Encoding: 65665 -1 230
Width: 1200
VWidth: 2048
Flags: W
LayerCount: 2
Fore
SplineSet
-190 1298 m 1,0,-1
 960 810 l 1,1,-1
 960 608 l 1,2,-1
 2 214 l 1,3,-1
 2 434 l 1,4,-1
 702 700 l 1,5,-1
 702 718 l 1,6,-1
 -272 1118 l 1,7,-1
 -904 -280 l 1,8,-1
 -1106 -280 l 1,9,-1
 -943 80 l 1,10,-1
 -2160 608 l 1,11,-1
 -2160 810 l 1,12,-1
 -1182 1214 l 1,13,-1
 -1182 994 l 1,14,-1
 -1912 718 l 1,15,-1
 -1912 700 l 1,16,-1
 -863 258 l 1,17,-1
 -292 1520 l 1,18,-1
 -90 1520 l 1,19,-1
 -190 1298 l 1,0,-1
EndSplineSet
EndChar

StartChar: glyph231
Encoding: 65666 -1 231
Width: 1200
VWidth: 2048
Flags: W
LayerCount: 2
Fore
SplineSet
920 606 m 1,0,-1
 36 606 l 1,1,2
 4 532 4 532 -66.5 493 c 128,-1,3
 -137 454 -137 454 -240 454 c 0,4,5
 -291 454 -291 454 -342.5 482 c 128,-1,6
 -394 510 -394 510 -469 564 c 0,7,8
 -547 620 -547 620 -597 647 c 128,-1,9
 -647 674 -647 674 -698 674 c 0,10,11
 -746 674 -746 674 -772 625.5 c 128,-1,12
 -798 577 -798 577 -798 490 c 2,13,-1
 -798 440 l 1,14,-1
 -1000 440 l 1,15,-1
 -1000 510 l 2,16,17
 -1000 681 -1000 681 -926.5 775.5 c 128,-1,18
 -853 870 -853 870 -720 870 c 0,19,20
 -667 870 -667 870 -615 845 c 128,-1,21
 -563 820 -563 820 -482 770 c 0,22,23
 -404 720 -404 720 -350.5 695 c 128,-1,24
 -297 670 -297 670 -244 670 c 0,25,26
 -196 670 -196 670 -169 694.5 c 128,-1,27
 -142 719 -142 719 -142 762 c 2,28,-1
 -142 792 l 1,29,-1
 920 792 l 1,30,-1
 920 606 l 1,0,-1
EndSplineSet
EndChar

StartChar: glyph232
Encoding: 65667 -1 232
Width: 1200
VWidth: 2048
Flags: W
LayerCount: 2
Fore
SplineSet
920 944 m 2,1,-1
 920 298 l 1,2,-1
 748 298 l 1,3,-1
 748 510 l 1,4,-1
 736 510 l 1,5,6
 718 399 718 399 662.5 338.5 c 128,-1,7
 607 278 607 278 524 278 c 0,8,9
 391 278 391 278 317.5 388.5 c 128,-1,10
 244 499 244 499 244 700 c 0,11,12
 244 919 244 919 316.5 1029.5 c 128,-1,13
 389 1140 389 1140 526 1140 c 0,14,15
 603 1140 603 1140 658.5 1079 c 128,-1,16
 714 1018 714 1018 736 908 c 1,17,-1
 748 908 l 1,18,-1
 748 938 l 2,19,20
 748 1104 748 1104 687.5 1187 c 128,-1,21
 627 1270 627 1270 508 1270 c 0,22,23
 355 1270 355 1270 262 1223.5 c 128,-1,24
 169 1177 169 1177 113 1077 c 128,-1,25
 57 977 57 977 16 800 c 0,26,27
 -9 691 -9 691 -63.5 635.5 c 128,-1,28
 -118 580 -118 580 -196 580 c 0,29,30
 -245 580 -245 580 -294.5 587.5 c 128,-1,31
 -344 595 -344 595 -416 610 c 0,32,33
 -491 625 -491 625 -539 632.5 c 128,-1,34
 -587 640 -587 640 -636 640 c 0,35,36
 -756 640 -756 640 -756 476 c 2,37,-1
 -756 446 l 1,38,-1
 -960 446 l 1,39,-1
 -960 496 l 2,40,41
 -960 667 -960 667 -895.5 751.5 c 128,-1,42
 -831 836 -831 836 -700 836 c 0,43,44
 -649 836 -649 836 -598.5 828.5 c 128,-1,45
 -548 821 -548 821 -470 806 c 0,46,47
 -395 791 -395 791 -343 783.5 c 128,-1,48
 -291 776 -291 776 -240 776 c 0,49,50
 -196 776 -196 776 -168 820 c 128,-1,51
 -140 864 -140 864 -114 970 c 0,52,53
 -79 1113 -79 1113 4.5 1219 c 128,-1,54
 88 1325 88 1325 215.5 1382.5 c 128,-1,55
 343 1440 343 1440 508 1440 c 0,56,0
 920 1440 920 1440 920 944 c 2,1,-1
704.5 528.5 m 128,-1,58
 748 589 748 589 748 700 c 0,59,60
 748 828 748 828 709.5 889 c 128,-1,61
 671 950 671 950 596 950 c 0,62,63
 424 950 424 950 424 700 c 0,64,65
 424 589 424 589 465.5 528.5 c 128,-1,66
 507 468 507 468 582 468 c 0,67,57
 661 468 661 468 704.5 528.5 c 128,-1,58
770 220 m 1,69,-1
 790 40 l 1,70,71
 698 -20 698 -20 522 -20 c 0,72,73
 265 -20 265 -20 120 115 c 128,-1,74
 -25 250 -25 250 -56 518 c 1,75,76
 46 548 46 548 114 622 c 1,77,78
 114 392 114 392 216 276 c 128,-1,79
 318 160 318 160 522 160 c 0,80,68
 685 160 685 160 770 220 c 1,69,-1
EndSplineSet
EndChar

StartChar: glyph233
Encoding: 65668 -1 233
Width: 1200
VWidth: 2048
Flags: W
LayerCount: 2
Fore
SplineSet
-635.5 871.5 m 128,-1,1
 -571 956 -571 956 -440 956 c 0,2,3
 -347 956 -347 956 -254.5 948.5 c 128,-1,4
 -162 941 -162 941 -21 926 c 256,5,6
 120 911 120 911 212.5 903.5 c 128,-1,7
 305 896 305 896 398 896 c 0,8,9
 498 896 498 896 498 1060 c 2,10,-1
 498 1090 l 1,11,-1
 700 1090 l 1,12,-1
 700 1040 l 2,13,14
 700 869 700 869 645.5 784.5 c 128,-1,15
 591 700 591 700 480 700 c 0,16,17
 385 700 385 700 290.5 707.5 c 128,-1,18
 196 715 196 715 52 730 c 256,19,20
 -92 745 -92 745 -186.5 752.5 c 128,-1,21
 -281 760 -281 760 -376 760 c 0,22,23
 -496 760 -496 760 -496 596 c 2,24,-1
 -496 566 l 1,25,-1
 -700 566 l 1,26,-1
 -700 616 l 2,27,0
 -700 787 -700 787 -635.5 871.5 c 128,-1,1
-700 432 m 1,28,-1
 700 432 l 1,29,-1
 700 246 l 1,30,-1
 -700 246 l 1,31,-1
 -700 432 l 1,28,-1
EndSplineSet
EndChar

StartChar: glyph234
Encoding: 65669 -1 234
Width: 1200
VWidth: 2048
Flags: W
LayerCount: 2
Fore
SplineSet
960 770 m 1,0,-1
 960 648 l 1,1,-1
 6 112 l 1,2,-1
 6 352 l 1,3,-1
 275 458 l 2,4,5
 448 527 448 527 504.5 547.5 c 128,-1,6
 561 568 561 568 588 570 c 1,7,-1
 588 614 l 1,8,9
 547 615 547 615 512.5 622.5 c 128,-1,10
 478 630 478 630 432 644 c 0,11,12
 381 659 381 659 344 666.5 c 128,-1,13
 307 674 307 674 260 674 c 0,14,15
 185 674 185 674 135.5 660 c 128,-1,16
 86 646 86 646 25 617 c 0,17,18
 -41 587 -41 587 -95.5 571.5 c 128,-1,19
 -150 556 -150 556 -236 556 c 0,20,21
 -290 556 -290 556 -332 565.5 c 128,-1,22
 -374 575 -374 575 -403 587.5 c 128,-1,23
 -432 600 -432 600 -473 622 c 0,24,25
 -521 649 -521 649 -556 661.5 c 128,-1,26
 -591 674 -591 674 -638 674 c 0,27,28
 -772 674 -772 674 -836 604 c 1,29,-1
 -932 748 l 1,30,31
 -833 862 -833 862 -640 862 c 0,32,33
 -568 862 -568 862 -527 848 c 128,-1,34
 -486 834 -486 834 -441 805 c 0,35,36
 -408 785 -408 785 -382.5 773 c 128,-1,37
 -357 761 -357 761 -316.5 752.5 c 128,-1,38
 -276 744 -276 744 -218 744 c 0,39,40
 -157 744 -157 744 -112 757.5 c 128,-1,41
 -67 771 -67 771 -4 799 c 0,42,43
 65 830 65 830 121 846 c 128,-1,44
 177 862 177 862 256 862 c 0,45,46
 319 862 319 862 367.5 852.5 c 128,-1,47
 416 843 416 843 474 826 c 0,48,49
 510 815 510 815 536 809 c 128,-1,50
 562 803 562 803 588 802 c 1,51,-1
 588 846 l 1,52,53
 540 850 540 850 421 892.5 c 128,-1,54
 302 935 302 935 6 1064 c 1,55,-1
 6 1304 l 1,56,-1
 960 770 l 1,0,-1
EndSplineSet
EndChar

StartChar: glyph235
Encoding: 65670 -1 235
Width: 1200
VWidth: 2048
Flags: W
LayerCount: 2
Fore
SplineSet
-840.5 751.5 m 128,-1,1
 -761 836 -761 836 -600 836 c 0,2,3
 -551 836 -551 836 -508.5 825 c 128,-1,4
 -466 814 -466 814 -402 792 c 0,5,6
 -337 768 -337 768 -288.5 756 c 128,-1,7
 -240 744 -240 744 -182 744 c 0,8,9
 -136 744 -136 744 -102 756.5 c 128,-1,10
 -68 769 -68 769 -44 788 c 128,-1,11
 -20 807 -20 807 11 838 c 0,12,13
 46 871 46 871 70.5 890 c 128,-1,14
 95 909 95 909 132 922.5 c 128,-1,15
 169 936 169 936 220 936 c 0,16,17
 276 936 276 936 322 924.5 c 128,-1,18
 368 913 368 913 428 891 c 0,19,20
 477 873 477 873 510 864.5 c 128,-1,21
 543 856 543 856 578 856 c 0,22,23
 718 856 718 856 718 1020 c 2,24,-1
 718 1050 l 1,25,-1
 920 1050 l 1,26,-1
 920 1000 l 2,27,28
 920 829 920 829 845.5 744.5 c 128,-1,29
 771 660 771 660 620 660 c 0,30,31
 574 660 574 660 528.5 670 c 128,-1,32
 483 680 483 680 412 700 c 0,33,34
 344 720 344 720 297 730 c 128,-1,35
 250 740 250 740 204 740 c 0,36,37
 155 740 155 740 118 719 c 128,-1,38
 81 698 81 698 32 656 c 0,39,40
 -5 625 -5 625 -33 605.5 c 128,-1,41
 -61 586 -61 586 -98 573 c 128,-1,42
 -135 560 -135 560 -180 560 c 0,43,44
 -217 560 -217 560 -255 569 c 128,-1,45
 -293 578 -293 578 -359 598 c 0,46,47
 -423 619 -423 619 -468 629.5 c 128,-1,48
 -513 640 -513 640 -556 640 c 0,49,50
 -716 640 -716 640 -716 476 c 2,51,-1
 -716 446 l 1,52,-1
 -920 446 l 1,53,-1
 -920 496 l 2,54,0
 -920 667 -920 667 -840.5 751.5 c 128,-1,1
EndSplineSet
EndChar

StartChar: glyph236
Encoding: 65671 -1 236
Width: 1200
VWidth: 2048
Flags: W
LayerCount: 2
Fore
SplineSet
960 770 m 1,0,-1
 960 648 l 1,1,-1
 6 112 l 1,2,-1
 6 352 l 1,3,-1
 275 458 l 2,4,5
 448 527 448 527 504.5 547.5 c 128,-1,6
 561 568 561 568 588 570 c 1,7,-1
 588 614 l 1,8,9
 547 615 547 615 512.5 622.5 c 128,-1,10
 478 630 478 630 432 644 c 0,11,12
 381 659 381 659 344 666.5 c 128,-1,13
 307 674 307 674 260 674 c 0,14,15
 185 674 185 674 135.5 660 c 128,-1,16
 86 646 86 646 25 617 c 0,17,18
 -41 587 -41 587 -95.5 571.5 c 128,-1,19
 -150 556 -150 556 -236 556 c 0,20,21
 -321 556 -321 556 -375.5 573 c 128,-1,22
 -430 590 -430 590 -496 622 c 0,23,24
 -549 649 -549 649 -587.5 661.5 c 128,-1,25
 -626 674 -626 674 -678 674 c 0,26,27
 -710 674 -710 674 -747 661.5 c 128,-1,28
 -784 649 -784 649 -848 622 c 0,29,30
 -928 589 -928 589 -980 572.5 c 128,-1,31
 -1032 556 -1032 556 -1084 556 c 0,32,33
 -1163 556 -1163 556 -1219 572 c 128,-1,34
 -1275 588 -1275 588 -1344 619 c 0,35,36
 -1407 647 -1407 647 -1452 660.5 c 128,-1,37
 -1497 674 -1497 674 -1558 674 c 0,38,39
 -1622 674 -1622 674 -1666.5 665.5 c 128,-1,40
 -1711 657 -1711 657 -1739.5 645 c 128,-1,41
 -1768 633 -1768 633 -1803 613 c 0,42,43
 -1852 584 -1852 584 -1896.5 570 c 128,-1,44
 -1941 556 -1941 556 -2020 556 c 0,45,46
 -2105 556 -2105 556 -2144 596 c 1,47,-1
 -2092 756 l 1,48,49
 -2070 744 -2070 744 -2018 744 c 256,50,51
 -1966 744 -1966 744 -1927.5 757 c 128,-1,52
 -1889 770 -1889 770 -1836 796 c 0,53,54
 -1770 828 -1770 828 -1715.5 845 c 128,-1,55
 -1661 862 -1661 862 -1576 862 c 0,56,57
 -1490 862 -1490 862 -1435.5 846.5 c 128,-1,58
 -1381 831 -1381 831 -1315 801 c 0,59,60
 -1254 772 -1254 772 -1204.5 758 c 128,-1,61
 -1155 744 -1155 744 -1080 744 c 0,62,63
 -1027 744 -1027 744 -986 758 c 128,-1,64
 -945 772 -945 772 -886 802 c 256,65,66
 -827 832 -827 832 -782.5 847 c 128,-1,67
 -738 862 -738 862 -680 862 c 0,68,69
 -615 862 -615 862 -570 848 c 128,-1,70
 -525 834 -525 834 -464 806 c 0,71,72
 -402 776 -402 776 -349 760 c 128,-1,73
 -296 744 -296 744 -218 744 c 0,74,75
 -157 744 -157 744 -112 757.5 c 128,-1,76
 -67 771 -67 771 -4 799 c 0,77,78
 65 830 65 830 121 846 c 128,-1,79
 177 862 177 862 256 862 c 0,80,81
 319 862 319 862 367.5 852.5 c 128,-1,82
 416 843 416 843 474 826 c 0,83,84
 510 815 510 815 536 809 c 128,-1,85
 562 803 562 803 588 802 c 1,86,-1
 588 846 l 1,87,88
 540 850 540 850 421 892.5 c 128,-1,89
 302 935 302 935 6 1064 c 1,90,-1
 6 1304 l 1,91,-1
 960 770 l 1,0,-1
EndSplineSet
EndChar

StartChar: glyph237
Encoding: 65672 -1 237
Width: 1200
VWidth: 2048
Flags: W
LayerCount: 2
Fore
SplineSet
-227 1052 m 1,0,-1
 920 1052 l 1,1,-1
 920 866 l 1,2,-1
 -364 866 l 1,3,-1
 -516 1260 l 1,4,-1
 -534 1260 l 1,5,-1
 -760 658 l 1,6,-1
 -980 658 l 1,7,-1
 -660 1420 l 1,8,-1
 -390 1420 l 1,9,-1
 -227 1052 l 1,0,-1
-64 366 m 1,10,-1
 -64 552 l 1,11,-1
 920 552 l 1,12,-1
 920 366 l 1,13,-1
 -64 366 l 1,10,-1
EndSplineSet
EndChar

StartChar: glyph238
Encoding: 65673 -1 238
Width: 1200
VWidth: 2048
Flags: W
LayerCount: 2
Fore
SplineSet
-911 834 m 128,-1,1
 -982 874 -982 874 -1021 947 c 128,-1,2
 -1060 1020 -1060 1020 -1060 1116 c 0,3,4
 -1060 1213 -1060 1213 -1021 1286.5 c 128,-1,5
 -982 1360 -982 1360 -911 1400 c 128,-1,6
 -840 1440 -840 1440 -746 1440 c 256,7,8
 -652 1440 -652 1440 -581.5 1400.5 c 128,-1,9
 -511 1361 -511 1361 -472.5 1288 c 128,-1,10
 -434 1215 -434 1215 -434 1116 c 0,11,12
 -434 1020 -434 1020 -473 947 c 128,-1,13
 -512 874 -512 874 -582.5 834 c 128,-1,14
 -653 794 -653 794 -746 794 c 0,15,0
 -840 794 -840 794 -911 834 c 128,-1,1
114.5 845.5 m 128,-1,17
 38 897 38 897 5 988 c 1,18,-1
 -928 306 l 1,19,-1
 -1020 432 l 1,20,-1
 -14 1162 l 1,21,22
 -5 1247 -5 1247 36 1309.5 c 128,-1,23
 77 1372 77 1372 144 1406 c 128,-1,24
 211 1440 211 1440 298 1440 c 0,25,26
 392 1440 392 1440 462.5 1400.5 c 128,-1,27
 533 1361 533 1361 571.5 1288 c 128,-1,28
 610 1215 610 1215 610 1116 c 0,29,30
 610 1020 610 1020 571 947 c 128,-1,31
 532 874 532 874 461.5 834 c 128,-1,32
 391 794 391 794 298 794 c 0,33,16
 191 794 191 794 114.5 845.5 c 128,-1,17
-839 1231 m 128,-1,35
 -874 1188 -874 1188 -874 1116 c 0,36,37
 -874 1047 -874 1047 -839 1004.5 c 128,-1,38
 -804 962 -804 962 -746 962 c 0,39,40
 -689 962 -689 962 -654.5 1004.5 c 128,-1,41
 -620 1047 -620 1047 -620 1116 c 0,42,43
 -620 1188 -620 1188 -654.5 1231 c 128,-1,44
 -689 1274 -689 1274 -746 1274 c 0,45,34
 -804 1274 -804 1274 -839 1231 c 128,-1,35
205 1231 m 128,-1,47
 170 1188 170 1188 170 1116 c 0,48,49
 170 1047 170 1047 205 1004.5 c 128,-1,50
 240 962 240 962 298 962 c 0,51,52
 355 962 355 962 389.5 1004.5 c 128,-1,53
 424 1047 424 1047 424 1116 c 0,54,55
 424 1188 424 1188 389.5 1231 c 128,-1,56
 355 1274 355 1274 298 1274 c 0,57,46
 240 1274 240 1274 205 1231 c 128,-1,47
50 258 m 1,58,59
 41 174 41 174 0.5 111 c 128,-1,60
 -40 48 -40 48 -107 14 c 128,-1,61
 -174 -20 -174 -20 -260 -20 c 0,62,63
 -354 -20 -354 -20 -425 20 c 128,-1,64
 -496 60 -496 60 -535 133 c 128,-1,65
 -574 206 -574 206 -574 302 c 0,66,67
 -574 399 -574 399 -535 472.5 c 128,-1,68
 -496 546 -496 546 -425 586 c 128,-1,69
 -354 626 -354 626 -260 626 c 0,70,71
 -155 626 -155 626 -79 575.5 c 128,-1,72
 -3 525 -3 525 30 436 c 1,73,-1
 954 1106 l 1,74,-1
 1046 986 l 1,75,-1
 50 258 l 1,58,59
948 586 m 128,-1,77
 1019 546 1019 546 1057.5 472.5 c 128,-1,78
 1096 399 1096 399 1096 302 c 0,79,80
 1096 206 1096 206 1057 133 c 128,-1,81
 1018 60 1018 60 947.5 20 c 128,-1,82
 877 -20 877 -20 784 -20 c 0,83,84
 690 -20 690 -20 619 20 c 128,-1,85
 548 60 548 60 509 133 c 128,-1,86
 470 206 470 206 470 302 c 0,87,88
 470 399 470 399 509 472.5 c 128,-1,89
 548 546 548 546 619 586 c 128,-1,90
 690 626 690 626 784 626 c 0,91,76
 877 626 877 626 948 586 c 128,-1,77
-168.5 190.5 m 128,-1,93
 -134 233 -134 233 -134 302 c 0,94,95
 -134 373 -134 373 -168.5 415.5 c 128,-1,96
 -203 458 -203 458 -260 458 c 0,97,98
 -318 458 -318 458 -353 415.5 c 128,-1,99
 -388 373 -388 373 -388 302 c 0,100,101
 -388 233 -388 233 -353 190.5 c 128,-1,102
 -318 148 -318 148 -260 148 c 0,103,92
 -203 148 -203 148 -168.5 190.5 c 128,-1,93
875.5 190.5 m 128,-1,105
 910 233 910 233 910 302 c 0,106,107
 910 373 910 373 875.5 415.5 c 128,-1,108
 841 458 841 458 784 458 c 0,109,110
 726 458 726 458 691 415.5 c 128,-1,111
 656 373 656 373 656 302 c 0,112,113
 656 233 656 233 691 190.5 c 128,-1,114
 726 148 726 148 784 148 c 0,115,104
 841 148 841 148 875.5 190.5 c 128,-1,105
EndSplineSet
EndChar

StartChar: grave
Encoding: 96 96 239
Width: 1200
VWidth: 2048
Flags: W
LayerCount: 2
Fore
SplineSet
344 1500 m 1,0,-1
 566 1500 l 1,1,-1
 766 1120 l 1,2,-1
 564 1120 l 1,3,-1
 344 1500 l 1,0,-1
EndSplineSet
EndChar

